<svg width="25" height="24" viewBox="0 0 25 24" fill="none" xmlns="http://www.w3.org/2000/svg">
<rect x="6.5" y="11" width="12" height="2" rx="1" fill="#6E0699"/>
<path fill-rule="evenodd" clip-rule="evenodd" d="M12.5 6C11.9477 6 11.5 6.44772 11.5 7V11H7.5C6.94772 11 6.5 11.4477 6.5 12C6.5 12.5523 6.94772 13 7.5 13H11.5V17C11.5 17.5523 11.9477 18 12.5 18C13.0523 18 13.5 17.5523 13.5 17V13H17.5C18.0523 13 18.5 12.5523 18.5 12C18.5 11.4477 18.0523 11 17.5 11H13.5V7C13.5 6.44772 13.0523 6 12.5 6Z" fill="currentColor"/>
</svg>
