<svg width="20" height="20" viewBox="0 0 20 20" fill="none" xmlns="http://www.w3.org/2000/svg">
<g id="solar:calendar-mark-outline">
<path id="Vector" fill-rule="evenodd" clip-rule="evenodd" d="M5.83366 1.45801C5.99942 1.45801 6.15839 1.52386 6.2756 1.64107C6.39281 1.75828 6.45866 1.91725 6.45866 2.08301V2.71884C7.01033 2.70801 7.61783 2.70801 8.28699 2.70801H11.7137C12.3828 2.70801 12.9903 2.70801 13.542 2.71884V2.08301C13.542 1.91725 13.6078 1.75828 13.725 1.64107C13.8423 1.52386 14.0012 1.45801 14.167 1.45801C14.3328 1.45801 14.4917 1.52386 14.6089 1.64107C14.7261 1.75828 14.792 1.91725 14.792 2.08301V2.77217C15.0087 2.78884 15.2137 2.80967 15.4078 2.83551C16.3845 2.96717 17.1753 3.24384 17.7995 3.86717C18.4228 4.49134 18.6995 5.28217 18.8312 6.25884C18.8728 6.57134 18.9012 6.91217 18.9203 7.28384C18.9658 7.40677 18.9714 7.54092 18.9362 7.66717C18.9587 8.33467 18.9587 9.09384 18.9587 9.95301V11.713C18.9587 13.2447 18.9587 14.458 18.8312 15.4072C18.6995 16.3838 18.4228 17.1747 17.7995 17.7988C17.1753 18.4222 16.3845 18.6988 15.4078 18.8305C14.4578 18.958 13.2453 18.958 11.7137 18.958H8.28699C6.75533 18.958 5.54199 18.958 4.59283 18.8305C3.61616 18.6988 2.82533 18.4222 2.20116 17.7988C1.57783 17.1747 1.30116 16.3838 1.16949 15.4072C1.04199 14.4572 1.04199 13.2447 1.04199 11.713V9.95301C1.04199 9.09384 1.04199 8.33467 1.06449 7.66634C1.02972 7.53998 1.03555 7.40588 1.08116 7.28301C1.09949 6.91217 1.12783 6.57134 1.16949 6.25884C1.30116 5.28217 1.57783 4.49134 2.20116 3.86717C2.82533 3.24384 3.61616 2.96717 4.59283 2.83551C4.78699 2.80967 4.99283 2.78884 5.20866 2.77217V2.08301C5.20866 1.91725 5.27451 1.75828 5.39172 1.64107C5.50893 1.52386 5.6679 1.45801 5.83366 1.45801ZM2.30283 8.12467C2.29199 8.66884 2.29199 9.28801 2.29199 9.99967V11.6663C2.29199 13.2555 2.29366 14.3847 2.40866 15.2413C2.52116 16.0788 2.73283 16.5622 3.08533 16.9147C3.43783 17.2672 3.92116 17.4788 4.75949 17.5913C5.61616 17.7063 6.74449 17.708 8.33366 17.708H11.667C13.2562 17.708 14.3853 17.7063 15.242 17.5913C16.0795 17.4788 16.5628 17.2672 16.9153 16.9147C17.2678 16.5622 17.4795 16.0788 17.592 15.2405C17.707 14.3847 17.7087 13.2555 17.7087 11.6663V9.99967C17.7087 9.28801 17.7087 8.66884 17.6978 8.12467H2.30283ZM17.6403 6.87467H2.36033C2.37366 6.71634 2.38949 6.56717 2.40866 6.42467C2.52116 5.58717 2.73283 5.10384 3.08533 4.75134C3.43783 4.39884 3.92116 4.18717 4.75949 4.07467C5.61616 3.95967 6.74449 3.95801 8.33366 3.95801H11.667C13.2562 3.95801 14.3853 3.95967 15.242 4.07467C16.0795 4.18717 16.5628 4.39884 16.9153 4.75134C17.2678 5.10384 17.4795 5.58717 17.592 6.42551C17.6112 6.56717 17.627 6.71717 17.6403 6.87467ZM13.7503 13.1247C13.5846 13.1247 13.4256 13.1905 13.3084 13.3077C13.1912 13.4249 13.1253 13.5839 13.1253 13.7497C13.1253 13.9154 13.1912 14.0744 13.3084 14.1916C13.4256 14.3088 13.5846 14.3747 13.7503 14.3747C13.9161 14.3747 14.0751 14.3088 14.1923 14.1916C14.3095 14.0744 14.3753 13.9154 14.3753 13.7497C14.3753 13.5839 14.3095 13.4249 14.1923 13.3077C14.0751 13.1905 13.9161 13.1247 13.7503 13.1247ZM11.8753 13.7497C11.8753 13.5034 11.9238 13.2596 12.0181 13.0321C12.1123 12.8047 12.2504 12.598 12.4245 12.4238C12.5986 12.2497 12.8053 12.1116 13.0328 12.0174C13.2603 11.9232 13.5041 11.8747 13.7503 11.8747C13.9966 11.8747 14.2404 11.9232 14.4679 12.0174C14.6953 12.1116 14.902 12.2497 15.0761 12.4238C15.2503 12.598 15.3884 12.8047 15.4826 13.0321C15.5768 13.2596 15.6253 13.5034 15.6253 13.7497C15.6253 14.247 15.4278 14.7239 15.0761 15.0755C14.7245 15.4271 14.2476 15.6247 13.7503 15.6247C13.253 15.6247 12.7761 15.4271 12.4245 15.0755C12.0729 14.7239 11.8753 14.247 11.8753 13.7497Z" fill="#008E44"/>
</g>
</svg>
