<svg width="131" height="21" viewBox="0 0 131 21" fill="none" xmlns="http://www.w3.org/2000/svg">
<g id="Chart">
<path id="Line" d="M1 3.5L7.7621 12L10.3629 9L12.4435 17L14.5242 15H17.125L21.2863 6L23.8871 8L28.0484 3.5L30.6492 10L32.7298 6L35.3306 10.5L36.8911 4.5H39.4919L41.5726 7.5L43.6532 6L50.4153 6.5L53.0161 2L56.1371 8H57.6976L60.8186 4.5L66.5403 8H68.621L71.2218 16H73.3024L75.3831 9L77.9839 7L80.0645 19.5L84.2258 6.5L88.9073 8.5L90.9879 12L95.6694 15L100.351 12L105.032 15.5H107.113L109.194 17.5L111.274 10L113.875 16.5L115.956 9.5L118.036 14L120.637 15.5L122.718 8.5L126.879 16" stroke="#B00020" stroke-width="1.5"/>
<circle id="Dot" cx="128" cy="18" r="3" fill="#B00020"/>
</g>
</svg>
