<svg width="131" height="21" viewBox="0 0 131 21" fill="none" xmlns="http://www.w3.org/2000/svg">
<g id="Chart">
<path id="Line" d="M1 17.5L7.7621 9L10.3629 12L12.4435 4L14.5242 6H17.125L21.2863 15L23.8871 13L28.0484 17.5L30.6492 11L32.7298 15L35.3306 10.5L36.8911 16.5H39.4919L41.5726 13.5L43.6532 15L50.4153 14.5L53.0161 19L56.1371 13H57.6976L60.8186 16.5L66.5403 13H68.621L71.2218 5H73.3024L75.3831 12L77.9839 14L80.0645 1.5L84.2258 14.5L88.9073 12.5L90.9879 9L95.6694 6L100.351 9L105.032 5.5H107.113L109.194 3.5L111.274 11L113.875 4.5L115.956 11.5L118.036 7L120.637 5.5L122.718 12.5L126.879 5" stroke="#43A047" stroke-width="1.5"/>
<circle id="Dot" cx="3" cy="3" r="3" transform="matrix(1 0 0 -1 125 6)" fill="#43A047"/>
</g>
</svg>
