<svg width="24" height="24" viewBox="0 0 24 24" fill="none" xmlns="http://www.w3.org/2000/svg">
<g id="Frame">
<path id="Vector" d="M13.3901 18.11C13.2001 18.11 13.0101 18.04 12.8601 17.89L10.1001 15.13C9.96087 14.9888 9.88281 14.7984 9.88281 14.6C9.88281 14.4017 9.96087 14.2113 10.1001 14.07C10.3901 13.78 10.8701 13.78 11.1601 14.07L13.9201 16.83C14.2101 17.12 14.2101 17.6 13.9201 17.89C13.8519 17.9616 13.7696 18.0181 13.6783 18.056C13.5871 18.0939 13.4889 18.1123 13.3901 18.11Z" fill="#FF0000"/>
<path id="Vector_2" d="M10.6101 18.1399C10.4201 18.1399 10.2301 18.0699 10.0801 17.9199C9.9406 17.7788 9.86238 17.5883 9.86238 17.3899C9.86238 17.1915 9.9406 17.0011 10.0801 16.8599L12.8401 14.0999C13.1301 13.8099 13.6101 13.8099 13.9001 14.0999C14.1901 14.3899 14.1901 14.8699 13.9001 15.1599L11.1401 17.9199C10.9901 18.0699 10.8001 18.1399 10.6101 18.1399ZM5.19008 6.38092C5.00008 6.38092 4.80008 6.30092 4.66008 6.16092C4.5206 6.01978 4.44238 5.82935 4.44238 5.63092C4.44238 5.43249 4.5206 5.24206 4.66008 5.10092L8.29008 1.47092C8.58008 1.18092 9.06008 1.18092 9.35008 1.47092C9.64008 1.76092 9.64008 2.24092 9.35008 2.53092L5.72008 6.16092C5.57008 6.30092 5.38008 6.38092 5.19008 6.38092ZM18.8101 6.38092C18.6201 6.38092 18.4301 6.31092 18.2801 6.16092L14.6501 2.53092C14.5106 2.38978 14.4324 2.19935 14.4324 2.00092C14.4324 1.80249 14.5106 1.61206 14.6501 1.47092C14.9401 1.18092 15.4201 1.18092 15.7101 1.47092L19.3401 5.10092C19.6301 5.39092 19.6301 5.87092 19.3401 6.16092C19.2001 6.30092 19.0001 6.38092 18.8101 6.38092Z" fill="#FF0000"/>
<path id="Vector_3" d="M20.21 10.6021H4C3.3 10.6121 2.5 10.6121 1.92 10.0321C1.46 9.58205 1.25 8.88205 1.25 7.85205C1.25 5.10205 3.26 5.10205 4.22 5.10205H19.78C20.74 5.10205 22.75 5.10205 22.75 7.85205C22.75 8.89205 22.54 9.58205 22.08 10.0321C21.56 10.5521 20.86 10.6021 20.21 10.6021ZM4.22 9.10205H20.01C20.46 9.11205 20.88 9.11205 21.02 8.97205C21.09 8.90205 21.24 8.66205 21.24 7.85205C21.24 6.72205 20.96 6.60205 19.77 6.60205H4.22C3.03 6.60205 2.75 6.72205 2.75 7.85205C2.75 8.66205 2.91 8.90205 2.97 8.97205C3.11 9.10205 3.54 9.10205 3.98 9.10205H4.22Z" fill="#FF0000"/>
<path id="Vector_4" d="M14.8902 22.75H8.86024C5.28024 22.75 4.48024 20.62 4.17024 18.77L2.76024 10.12C2.69024 9.71 2.97024 9.33 3.38024 9.26C3.79024 9.19 4.17024 9.47 4.24024 9.88L5.65024 18.52C5.94024 20.29 6.54024 21.25 8.86024 21.25H14.8902C17.4602 21.25 17.7502 20.35 18.0802 18.61L19.7602 9.86C19.8402 9.45 20.2302 9.18 20.6402 9.27C21.0502 9.35 21.3102 9.74 21.2302 10.15L19.5502 18.9C19.1602 20.93 18.5102 22.75 14.8902 22.75Z" fill="#FF0000"/>
</g>
</svg>
