<svg width="24" height="24" viewBox="0 0 24 24" fill="none" xmlns="http://www.w3.org/2000/svg">
<g id="Frame">
<path id="Vector" d="M5.53999 19.5201C4.92999 19.5201 4.35999 19.31 3.94999 18.92C3.42999 18.43 3.17999 17.69 3.26999 16.89L3.63999 13.65C3.70999 13.04 4.07999 12.23 4.50999 11.79L12.72 3.10005C14.77 0.930049 16.91 0.870049 19.08 2.92005C21.25 4.97005 21.31 7.11005 19.26 9.28005L11.05 17.97C10.63 18.42 9.84999 18.84 9.23999 18.9401L6.01999 19.49C5.84999 19.5 5.69999 19.5201 5.53999 19.5201ZM15.93 2.91005C15.16 2.91005 14.49 3.39005 13.81 4.11005L5.59999 12.8101C5.39999 13.0201 5.16999 13.5201 5.12999 13.8101L4.75999 17.05C4.71999 17.38 4.79999 17.65 4.97999 17.82C5.15999 17.99 5.42999 18.05 5.75999 18L8.97999 17.4501C9.26999 17.4001 9.74999 17.14 9.94999 16.93L18.16 8.24005C19.4 6.92005 19.85 5.70005 18.04 4.00005C17.24 3.23005 16.55 2.91005 15.93 2.91005Z" fill="black"/>
<path id="Vector_2" d="M17.34 10.9491H17.27C15.7545 10.8005 14.3315 10.1518 13.2253 9.10534C12.1191 8.05886 11.3925 6.67405 11.16 5.16912C11.1 4.75912 11.38 4.37912 11.79 4.30912C12.2 4.24912 12.58 4.52912 12.65 4.93912C12.8331 6.11576 13.402 7.19822 14.2672 8.01639C15.1324 8.83456 16.245 9.34205 17.43 9.45912C17.84 9.49912 18.14 9.86912 18.1 10.2791C18.05 10.6591 17.72 10.9491 17.34 10.9491ZM21 22.7501H3C2.59 22.7501 2.25 22.4101 2.25 22.0001C2.25 21.5901 2.59 21.2501 3 21.2501H21C21.41 21.2501 21.75 21.5901 21.75 22.0001C21.75 22.4101 21.41 22.7501 21 22.7501Z" fill="black"/>
</g>
</svg>
