<svg width="12" height="12" viewBox="0 0 12 12" fill="#fff" xmlns="http://www.w3.org/2000/svg">
<g id="Frame" clip-path="url(#clip0_13_1510)">
<path id="Vector" d="M10.955 11L9.44001 9.48499M8.64501 2.06999L8.61001 3.96499C8.60501 4.22499 8.77001 4.56999 8.98001 4.72499L10.22 5.66499C11.015 6.26499 10.885 6.99999 9.93501 7.29999L8.32001 7.80499C8.05001 7.88999 7.76501 8.18499 7.69501 8.45999L7.31001 9.92999C7.00501 11.09 6.24501 11.205 5.61501 10.185L4.73501 8.75999C4.57501 8.49999 4.19501 8.30499 3.89501 8.31999L2.22501 8.40499C1.03001 8.46499 0.690013 7.77499 1.47001 6.86499L2.46001 5.71499C2.64501 5.49999 2.73001 5.09999 2.64501 4.82999L2.14001 3.21499C1.84501 2.26499 2.37501 1.73999 3.32001 2.04999L4.79501 2.53499C5.04501 2.61499 5.42001 2.55999 5.63001 2.40499L7.17001 1.29499C8.00001 0.69499 8.66501 1.04499 8.64501 2.06999Z" stroke="#121212" stroke-width="0.75" stroke-linecap="round" stroke-linejoin="round"/>
</g>
<defs>
<clipPath id="clip0_13_1510">
<rect width="12" height="12" fill="#fff"/>
</clipPath>
</defs>
</svg>
