<svg width="24" height="24" viewBox="0 0 24 24" fill="none" xmlns="http://www.w3.org/2000/svg">
<g clip-path="url(#clip0_10_2649)">
<path d="M7.07834 23.5508C6.60516 23.2359 6.18579 22.847 5.83634 22.3988C5.45196 21.9361 5.09581 21.4507 4.76984 20.9453C4.0049 19.8246 3.40502 18.5998 2.98859 17.3085C2.48834 15.8085 2.24609 14.3708 2.24609 12.9645C2.24609 11.394 2.58584 10.023 3.25034 8.871C3.74293 7.97058 4.46715 7.21813 5.34809 6.6915C6.20182 6.16123 7.18277 5.87104 8.18759 5.8515C8.53934 5.8515 8.91809 5.9025 9.32009 6C9.60884 6.08175 9.96059 6.21075 10.3903 6.37125C10.9371 6.582 11.2378 6.711 11.3398 6.7425C11.6601 6.8595 11.9293 6.9105 12.1408 6.9105C12.3013 6.9105 12.5278 6.8595 12.7851 6.7815C12.9298 6.7305 13.2028 6.6405 13.5936 6.47325C13.9806 6.33225 14.2851 6.2115 14.5273 6.1215C14.8986 6.012 15.2578 5.91075 15.5781 5.85975C15.9578 5.7999 16.343 5.78404 16.7263 5.8125C17.3906 5.85592 18.0448 5.99667 18.6681 6.23025C19.6873 6.6405 20.5116 7.281 21.1251 8.1915C20.8658 8.35132 20.6224 8.53567 20.3983 8.742C19.9105 9.17444 19.4951 9.6821 19.1676 10.2458C18.7396 11.016 18.5177 11.8838 18.5233 12.765C18.5391 13.8473 18.8166 14.8005 19.3633 15.6248C19.7653 16.2356 20.2877 16.758 20.8986 17.16C21.2113 17.3708 21.4806 17.5155 21.7386 17.613C21.6178 17.988 21.4888 18.351 21.3366 18.711C20.9913 19.5183 20.5728 20.2923 20.0863 21.0233C19.6528 21.6525 19.3131 22.1213 19.0551 22.4333C18.6531 22.9095 18.2661 23.2733 17.8753 23.5268C17.4456 23.8118 16.9378 23.964 16.4218 23.964C16.0724 23.9774 15.723 23.9351 15.3868 23.8388C15.0981 23.7413 14.8123 23.6355 14.5311 23.5148C14.2387 23.3804 13.9372 23.2669 13.6288 23.175C12.8666 22.9792 12.0674 22.9779 11.3046 23.1713C10.9918 23.2613 10.6911 23.3663 10.3941 23.4953C9.97634 23.6708 9.69884 23.7885 9.53834 23.8388C9.21809 23.9325 8.88584 23.991 8.54984 24.0105C8.03009 24.0105 7.54559 23.862 7.06559 23.5613L7.07834 23.5508ZM13.9333 5.0895C13.2538 5.42925 12.6051 5.574 11.9608 5.52675C11.8596 4.878 11.9608 4.21425 12.2301 3.4875C12.4593 2.8718 12.798 2.30264 13.2298 1.8075C13.6858 1.28627 14.2392 0.859034 14.8588 0.549752C15.5188 0.210002 16.1481 0.0262523 16.7496 -0.000747681C16.8276 0.678752 16.7496 1.347 16.4998 2.06925C16.2687 2.70772 15.9306 3.3022 15.5001 3.82725C15.0606 4.3492 14.5213 4.77809 13.9138 5.08875L13.9333 5.0895Z" fill="black"/>
</g>
<defs>
<clipPath id="clip0_10_2649">
<rect width="24" height="24" fill="white"/>
</clipPath>
</defs>
</svg>
