<svg width="56" height="18" viewBox="0 0 56 18" fill="none" xmlns="http://www.w3.org/2000/svg">
<g id="paytm-1 1" clip-path="url(#clip0_1_4583)">
<path id="Vector" d="M55.8108 5.18191C55.3025 3.7286 53.9171 2.68498 52.2902 2.68498H52.2561C51.1984 2.68498 50.2451 3.12514 49.5666 3.83186C48.8869 3.12514 47.9336 2.68498 46.877 2.68498H46.8429C45.9131 2.68498 45.0633 3.02546 44.4105 3.58882V3.30233C44.3881 3.01695 44.1534 2.79273 43.8635 2.79273H41.3677C41.0624 2.79273 40.816 3.03935 40.816 3.34556V16.8989C40.816 17.2053 41.0626 17.4517 41.3677 17.4517H43.8635C44.1417 17.4517 44.3707 17.2439 44.4072 16.9751L44.406 7.2454C44.406 7.21135 44.4072 7.17977 44.4108 7.14796C44.4506 6.71362 44.7687 6.35679 45.2714 6.31199H45.7315C45.9416 6.33081 46.119 6.40473 46.2585 6.51628C46.4758 6.68876 46.5965 6.9542 46.5965 7.2454L46.6059 16.9271C46.6059 17.2336 46.8537 17.4813 47.1577 17.4813H49.6535C49.948 17.4813 50.1877 17.2465 50.2018 16.9542L50.2007 7.23263C50.1996 6.91321 50.3474 6.62447 50.6068 6.45311C50.7347 6.3709 50.8886 6.3158 51.0658 6.29922H51.5259C52.066 6.34626 52.3923 6.75596 52.3912 7.23263L52.4006 16.9014C52.4006 17.2078 52.6483 17.4542 52.9523 17.4542H55.4481C55.7521 17.4542 55.9998 17.2076 55.9998 16.9014V6.50261C55.9998 5.79343 55.9201 5.4917 55.8108 5.18191ZM38.9145 2.82812H37.4869V0.508374C37.4869 0.230166 37.2616 0.00482178 36.9834 0.00482178C36.9504 0.00482178 36.9188 0.00952578 36.8882 0.0153498C35.3056 0.449686 35.6226 2.64153 32.7336 2.82812H32.453C32.4106 2.82812 32.3708 2.83394 32.332 2.84223H32.3298L32.332 2.84335C32.0854 2.89845 31.8999 3.11685 31.8999 3.37983V5.87586C31.8999 6.17983 32.1476 6.42757 32.4527 6.42757H33.9589L33.9567 17.0109C33.9567 17.3126 34.2008 17.5568 34.5026 17.5568H36.9701C37.2708 17.5568 37.5149 17.3126 37.5149 17.0109L37.516 6.42757H38.9142C39.2182 6.42757 39.466 6.17983 39.466 5.87586V3.38005C39.4664 3.07586 39.2187 2.82812 38.9145 2.82812Z" fill="#54C1F0"/>
<path id="Vector_2" d="M29.9349 2.82857H27.4391C27.1351 2.82857 26.8885 3.07632 26.8885 3.38029V8.54102C26.8827 8.86045 26.6244 9.11625 26.3039 9.11625H25.2591C24.9352 9.11625 24.6734 8.85574 24.6734 8.53161L24.664 3.38029C24.664 3.07632 24.4162 2.82857 24.1123 2.82857H21.6162C21.3109 2.82857 21.0645 3.07632 21.0645 3.38029V9.03651C21.0645 11.1849 22.5964 12.7168 24.746 12.7168C24.746 12.7168 26.359 12.7168 26.4083 12.7262C26.6995 12.7592 26.9259 13.0033 26.9259 13.3039C26.9259 13.601 26.7039 13.844 26.4163 13.8803C26.4022 13.8825 26.3892 13.8861 26.374 13.8886L22.7241 13.9016C22.4188 13.9016 22.1724 14.1493 22.1724 14.4533V16.948C22.1724 17.2533 22.419 17.4997 22.7241 17.4997H26.8047C28.9554 17.4997 30.4862 15.9689 30.4862 13.8194V3.38051C30.4866 3.07632 30.2402 2.82857 29.9349 2.82857ZM5.99648 2.82812H0.541184C0.24192 2.82812 0 3.07094 0 3.36931V5.81472C0 5.81942 0.00112 5.82413 0.00112 5.82883C0.00112 5.84048 0 5.85235 0 5.86288V16.9307C0 17.2313 0.225344 17.4766 0.504896 17.4836H3.04774C3.35171 17.4836 3.59946 17.2369 3.59946 16.9318L3.60886 13.1388H5.9967C7.99478 13.1388 9.38717 11.7525 9.38717 9.74614V6.22553C9.38694 4.21917 7.99456 2.82812 5.99648 2.82812ZM5.77696 8.94198C5.77696 9.26477 5.5151 9.52774 5.19232 9.52774L3.60864 9.52886V6.44259H5.19232C5.5151 6.44259 5.77696 6.7031 5.77696 7.02723V8.94198ZM15.7358 2.84224H12.2727C11.9663 2.84224 11.7186 3.07475 11.7186 3.3599V4.33072C11.7186 4.33654 11.7197 4.34371 11.7197 4.34953C11.7197 4.35648 11.7186 4.36365 11.7186 4.37059V5.7007C11.7186 6.00243 11.9815 6.24883 12.3054 6.24883H15.6032C15.8637 6.28982 16.0704 6.48 16.0998 6.77702V7.09869C16.0704 7.3816 15.8661 7.58813 15.6173 7.61165H13.9843C11.8124 7.61165 10.2652 9.05443 10.2652 11.0807V13.9827C10.2652 15.9971 11.5954 17.4305 13.7518 17.4305H18.2775C19.09 17.4305 19.7485 16.8154 19.7485 16.058V6.58841C19.7485 4.29219 18.5651 2.84224 15.7358 2.84224ZM16.1327 13.6509C16.1327 13.6827 16.128 13.7132 16.1233 13.7425C16.1174 13.7701 16.1096 13.7972 16.0998 13.8236C16.0223 14.042 15.8039 14.2004 15.5445 14.2004H14.5056C14.1817 14.2004 13.9173 13.9538 13.9173 13.6509V13.1801C13.9173 13.1742 13.9162 13.1684 13.9162 13.1624L13.9173 11.9098V11.5178L13.9185 11.5142C13.9196 11.2124 14.1814 10.9683 14.5053 10.9683H15.5443C15.8695 10.9683 16.1325 11.2136 16.1325 11.5178V13.6509H16.1327Z" fill="#233266"/>
</g>
<defs>
<clipPath id="clip0_1_4583">
<rect width="56" height="17.5616" fill="white"/>
</clipPath>
</defs>
</svg>
