<svg width="24" height="24" viewBox="0 0 24 24" fill="none" xmlns="http://www.w3.org/2000/svg">
<g id="solar:medal-ribbons-star-bold">
<g id="Group">
<path id="Vector" fill-rule="evenodd" clip-rule="evenodd" d="M11.9999 15.8095C13.768 15.8095 15.4637 15.1072 16.714 13.8569C17.9642 12.6067 18.6666 10.911 18.6666 9.14286C18.6666 7.37475 17.9642 5.67906 16.714 4.42882C15.4637 3.17858 13.768 2.4762 11.9999 2.4762C10.2318 2.4762 8.53612 3.17858 7.28587 4.42882C6.03563 5.67906 5.33325 7.37475 5.33325 9.14286C5.33325 10.911 6.03563 12.6067 7.28587 13.8569C8.53612 15.1072 10.2318 15.8095 11.9999 15.8095ZM11.9999 6.28572C11.7294 6.28572 11.5485 6.60953 11.1866 7.26001L11.0933 7.42762C10.9904 7.61239 10.939 7.70382 10.859 7.76477C10.778 7.82572 10.678 7.84858 10.478 7.89334L10.2971 7.93524C9.5942 8.09429 9.24278 8.17334 9.15897 8.44191C9.07516 8.71143 9.31516 8.99143 9.7942 9.55143L9.91801 9.6962C10.0542 9.85524 10.1228 9.93429 10.1533 10.0333C10.1837 10.1324 10.1733 10.2381 10.1533 10.4505L10.1342 10.6438C10.0618 11.3914 10.0256 11.7657 10.2437 11.9314C10.4628 12.0971 10.7923 11.9457 11.4504 11.6429L11.6199 11.5648C11.8075 11.4791 11.9009 11.4362 11.9999 11.4362C12.099 11.4362 12.1923 11.4791 12.3799 11.5648L12.5494 11.6429C13.2075 11.9467 13.5371 12.0971 13.7561 11.9314C13.9752 11.7657 13.938 11.3914 13.8656 10.6438L13.8466 10.4505C13.8266 10.2381 13.8161 10.1324 13.8466 10.0333C13.8771 9.93524 13.9456 9.85524 14.0818 9.6962L14.2056 9.55143C14.6847 8.99143 14.9247 8.71143 14.8409 8.44191C14.7571 8.17334 14.4056 8.09429 13.7028 7.93524L13.5218 7.89334C13.3218 7.84858 13.2218 7.82667 13.1409 7.76477C13.0609 7.70382 13.0094 7.61239 12.9066 7.42762L12.8133 7.26001C12.4513 6.60953 12.2704 6.28572 11.9999 6.28572Z" fill="#6100FF"/>
<path id="Vector_2" d="M4.85233 12.9476L3.4209 14.4286C2.90662 14.9619 2.64948 15.2276 2.55995 15.4533C2.35709 15.9676 2.53138 16.5371 2.97233 16.8076C3.16662 16.9257 3.51519 16.9628 4.21519 17.0362C4.60948 17.0781 4.80757 17.099 4.97233 17.1628C5.34281 17.3047 5.62948 17.6028 5.76757 17.9857C5.82852 18.1571 5.84852 18.3609 5.88852 18.7695C5.95995 19.4933 5.99614 19.8552 6.11043 20.0562C6.37138 20.5133 6.92281 20.6933 7.419 20.4828C7.63614 20.3914 7.89328 20.1247 8.40852 19.5924L10.7723 17.1448C9.52713 16.9534 8.3437 16.4743 7.31605 15.7455C6.28839 15.0168 5.44482 14.0594 4.85233 12.9476ZM13.2285 17.1457L15.5923 19.5933C16.1066 20.1267 16.3638 20.3924 16.5809 20.4847C17.0771 20.6943 17.6285 20.5143 17.8895 20.0571C18.0038 19.8571 18.039 19.4952 18.1104 18.7714C18.1514 18.3619 18.1714 18.1581 18.2323 17.9867C18.3695 17.6038 18.6571 17.3057 19.0276 17.1638C19.1923 17.1 19.3895 17.08 19.7847 17.0381C20.4838 16.9638 20.8333 16.9267 21.0276 16.8086C21.4685 16.5381 21.6428 15.9676 21.44 15.4543C21.3504 15.2286 21.0933 14.9619 20.579 14.4295L19.1476 12.9476C18.5551 14.0594 17.7115 15.0177 16.6839 15.7465C15.6562 16.4752 14.4728 16.9543 13.2276 17.1457H13.2285Z" fill="#6100FF"/>
</g>
</g>
</svg>
