<svg width="101" height="100" viewBox="0 0 101 100" fill="none" xmlns="http://www.w3.org/2000/svg">
<g id="QR Code" clip-path="url(#clip0_1_4952)">
<path id="Vector" d="M100.501 0H0.500977V100H100.501V0Z" fill="white"/>
<g id="Vector_2">
<path d="M10.251 6.25H6.75098V9.75H10.251V6.25Z" fill="black"/>
<path d="M13.751 6.25H10.251V9.75H13.751V6.25Z" fill="black"/>
<path d="M17.251 6.25H13.751V9.75H17.251V6.25Z" fill="black"/>
<path d="M20.751 6.25H17.251V9.75H20.751V6.25Z" fill="black"/>
<path d="M24.251 6.25H20.751V9.75H24.251V6.25Z" fill="black"/>
<path d="M27.751 6.25H24.251V9.75H27.751V6.25Z" fill="black"/>
<path d="M31.251 6.25H27.751V9.75H31.251V6.25Z" fill="black"/>
<path d="M38.251 6.25H34.751V9.75H38.251V6.25Z" fill="black"/>
<path d="M41.751 6.25H38.251V9.75H41.751V6.25Z" fill="black"/>
<path d="M45.251 6.25H41.751V9.75H45.251V6.25Z" fill="black"/>
<path d="M55.751 6.25H52.251V9.75H55.751V6.25Z" fill="black"/>
<path d="M66.251 6.25H62.751V9.75H66.251V6.25Z" fill="black"/>
<path d="M73.251 6.25H69.751V9.75H73.251V6.25Z" fill="black"/>
<path d="M76.751 6.25H73.251V9.75H76.751V6.25Z" fill="black"/>
<path d="M80.251 6.25H76.751V9.75H80.251V6.25Z" fill="black"/>
<path d="M83.751 6.25H80.251V9.75H83.751V6.25Z" fill="black"/>
<path d="M87.251 6.25H83.751V9.75H87.251V6.25Z" fill="black"/>
<path d="M90.751 6.25H87.251V9.75H90.751V6.25Z" fill="black"/>
<path d="M94.251 6.25H90.751V9.75H94.251V6.25Z" fill="black"/>
<path d="M10.251 9.75H6.75098V13.25H10.251V9.75Z" fill="black"/>
<path d="M31.251 9.75H27.751L27.751 13.25H31.251V9.75Z" fill="black"/>
<path d="M48.751 9.75H45.251V13.25H48.751V9.75Z" fill="black"/>
<path d="M66.251 9.75H62.751V13.25H66.251V9.75Z" fill="black"/>
<path d="M73.251 9.75H69.751V13.25H73.251V9.75Z" fill="black"/>
<path d="M94.251 9.75H90.751V13.25H94.251V9.75Z" fill="black"/>
<path d="M10.251 13.25H6.75098V16.75H10.251V13.25Z" fill="black"/>
<path d="M17.251 13.25H13.751V16.75H17.251V13.25Z" fill="black"/>
<path d="M20.751 13.25H17.251V16.75H20.751V13.25Z" fill="black"/>
<path d="M24.251 13.25H20.751V16.75H24.251V13.25Z" fill="black"/>
<path d="M31.251 13.25H27.751V16.75H31.251V13.25Z" fill="black"/>
<path d="M45.251 13.25H41.751V16.75H45.251V13.25Z" fill="black"/>
<path d="M48.751 13.25H45.251V16.75H48.751V13.25Z" fill="black"/>
<path d="M55.751 13.25H52.251V16.75H55.751V13.25Z" fill="black"/>
<path d="M62.751 13.25H59.251V16.75H62.751V13.25Z" fill="black"/>
<path d="M73.251 13.25H69.751V16.75H73.251V13.25Z" fill="black"/>
<path d="M80.251 13.25H76.751V16.75H80.251V13.25Z" fill="black"/>
<path d="M83.751 13.25H80.251V16.75H83.751V13.25Z" fill="black"/>
<path d="M87.251 13.25H83.751V16.75H87.251V13.25Z" fill="black"/>
<path d="M94.251 13.25H90.751V16.75H94.251V13.25Z" fill="black"/>
<path d="M10.251 16.75H6.75098V20.25H10.251V16.75Z" fill="black"/>
<path d="M17.251 16.75H13.751V20.25H17.251V16.75Z" fill="black"/>
<path d="M20.751 16.75H17.251V20.25H20.751V16.75Z" fill="black"/>
<path d="M24.251 16.75H20.751V20.25H24.251V16.75Z" fill="black"/>
<path d="M31.251 16.75H27.751V20.25H31.251V16.75Z" fill="black"/>
<path d="M41.751 16.75H38.251V20.25H41.751V16.75Z" fill="black"/>
<path d="M48.751 16.75H45.251V20.25H48.751V16.75Z" fill="black"/>
<path d="M55.751 16.75H52.251V20.25H55.751V16.75Z" fill="black"/>
<path d="M62.751 16.75H59.251V20.25H62.751V16.75Z" fill="black"/>
<path d="M73.251 16.75H69.751V20.25H73.251V16.75Z" fill="black"/>
<path d="M80.251 16.75H76.751V20.25H80.251V16.75Z" fill="black"/>
<path d="M83.751 16.75H80.251V20.25H83.751V16.75Z" fill="black"/>
<path d="M87.251 16.75H83.751V20.25H87.251V16.75Z" fill="black"/>
<path d="M94.251 16.75H90.751V20.25H94.251V16.75Z" fill="black"/>
<path d="M10.251 20.25H6.75098V23.75H10.251V20.25Z" fill="black"/>
<path d="M17.251 20.25H13.751V23.75H17.251V20.25Z" fill="black"/>
<path d="M20.751 20.25H17.251V23.75H20.751V20.25Z" fill="black"/>
<path d="M24.251 20.25H20.751V23.75H24.251V20.25Z" fill="black"/>
<path d="M31.251 20.25H27.751V23.75H31.251V20.25Z" fill="black"/>
<path d="M38.251 20.25H34.751V23.75H38.251V20.25Z" fill="black"/>
<path d="M41.751 20.25H38.251V23.75H41.751V20.25Z" fill="black"/>
<path d="M45.251 20.25H41.751V23.75H45.251V20.25Z" fill="black"/>
<path d="M55.751 20.25H52.251V23.75H55.751V20.25Z" fill="black"/>
<path d="M66.251 20.25H62.751V23.75H66.251V20.25Z" fill="black"/>
<path d="M73.251 20.25H69.751V23.75H73.251V20.25Z" fill="black"/>
<path d="M80.251 20.25H76.751V23.75H80.251V20.25Z" fill="black"/>
<path d="M83.751 20.25H80.251V23.75H83.751V20.25Z" fill="black"/>
<path d="M87.251 20.25H83.751V23.75H87.251V20.25Z" fill="black"/>
<path d="M94.251 20.25H90.751V23.75H94.251V20.25Z" fill="black"/>
<path d="M10.251 23.75H6.75098V27.25H10.251V23.75Z" fill="black"/>
<path d="M31.251 23.75H27.751V27.25H31.251V23.75Z" fill="black"/>
<path d="M41.751 23.75H38.251V27.25H41.751V23.75Z" fill="black"/>
<path d="M48.751 23.75H45.251V27.25H48.751V23.75Z" fill="black"/>
<path d="M52.251 23.75H48.751V27.25H52.251V23.75Z" fill="black"/>
<path d="M55.751 23.75H52.251V27.25H55.751V23.75Z" fill="black"/>
<path d="M59.251 23.75H55.751V27.25H59.251V23.75Z" fill="black"/>
<path d="M66.251 23.75H62.751V27.25H66.251V23.75Z" fill="black"/>
<path d="M73.251 23.75H69.751V27.25H73.251V23.75Z" fill="black"/>
<path d="M94.251 23.75H90.751V27.25H94.251V23.75Z" fill="black"/>
<path d="M10.251 27.25H6.75098V30.75H10.251V27.25Z" fill="black"/>
<path d="M13.751 27.25L10.251 27.25V30.75H13.751V27.25Z" fill="black"/>
<path d="M17.251 27.25H13.751V30.75H17.251V27.25Z" fill="black"/>
<path d="M20.751 27.25H17.251V30.75H20.751V27.25Z" fill="black"/>
<path d="M24.251 27.25H20.751V30.75H24.251V27.25Z" fill="black"/>
<path d="M27.751 27.25L24.251 27.25V30.75H27.751L27.751 27.25Z" fill="black"/>
<path d="M31.251 27.25H27.751L27.751 30.75H31.251V27.25Z" fill="black"/>
<path d="M38.251 27.25L34.751 27.25V30.75H38.251V27.25Z" fill="black"/>
<path d="M45.251 27.25H41.751V30.75H45.251V27.25Z" fill="black"/>
<path d="M52.251 27.25H48.751V30.75H52.251V27.25Z" fill="black"/>
<path d="M59.251 27.25H55.751V30.75H59.251V27.25Z" fill="black"/>
<path d="M66.251 27.25H62.751V30.75H66.251V27.25Z" fill="black"/>
<path d="M73.251 27.25H69.751V30.75H73.251V27.25Z" fill="black"/>
<path d="M76.751 27.25L73.251 27.25V30.75H76.751V27.25Z" fill="black"/>
<path d="M80.251 27.25H76.751V30.75H80.251V27.25Z" fill="black"/>
<path d="M83.751 27.25H80.251V30.75H83.751V27.25Z" fill="black"/>
<path d="M87.251 27.25H83.751V30.75H87.251V27.25Z" fill="black"/>
<path d="M90.751 27.25L87.251 27.25V30.75H90.751V27.25Z" fill="black"/>
<path d="M94.251 27.25H90.751V30.75H94.251V27.25Z" fill="black"/>
<path d="M38.251 30.75H34.751V34.25H38.251V30.75Z" fill="black"/>
<path d="M41.751 30.75H38.251V34.25H41.751V30.75Z" fill="black"/>
<path d="M52.251 30.75H48.751V34.25H52.251V30.75Z" fill="black"/>
<path d="M10.251 34.25H6.75098V37.75H10.251V34.25Z" fill="black"/>
<path d="M20.751 34.25H17.251V37.75H20.751V34.25Z" fill="black"/>
<path d="M24.251 34.25H20.751V37.75H24.251V34.25Z" fill="black"/>
<path d="M27.751 34.25H24.251V37.75H27.751V34.25Z" fill="black"/>
<path d="M31.251 34.25H27.751V37.75H31.251V34.25Z" fill="black"/>
<path d="M34.751 34.25H31.251V37.75H34.751V34.25Z" fill="black"/>
<path d="M38.251 34.25H34.751V37.75H38.251V34.25Z" fill="black"/>
<path d="M45.251 34.25H41.751V37.75H45.251V34.25Z" fill="black"/>
<path d="M62.751 34.25H59.251V37.75H62.751V34.25Z" fill="black"/>
<path d="M66.251 34.25H62.751V37.75H66.251V34.25Z" fill="black"/>
<path d="M69.751 34.25H66.251V37.75H69.751V34.25Z" fill="black"/>
<path d="M73.251 34.25H69.751V37.75H73.251V34.25Z" fill="black"/>
<path d="M80.251 34.25H76.751V37.75H80.251V34.25Z" fill="black"/>
<path d="M94.251 34.25H90.751V37.75H94.251V34.25Z" fill="black"/>
<path d="M27.751 37.75H24.251V41.25H27.751V37.75Z" fill="black"/>
<path d="M38.251 37.75H34.751V41.25H38.251V37.75Z" fill="black"/>
<path d="M41.751 37.75H38.251V41.25H41.751V37.75Z" fill="black"/>
<path d="M45.251 37.75H41.751V41.25H45.251V37.75Z" fill="black"/>
<path d="M48.751 37.75H45.251V41.25H48.751V37.75Z" fill="black"/>
<path d="M52.251 37.75H48.751V41.25H52.251V37.75Z" fill="black"/>
<path d="M55.751 37.75H52.251V41.25H55.751V37.75Z" fill="black"/>
<path d="M59.251 37.75H55.751V41.25H59.251L59.251 37.75Z" fill="black"/>
<path d="M62.751 37.75H59.251L59.251 41.25H62.751V37.75Z" fill="black"/>
<path d="M73.251 37.75H69.751V41.25H73.251V37.75Z" fill="black"/>
<path d="M76.751 37.75H73.251V41.25H76.751V37.75Z" fill="black"/>
<path d="M80.251 37.75H76.751V41.25H80.251V37.75Z" fill="black"/>
<path d="M83.751 37.75H80.251V41.25H83.751V37.75Z" fill="black"/>
<path d="M87.251 37.75H83.751V41.25H87.251V37.75Z" fill="black"/>
<path d="M90.751 37.75H87.251V41.25H90.751V37.75Z" fill="black"/>
<path d="M94.251 37.75H90.751V41.25H94.251V37.75Z" fill="black"/>
<path d="M13.751 41.25H10.251V44.75H13.751V41.25Z" fill="black"/>
<path d="M17.251 41.25H13.751V44.75H17.251V41.25Z" fill="black"/>
<path d="M20.751 41.25H17.251V44.75H20.751V41.25Z" fill="black"/>
<path d="M27.751 41.25H24.251V44.75H27.751V41.25Z" fill="black"/>
<path d="M31.251 41.25H27.751V44.75H31.251V41.25Z" fill="black"/>
<path d="M34.751 41.25H31.251V44.75H34.751V41.25Z" fill="black"/>
<path d="M45.251 41.25H41.751V44.75H45.251V41.25Z" fill="black"/>
<path d="M59.251 41.25H55.751V44.75H59.251V41.25Z" fill="black"/>
<path d="M62.751 41.25H59.251V44.75H62.751V41.25Z" fill="black"/>
<path d="M66.251 41.25H62.751V44.75H66.251V41.25Z" fill="black"/>
<path d="M73.251 41.25H69.751V44.75H73.251V41.25Z" fill="black"/>
<path d="M76.751 41.25H73.251V44.75H76.751V41.25Z" fill="black"/>
<path d="M80.251 41.25H76.751V44.75H80.251V41.25Z" fill="black"/>
<path d="M83.751 41.25H80.251V44.75H83.751V41.25Z" fill="black"/>
<path d="M90.751 41.25H87.251V44.75H90.751V41.25Z" fill="black"/>
<path d="M10.251 44.75H6.75098V48.25H10.251V44.75Z" fill="black"/>
<path d="M13.751 44.75H10.251V48.25H13.751V44.75Z" fill="black"/>
<path d="M17.251 44.75H13.751V48.25H17.251V44.75Z" fill="black"/>
<path d="M20.751 44.75H17.251V48.25H20.751V44.75Z" fill="black"/>
<path d="M27.751 44.75H24.251V48.25H27.751V44.75Z" fill="black"/>
<path d="M34.751 44.75H31.251V48.25H34.751V44.75Z" fill="black"/>
<path d="M41.751 44.75H38.251V48.25H41.751V44.75Z" fill="black"/>
<path d="M48.751 44.75H45.251V48.25H48.751V44.75Z" fill="black"/>
<path d="M52.251 44.75H48.751V48.25H52.251V44.75Z" fill="black"/>
<path d="M59.251 44.75H55.751V48.25H59.251V44.75Z" fill="black"/>
<path d="M62.751 44.75H59.251V48.25H62.751V44.75Z" fill="black"/>
<path d="M80.251 44.75H76.751V48.25H80.251V44.75Z" fill="black"/>
<path d="M87.251 44.75H83.751V48.25H87.251V44.75Z" fill="black"/>
<path d="M90.751 44.75H87.251V48.25H90.751V44.75Z" fill="black"/>
<path d="M20.751 48.25H17.251V51.75H20.751V48.25Z" fill="black"/>
<path d="M31.251 48.25H27.751L27.751 51.75H31.251V48.25Z" fill="black"/>
<path d="M34.751 48.25H31.251V51.75H34.751V48.25Z" fill="black"/>
<path d="M38.251 48.25H34.751V51.75H38.251V48.25Z" fill="black"/>
<path d="M48.751 48.25H45.251V51.75H48.751V48.25Z" fill="black"/>
<path d="M55.751 48.25H52.251V51.75H55.751V48.25Z" fill="black"/>
<path d="M59.251 48.25H55.751V51.75H59.251V48.25Z" fill="black"/>
<path d="M66.251 48.25H62.751V51.75H66.251V48.25Z" fill="black"/>
<path d="M76.751 48.25H73.251V51.75H76.751V48.25Z" fill="black"/>
<path d="M83.751 48.25H80.251V51.75H83.751V48.25Z" fill="black"/>
<path d="M87.251 48.25H83.751V51.75H87.251V48.25Z" fill="black"/>
<path d="M94.251 48.25H90.751V51.75H94.251V48.25Z" fill="black"/>
<path d="M10.251 51.75H6.75098V55.25H10.251V51.75Z" fill="black"/>
<path d="M13.751 51.75H10.251V55.25H13.751V51.75Z" fill="black"/>
<path d="M34.751 51.75H31.251V55.25H34.751V51.75Z" fill="black"/>
<path d="M38.251 51.75H34.751V55.25H38.251V51.75Z" fill="black"/>
<path d="M41.751 51.75H38.251V55.25H41.751V51.75Z" fill="black"/>
<path d="M52.251 51.75H48.751V55.25H52.251V51.75Z" fill="black"/>
<path d="M59.251 51.75H55.751V55.25H59.251V51.75Z" fill="black"/>
<path d="M62.751 51.75H59.251V55.25H62.751V51.75Z" fill="black"/>
<path d="M66.251 51.75H62.751V55.25H66.251V51.75Z" fill="black"/>
<path d="M69.751 51.75H66.251V55.25H69.751V51.75Z" fill="black"/>
<path d="M80.251 51.75H76.751V55.25H80.251V51.75Z" fill="black"/>
<path d="M87.251 51.75H83.751V55.25H87.251V51.75Z" fill="black"/>
<path d="M90.751 51.75H87.251V55.25H90.751V51.75Z" fill="black"/>
<path d="M94.251 51.75H90.751V55.25H94.251V51.75Z" fill="black"/>
<path d="M10.251 55.25H6.75098V58.75H10.251V55.25Z" fill="black"/>
<path d="M13.751 55.25H10.251V58.75H13.751V55.25Z" fill="black"/>
<path d="M17.251 55.25H13.751V58.75H17.251V55.25Z" fill="black"/>
<path d="M31.251 55.25H27.751V58.75H31.251V55.25Z" fill="black"/>
<path d="M41.751 55.25H38.251V58.75H41.751V55.25Z" fill="black"/>
<path d="M48.751 55.25H45.251V58.75H48.751V55.25Z" fill="black"/>
<path d="M52.251 55.25H48.751V58.75H52.251V55.25Z" fill="black"/>
<path d="M59.251 55.25H55.751V58.75H59.251V55.25Z" fill="black"/>
<path d="M69.751 55.25H66.251V58.75H69.751V55.25Z" fill="black"/>
<path d="M76.751 55.25H73.251V58.75H76.751V55.25Z" fill="black"/>
<path d="M80.251 55.25H76.751V58.75H80.251V55.25Z" fill="black"/>
<path d="M87.251 55.25H83.751V58.75H87.251V55.25Z" fill="black"/>
<path d="M13.751 58.75H10.251V62.25H13.751V58.75Z" fill="black"/>
<path d="M34.751 58.75L31.251 58.75V62.25H34.751V58.75Z" fill="black"/>
<path d="M52.251 58.75H48.751V62.25H52.251V58.75Z" fill="black"/>
<path d="M59.251 58.75H55.751V62.25H59.251V58.75Z" fill="black"/>
<path d="M62.751 58.75L59.251 58.75V62.25H62.751V58.75Z" fill="black"/>
<path d="M69.751 58.75H66.251V62.25H69.751V58.75Z" fill="black"/>
<path d="M87.251 58.75H83.751V62.25H87.251V58.75Z" fill="black"/>
<path d="M94.251 58.75H90.751V62.25H94.251V58.75Z" fill="black"/>
<path d="M10.251 62.25H6.75098V65.75H10.251V62.25Z" fill="black"/>
<path d="M27.751 62.25H24.251V65.75H27.751V62.25Z" fill="black"/>
<path d="M31.251 62.25H27.751V65.75H31.251V62.25Z" fill="black"/>
<path d="M34.751 62.25H31.251V65.75H34.751V62.25Z" fill="black"/>
<path d="M41.751 62.25H38.251V65.75H41.751V62.25Z" fill="black"/>
<path d="M45.251 62.25H41.751V65.75H45.251V62.25Z" fill="black"/>
<path d="M59.251 62.25H55.751V65.75H59.251V62.25Z" fill="black"/>
<path d="M62.751 62.25H59.251V65.75H62.751V62.25Z" fill="black"/>
<path d="M66.251 62.25H62.751V65.75H66.251V62.25Z" fill="black"/>
<path d="M69.751 62.25H66.251V65.75H69.751V62.25Z" fill="black"/>
<path d="M73.251 62.25H69.751V65.75H73.251V62.25Z" fill="black"/>
<path d="M76.751 62.25H73.251V65.75H76.751V62.25Z" fill="black"/>
<path d="M80.251 62.25H76.751V65.75H80.251V62.25Z" fill="black"/>
<path d="M87.251 62.25H83.751V65.75H87.251V62.25Z" fill="black"/>
<path d="M38.251 65.75H34.751V69.25H38.251V65.75Z" fill="black"/>
<path d="M41.751 65.75H38.251V69.25H41.751V65.75Z" fill="black"/>
<path d="M48.751 65.75H45.251V69.25H48.751V65.75Z" fill="black"/>
<path d="M59.251 65.75H55.751V69.25H59.251V65.75Z" fill="black"/>
<path d="M62.751 65.75H59.251V69.25H62.751V65.75Z" fill="black"/>
<path d="M66.251 65.75H62.751V69.25H66.251V65.75Z" fill="black"/>
<path d="M80.251 65.75H76.751V69.25H80.251V65.75Z" fill="black"/>
<path d="M83.751 65.75H80.251V69.25H83.751V65.75Z" fill="black"/>
<path d="M87.251 65.75H83.751V69.25H87.251V65.75Z" fill="black"/>
<path d="M90.751 65.75H87.251V69.25H90.751V65.75Z" fill="black"/>
<path d="M94.251 65.75H90.751V69.25H94.251V65.75Z" fill="black"/>
<path d="M10.251 69.25H6.75098V72.75H10.251V69.25Z" fill="black"/>
<path d="M13.751 69.25H10.251V72.75H13.751V69.25Z" fill="black"/>
<path d="M17.251 69.25H13.751V72.75H17.251V69.25Z" fill="black"/>
<path d="M20.751 69.25H17.251V72.75H20.751V69.25Z" fill="black"/>
<path d="M24.251 69.25H20.751V72.75H24.251V69.25Z" fill="black"/>
<path d="M27.751 69.25H24.251V72.75H27.751V69.25Z" fill="black"/>
<path d="M31.251 69.25H27.751V72.75H31.251V69.25Z" fill="black"/>
<path d="M38.251 69.25H34.751V72.75H38.251V69.25Z" fill="black"/>
<path d="M52.251 69.25H48.751V72.75H52.251V69.25Z" fill="black"/>
<path d="M66.251 69.25H62.751V72.75H66.251V69.25Z" fill="black"/>
<path d="M73.251 69.25H69.751V72.75H73.251V69.25Z" fill="black"/>
<path d="M80.251 69.25H76.751V72.75H80.251V69.25Z" fill="black"/>
<path d="M83.751 69.25H80.251V72.75H83.751V69.25Z" fill="black"/>
<path d="M94.251 69.25H90.751V72.75H94.251V69.25Z" fill="black"/>
<path d="M10.251 72.75H6.75098V76.25H10.251V72.75Z" fill="black"/>
<path d="M31.251 72.75H27.751L27.751 76.25H31.251V72.75Z" fill="black"/>
<path d="M38.251 72.75H34.751V76.25H38.251V72.75Z" fill="black"/>
<path d="M45.251 72.75H41.751V76.25H45.251V72.75Z" fill="black"/>
<path d="M48.751 72.75H45.251V76.25H48.751V72.75Z" fill="black"/>
<path d="M59.251 72.75H55.751V76.25H59.251V72.75Z" fill="black"/>
<path d="M62.751 72.75H59.251V76.25H62.751V72.75Z" fill="black"/>
<path d="M66.251 72.75H62.751V76.25H66.251V72.75Z" fill="black"/>
<path d="M80.251 72.75H76.751V76.25H80.251V72.75Z" fill="black"/>
<path d="M83.751 72.75H80.251V76.25H83.751V72.75Z" fill="black"/>
<path d="M87.251 72.75H83.751V76.25H87.251V72.75Z" fill="black"/>
<path d="M94.251 72.75H90.751V76.25H94.251V72.75Z" fill="black"/>
<path d="M10.251 76.25H6.75098V79.75H10.251V76.25Z" fill="black"/>
<path d="M17.251 76.25H13.751V79.75H17.251V76.25Z" fill="black"/>
<path d="M20.751 76.25H17.251V79.75H20.751V76.25Z" fill="black"/>
<path d="M24.251 76.25H20.751V79.75H24.251V76.25Z" fill="black"/>
<path d="M31.251 76.25H27.751V79.75H31.251V76.25Z" fill="black"/>
<path d="M38.251 76.25H34.751V79.75H38.251V76.25Z" fill="black"/>
<path d="M41.751 76.25H38.251V79.75H41.751V76.25Z" fill="black"/>
<path d="M55.751 76.25H52.251V79.75H55.751V76.25Z" fill="black"/>
<path d="M59.251 76.25H55.751V79.75H59.251V76.25Z" fill="black"/>
<path d="M62.751 76.25H59.251V79.75H62.751V76.25Z" fill="black"/>
<path d="M66.251 76.25H62.751V79.75H66.251V76.25Z" fill="black"/>
<path d="M69.751 76.25H66.251V79.75H69.751V76.25Z" fill="black"/>
<path d="M73.251 76.25H69.751V79.75H73.251V76.25Z" fill="black"/>
<path d="M76.751 76.25H73.251V79.75H76.751V76.25Z" fill="black"/>
<path d="M80.251 76.25H76.751V79.75H80.251V76.25Z" fill="black"/>
<path d="M83.751 76.25H80.251V79.75H83.751V76.25Z" fill="black"/>
<path d="M94.251 76.25H90.751V79.75H94.251V76.25Z" fill="black"/>
<path d="M10.251 79.75H6.75098V83.25H10.251V79.75Z" fill="black"/>
<path d="M17.251 79.75H13.751V83.25H17.251V79.75Z" fill="black"/>
<path d="M20.751 79.75H17.251V83.25H20.751V79.75Z" fill="black"/>
<path d="M24.251 79.75H20.751V83.25H24.251V79.75Z" fill="black"/>
<path d="M31.251 79.75H27.751V83.25H31.251V79.75Z" fill="black"/>
<path d="M38.251 79.75H34.751V83.25H38.251V79.75Z" fill="black"/>
<path d="M83.751 79.75H80.251V83.25H83.751V79.75Z" fill="black"/>
<path d="M87.251 79.75H83.751V83.25H87.251V79.75Z" fill="black"/>
<path d="M90.751 79.75H87.251V83.25H90.751V79.75Z" fill="black"/>
<path d="M10.251 83.25H6.75098V86.75H10.251V83.25Z" fill="black"/>
<path d="M17.251 83.25H13.751V86.75H17.251V83.25Z" fill="black"/>
<path d="M20.751 83.25H17.251V86.75H20.751V83.25Z" fill="black"/>
<path d="M24.251 83.25H20.751V86.75H24.251V83.25Z" fill="black"/>
<path d="M31.251 83.25H27.751V86.75H31.251V83.25Z" fill="black"/>
<path d="M48.751 83.25H45.251V86.75H48.751V83.25Z" fill="black"/>
<path d="M52.251 83.25H48.751V86.75H52.251V83.25Z" fill="black"/>
<path d="M55.751 83.25H52.251V86.75H55.751V83.25Z" fill="black"/>
<path d="M59.251 83.25H55.751V86.75H59.251V83.25Z" fill="black"/>
<path d="M62.751 83.25H59.251V86.75H62.751V83.25Z" fill="black"/>
<path d="M66.251 83.25H62.751V86.75H66.251V83.25Z" fill="black"/>
<path d="M73.251 83.25H69.751V86.75H73.251V83.25Z" fill="black"/>
<path d="M76.751 83.25H73.251V86.75H76.751V83.25Z" fill="black"/>
<path d="M80.251 83.25H76.751V86.75H80.251V83.25Z" fill="black"/>
<path d="M83.751 83.25H80.251V86.75H83.751V83.25Z" fill="black"/>
<path d="M87.251 83.25H83.751V86.75H87.251V83.25Z" fill="black"/>
<path d="M90.751 83.25H87.251V86.75H90.751V83.25Z" fill="black"/>
<path d="M94.251 83.25H90.751V86.75H94.251V83.25Z" fill="black"/>
<path d="M10.251 86.75H6.75098V90.25H10.251V86.75Z" fill="black"/>
<path d="M31.251 86.75H27.751V90.25H31.251V86.75Z" fill="black"/>
<path d="M52.251 86.75H48.751V90.25H52.251V86.75Z" fill="black"/>
<path d="M69.751 86.75H66.251V90.25H69.751V86.75Z" fill="black"/>
<path d="M76.751 86.75H73.251V90.25H76.751V86.75Z" fill="black"/>
<path d="M80.251 86.75H76.751V90.25H80.251V86.75Z" fill="black"/>
<path d="M87.251 86.75H83.751V90.25H87.251V86.75Z" fill="black"/>
<path d="M90.751 86.75H87.251V90.25H90.751V86.75Z" fill="black"/>
<path d="M94.251 86.75H90.751V90.25H94.251V86.75Z" fill="black"/>
<path d="M10.251 90.25H6.75098V93.75H10.251V90.25Z" fill="black"/>
<path d="M13.751 90.25H10.251V93.75H13.751V90.25Z" fill="black"/>
<path d="M17.251 90.25H13.751V93.75H17.251V90.25Z" fill="black"/>
<path d="M20.751 90.25H17.251V93.75H20.751V90.25Z" fill="black"/>
<path d="M24.251 90.25H20.751V93.75H24.251V90.25Z" fill="black"/>
<path d="M27.751 90.25H24.251V93.75H27.751L27.751 90.25Z" fill="black"/>
<path d="M31.251 90.25H27.751L27.751 93.75H31.251V90.25Z" fill="black"/>
<path d="M38.251 90.25H34.751V93.75H38.251V90.25Z" fill="black"/>
<path d="M48.751 90.25H45.251V93.75H48.751V90.25Z" fill="black"/>
<path d="M62.751 90.25H59.251V93.75H62.751V90.25Z" fill="black"/>
<path d="M66.251 90.25H62.751V93.75H66.251V90.25Z" fill="black"/>
<path d="M69.751 90.25H66.251V93.75H69.751V90.25Z" fill="black"/>
<path d="M76.751 90.25H73.251V93.75H76.751V90.25Z" fill="black"/>
<path d="M83.751 90.25H80.251V93.75H83.751V90.25Z" fill="black"/>
<path d="M94.251 90.25H90.751V93.75H94.251V90.25Z" fill="black"/>
</g>
</g>
<defs>
<clipPath id="clip0_1_4952">
<rect width="100" height="100" fill="white" transform="translate(0.500977)"/>
</clipPath>
</defs>
</svg>
