<svg width="32" height="32" viewBox="0 0 32 32" fill="none" xmlns="http://www.w3.org/2000/svg">
<g id="solar:alt-arrow-down-outline">
<path id="Vector" fill-rule="evenodd" clip-rule="evenodd" d="M11.3492 26.0934C11.2495 26.0079 11.1675 25.9036 11.1081 25.7864C11.0487 25.6692 11.0129 25.5414 11.0029 25.4104C10.9929 25.2794 11.0088 25.1477 11.0497 25.0229C11.0906 24.898 11.1557 24.7824 11.2412 24.6827L18.6826 16.0001L11.2412 7.31739C11.0788 7.11495 11.0013 6.85726 11.0254 6.59879C11.0494 6.34032 11.173 6.10133 11.3701 5.93234C11.5671 5.76335 11.8222 5.6776 12.0813 5.69322C12.3404 5.70884 12.5833 5.82461 12.7586 6.01605L20.7586 15.3494C20.9139 15.5306 20.9992 15.7614 20.9992 16.0001C20.9992 16.2387 20.9139 16.4695 20.7586 16.6507L12.7586 25.9841C12.5859 26.1851 12.3405 26.3095 12.0763 26.3297C11.812 26.35 11.5505 26.2645 11.3492 26.0921V26.0934Z" fill="black"/>
</g>
</svg>
