<svg width="16" height="16" viewBox="0 0 16 16" fill="none" xmlns="http://www.w3.org/2000/svg">
<g clip-path="url(#clip0_10_2405)">
<path d="M14.6668 14.6666L13.3335 13.3333M7.66683 14C8.49853 14 9.3221 13.8362 10.0905 13.5179C10.8589 13.1996 11.5571 12.7331 12.1452 12.145C12.7333 11.5569 13.1998 10.8587 13.5181 10.0903C13.8363 9.32191 14.0002 8.49835 14.0002 7.66665C14.0002 6.83494 13.8363 6.01138 13.5181 5.24298C13.1998 4.47459 12.7333 3.77641 12.1452 3.1883C11.5571 2.6002 10.8589 2.13369 10.0905 1.81541C9.3221 1.49713 8.49853 1.33331 7.66683 1.33331C5.98713 1.33331 4.37622 2.00057 3.18849 3.1883C2.00076 4.37603 1.3335 5.98694 1.3335 7.66665C1.3335 9.34635 2.00076 10.9573 3.18849 12.145C4.37622 13.3327 5.98713 14 7.66683 14Z" stroke="currentColor" stroke-linecap="round" stroke-linejoin="round"/>
</g>
<defs>
<clipPath id="clip0_10_2405">
<rect width="16" height="16" fill="currentColor"/>
</clipPath>
</defs>
</svg>
