<svg width="16" height="16" viewBox="0 0 16 16" fill="none" xmlns="http://www.w3.org/2000/svg">
<path fill-rule="evenodd" clip-rule="evenodd" d="M9.40006 1.59397C9.88884 1.11497 10.5469 0.848231 11.2312 0.851718C11.9156 0.855205 12.5709 1.12864 13.0548 1.61259C13.5386 2.09655 13.812 2.75191 13.8153 3.43625C13.8187 4.1206 13.5518 4.77862 13.0727 5.2673L8.01006 10.33C7.72473 10.6153 7.55006 10.79 7.35673 10.9413C7.1278 11.1197 6.88011 11.2726 6.61806 11.3973C6.3954 11.5033 6.1614 11.5813 5.77873 11.7086L3.9974 12.3026L3.5694 12.4453C3.38163 12.508 3.1801 12.5172 2.98742 12.4718C2.79473 12.4264 2.61852 12.3282 2.47853 12.1882C2.33855 12.0482 2.24034 11.872 2.19492 11.6793C2.1495 11.4866 2.15867 11.2851 2.2214 11.0973L2.95806 8.88797C3.0854 8.5053 3.1634 8.2713 3.2694 8.04864C3.39436 7.78678 3.54748 7.53932 3.72606 7.31064C3.8774 7.11664 4.0514 6.94197 4.33673 6.6573L9.40006 1.59397ZM3.9734 11.256L3.41073 10.6926L3.89606 9.23597C4.0374 8.81197 4.09606 8.6393 4.17206 8.4793C4.2654 8.28264 4.38073 8.0973 4.51406 7.92597C4.6234 7.78597 4.7514 7.65664 5.0674 7.33997L8.99473 3.4133C9.1988 3.92313 9.50483 4.38592 9.89406 4.7733C10.2815 5.1623 10.7443 5.4681 11.2541 5.67197L7.32673 9.59864C7.01006 9.9153 6.8814 10.0433 6.7414 10.152C6.56977 10.2857 6.38425 10.4006 6.18806 10.4946C6.02806 10.5706 5.85473 10.6293 5.43073 10.7706L3.97406 11.2566L3.9734 11.256ZM12.0507 4.87464C11.948 4.85194 11.8467 4.82322 11.7474 4.78864C11.3154 4.63761 10.9233 4.39052 10.6007 4.06597C10.2763 3.74326 10.0292 3.35122 9.87806 2.9193C9.84326 2.81998 9.81432 2.71869 9.7914 2.61597L10.1067 2.3013C10.4079 2.00985 10.8116 1.84844 11.2306 1.85188C11.6497 1.85532 12.0507 2.02332 12.347 2.31967C12.6434 2.61602 12.8114 3.01697 12.8148 3.43606C12.8183 3.85515 12.6568 4.2588 12.3654 4.55997L12.0507 4.87464ZM2.16673 14.6666C2.16673 14.534 2.21941 14.4069 2.31318 14.3131C2.40695 14.2193 2.53412 14.1666 2.66673 14.1666H13.3334V15.1666H2.66673C2.53412 15.1666 2.40695 15.114 2.31318 15.0202C2.21941 14.9264 2.16673 14.7992 2.16673 14.6666Z" fill="#222222"/>
</svg>
