<svg width="16" height="16" viewBox="0 0 16 16" fill="none" xmlns="http://www.w3.org/2000/svg">
<g id="solar:clock-circle-outline" clip-path="url(#clip0_13_3558)">
<path id="Vector" fill-rule="evenodd" clip-rule="evenodd" d="M7.99992 1.83337C6.36442 1.83337 4.7959 2.48307 3.63943 3.63955C2.48295 4.79602 1.83325 6.36454 1.83325 8.00004C1.83325 9.63554 2.48295 11.2041 3.63943 12.3605C4.7959 13.517 6.36442 14.1667 7.99992 14.1667C9.63542 14.1667 11.2039 13.517 12.3604 12.3605C13.5169 11.2041 14.1666 9.63554 14.1666 8.00004C14.1666 6.36454 13.5169 4.79602 12.3604 3.63955C11.2039 2.48307 9.63542 1.83337 7.99992 1.83337ZM0.833252 8.00004C0.833252 4.04204 4.04192 0.833374 7.99992 0.833374C11.9579 0.833374 15.1666 4.04204 15.1666 8.00004C15.1666 11.958 11.9579 15.1667 7.99992 15.1667C4.04192 15.1667 0.833252 11.958 0.833252 8.00004ZM7.99992 4.83337C8.13253 4.83337 8.2597 4.88605 8.35347 4.97982C8.44724 5.07359 8.49992 5.20077 8.49992 5.33337V7.79337L10.0199 9.31337C10.069 9.35915 10.1084 9.41435 10.1358 9.47568C10.1631 9.53701 10.1778 9.60322 10.179 9.67036C10.1802 9.73749 10.1678 9.80418 10.1427 9.86644C10.1175 9.9287 10.0801 9.98525 10.0326 10.0327C9.98513 10.0802 9.92858 10.1176 9.86632 10.1428C9.80406 10.1679 9.73737 10.1803 9.67024 10.1791C9.6031 10.1779 9.53689 10.1632 9.47556 10.1359C9.41423 10.1086 9.35903 10.0692 9.31325 10.02L7.64659 8.35337C7.55279 8.2597 7.50004 8.1326 7.49992 8.00004V5.33337C7.49992 5.20077 7.5526 5.07359 7.64637 4.97982C7.74013 4.88605 7.86731 4.83337 7.99992 4.83337Z" fill="#717171"/>
</g>
<defs>
<clipPath id="clip0_13_3558">
<rect width="16" height="16" fill="white"/>
</clipPath>
</defs>
</svg>
