<svg width="16" height="16" viewBox="0 0 16 16" fill="none" xmlns="http://www.w3.org/2000/svg">
<path fill-rule="evenodd" clip-rule="evenodd" d="M8 0.833328C7.16014 0.833328 6.35469 1.16696 5.76083 1.76082C5.16696 2.35469 4.83333 3.16014 4.83333 3.99999C4.83333 4.83985 5.16696 5.6453 5.76083 6.23917C6.35469 6.83303 7.16014 7.16666 8 7.16666C8.83985 7.16666 9.6453 6.83303 10.2392 6.23917C10.833 5.6453 11.1667 4.83985 11.1667 3.99999C11.1667 3.16014 10.833 2.35469 10.2392 1.76082C9.6453 1.16696 8.83985 0.833328 8 0.833328ZM5.83333 3.99999C5.83333 3.42536 6.0616 2.87426 6.46793 2.46793C6.87426 2.0616 7.42536 1.83333 8 1.83333C8.57463 1.83333 9.12573 2.0616 9.53206 2.46793C9.93839 2.87426 10.1667 3.42536 10.1667 3.99999C10.1667 4.57463 9.93839 5.12573 9.53206 5.53206C9.12573 5.93839 8.57463 6.16666 8 6.16666C7.42536 6.16666 6.87426 5.93839 6.46793 5.53206C6.0616 5.12573 5.83333 4.57463 5.83333 3.99999ZM8 8.16666C6.458 8.16666 5.03666 8.51733 3.984 9.10933C2.94666 9.69333 2.16666 10.5773 2.16666 11.6667V11.7347C2.166 12.5093 2.16533 13.4813 3.018 14.176C3.43733 14.5173 4.02466 14.7607 4.818 14.9207C5.61266 15.082 6.64933 15.1667 8 15.1667C9.35066 15.1667 10.3867 15.082 11.1827 14.9207C11.976 14.7607 12.5627 14.5173 12.9827 14.176C13.8353 13.4813 13.834 12.5093 13.8333 11.7347V11.6667C13.8333 10.5773 13.0533 9.69333 12.0167 9.10933C10.9633 8.51733 9.54266 8.16666 8 8.16666ZM3.16666 11.6667C3.16666 11.0993 3.58133 10.4833 4.474 9.98133C5.35133 9.488 6.59666 9.16666 8.00066 9.16666C9.40333 9.16666 10.6487 9.488 11.526 9.98133C12.4193 10.4833 12.8333 11.0993 12.8333 11.6667C12.8333 12.5387 12.8067 13.0293 12.3507 13.4C12.104 13.6013 11.6907 13.798 10.984 13.9407C10.2793 14.0833 9.316 14.1667 8 14.1667C6.684 14.1667 5.72 14.0833 5.016 13.9407C4.30933 13.798 3.896 13.6013 3.64933 13.4007C3.19333 13.0293 3.16666 12.5387 3.16666 11.6667Z" fill="#898989"/>
</svg>
