<svg width="16" height="16" viewBox="0 0 16 16" fill="none" xmlns="http://www.w3.org/2000/svg">
<path fill-rule="evenodd" clip-rule="evenodd" d="M11 1.5C10.6831 1.49989 10.3699 1.56935 10.0827 1.70346C9.79543 1.83757 9.54113 2.03308 9.3377 2.27618C9.13426 2.51929 8.98664 2.80408 8.90527 3.11045C8.82389 3.41682 8.81073 3.73732 8.86672 4.04933L5.71338 6.25733C5.69761 6.26824 5.68248 6.28004 5.66805 6.29267C5.34814 6.04259 4.96439 5.88744 4.56057 5.84491C4.15675 5.80239 3.7491 5.8742 3.38411 6.05215C3.01913 6.23011 2.7115 6.50705 2.4963 6.85139C2.2811 7.19573 2.16699 7.59361 2.16699 7.99967C2.16699 8.40572 2.2811 8.80361 2.4963 9.14795C2.7115 9.49229 3.01913 9.76923 3.38411 9.94718C3.7491 10.1251 4.15675 10.1969 4.56057 10.1544C4.96439 10.1119 5.34814 9.95675 5.66805 9.70667C5.68246 9.71953 5.69759 9.73155 5.71338 9.74267L8.86672 11.9507C8.7731 12.4725 8.87407 13.0106 9.1505 13.4629C9.42693 13.9153 9.85964 14.2507 10.3667 14.4055C10.8738 14.5603 11.42 14.5238 11.902 14.3029C12.3839 14.0821 12.7682 13.6922 12.982 13.207C13.1958 12.7219 13.2243 12.1752 13.0621 11.6704C12.9 11.1657 12.5583 10.7379 12.102 10.4681C11.6456 10.1983 11.1061 10.1052 10.5857 10.2064C10.0653 10.3076 9.60004 10.5961 9.27805 11.0173L6.29205 8.92733C6.42538 8.646 6.50005 8.332 6.50005 8C6.50005 7.668 6.42538 7.35333 6.29205 7.07267L9.27872 4.982C9.50244 5.27485 9.79716 5.50579 10.135 5.65299C10.4729 5.80019 10.8427 5.85878 11.2095 5.82323C11.5763 5.78767 11.928 5.65914 12.2312 5.4498C12.5345 5.24045 12.7794 4.95721 12.9427 4.62684C13.1061 4.29648 13.1824 3.92992 13.1646 3.56183C13.1467 3.19374 13.0353 2.83627 12.8408 2.52325C12.6463 2.21022 12.3752 1.95197 12.0531 1.77292C11.731 1.59387 11.3686 1.49993 11 1.5ZM9.83338 3.66667C9.83338 3.35725 9.9563 3.0605 10.1751 2.84171C10.3939 2.62292 10.6906 2.5 11 2.5C11.3095 2.5 11.6062 2.62292 11.825 2.84171C12.0438 3.0605 12.1667 3.35725 12.1667 3.66667C12.1667 3.97609 12.0438 4.27283 11.825 4.49162C11.6062 4.71042 11.3095 4.83333 11 4.83333C10.6906 4.83333 10.3939 4.71042 10.1751 4.49162C9.9563 4.27283 9.83338 3.97609 9.83338 3.66667ZM4.33338 6.83333C4.02396 6.83333 3.72722 6.95625 3.50842 7.17504C3.28963 7.39383 3.16672 7.69058 3.16672 8C3.16672 8.30942 3.28963 8.60617 3.50842 8.82496C3.72722 9.04375 4.02396 9.16667 4.33338 9.16667C4.6428 9.16667 4.93955 9.04375 5.15834 8.82496C5.37713 8.60617 5.50005 8.30942 5.50005 8C5.50005 7.69058 5.37713 7.39383 5.15834 7.17504C4.93955 6.95625 4.6428 6.83333 4.33338 6.83333ZM11 11.1667C10.6906 11.1667 10.3939 11.2896 10.1751 11.5084C9.9563 11.7272 9.83338 12.0239 9.83338 12.3333C9.83338 12.6428 9.9563 12.9395 10.1751 13.1583C10.3939 13.3771 10.6906 13.5 11 13.5C11.3095 13.5 11.6062 13.3771 11.825 13.1583C12.0438 12.9395 12.1667 12.6428 12.1667 12.3333C12.1667 12.0239 12.0438 11.7272 11.825 11.5084C11.6062 11.2896 11.3095 11.1667 11 11.1667Z" fill="#222222"/>
</svg>
