<svg width="34" height="34" viewBox="0 0 34 34" fill="none" xmlns="http://www.w3.org/2000/svg">
<g id="solar:plain-bold" clip-path="url(#clip0_1_4385)">
<path id="Vector" d="M19.0973 24.2875L23.9523 21.8593C28.1935 19.7393 30.3141 18.6794 30.3134 17C30.3134 15.3213 28.1935 14.2607 23.9516 12.1401L19.0973 9.71257C15.6749 8.00137 13.963 7.14648 12.9716 7.40953C12.5081 7.53234 12.0854 7.77563 11.7464 8.11467C11.4073 8.45371 11.164 8.87644 11.0412 9.33993C10.7775 10.332 11.6331 12.0432 13.3435 15.4663C13.5557 15.8906 13.9905 16.1727 14.4643 16.1755L22.2149 16.2116C22.3217 16.2072 22.4282 16.2245 22.5281 16.2624C22.6279 16.3004 22.7191 16.3582 22.796 16.4324C22.8729 16.5066 22.9339 16.5956 22.9754 16.694C23.0169 16.7925 23.038 16.8983 23.0375 17.0052C23.0369 17.112 23.0146 17.2176 22.9721 17.3156C22.9295 17.4136 22.8675 17.502 22.7898 17.5753C22.7121 17.6487 22.6204 17.7055 22.5201 17.7424C22.4198 17.7793 22.3131 17.7954 22.2064 17.7899L14.5824 17.7545C14.3241 17.7573 14.0716 17.8317 13.853 17.9694C13.6345 18.1071 13.4583 18.3027 13.3443 18.5344C11.6331 21.9568 10.7775 23.6694 11.0398 24.6615C11.1628 25.1251 11.4063 25.5479 11.7454 25.887C12.0846 26.2261 12.5073 26.4696 12.9709 26.5926C13.963 26.855 15.6735 25.9987 19.0973 24.2875Z" fill="#6E0699"/>
</g>
<defs>
<clipPath id="clip0_1_4385">
<rect width="24" height="24" fill="white" transform="translate(17 0.0294189) rotate(45)"/>
</clipPath>
</defs>
</svg>
