<svg width="24" height="24" viewBox="0 0 24 24" fill="none" xmlns="http://www.w3.org/2000/svg">
<g id="solar:fire-outline">
<path id="Vector" fill-rule="evenodd" clip-rule="evenodd" d="M12.48 2.76C13.232 2.309 14.208 2.287 15.042 2.89C17.702 4.814 20.75 8.245 20.75 13.111C20.75 16.917 19.115 19.365 17.032 20.835C15.753 21.738 14.323 22.261 13.033 22.525C12.6145 22.6692 12.1756 22.7452 11.733 22.75C11.6239 22.7499 11.5148 22.7456 11.406 22.737C11.2485 22.7455 11.0908 22.7498 10.933 22.75C9.473 22.75 7.313 22.266 5.504 20.806C3.663 19.32 2.25 16.877 2.25 13.111C2.25 10.034 3.875 7.965 5.405 6.798C5.68558 6.57597 6.02557 6.44192 6.38218 6.41274C6.73879 6.38355 7.09606 6.46054 7.409 6.634C7.993 6.953 8.402 7.568 8.476 8.29L8.562 9.127C8.595 9.449 8.76 9.717 8.932 9.847C8.98613 9.89221 9.05205 9.92101 9.122 9.93C9.158 9.933 9.216 9.928 9.301 9.873C9.954 9.448 10.45 8.685 10.783 7.787C11.113 6.897 11.25 5.967 11.25 5.333V5.01C11.25 4.037 11.744 3.203 12.48 2.76ZM12.631 21.077C12.2334 21.155 11.8313 21.2074 11.427 21.234C10.943 21.184 10.334 21.02 9.824 20.67C9.239 20.27 8.75 19.606 8.75 18.444C8.75 17.042 9.618 15.977 10.54 15.295C10.5428 15.3075 10.5442 15.3202 10.544 15.333V15.344C10.544 15.572 10.544 15.917 10.587 16.275C10.63 16.632 10.721 17.07 10.947 17.455C11.105 17.724 11.347 17.951 11.676 18.048C11.999 18.143 12.306 18.083 12.546 17.97C13.003 17.755 13.329 17.305 13.466 16.83C13.878 17.166 14.25 17.69 14.25 18.445C14.25 19.648 13.803 20.315 13.312 20.699C13.098 20.867 12.862 20.99 12.632 21.077H12.631ZM15.518 20.022C15.7409 19.8948 15.9578 19.7573 16.168 19.61C17.863 18.413 19.25 16.416 19.25 13.111C19.25 8.924 16.628 5.888 14.163 4.105C13.838 3.871 13.513 3.89 13.253 4.046C12.977 4.212 12.75 4.553 12.75 5.01V5.333C12.75 6.142 12.583 7.249 12.19 8.309C11.799 9.361 11.15 10.46 10.118 11.131C9.384 11.608 8.592 11.471 8.027 11.043C7.493 10.64 7.141 9.979 7.07 9.28L6.984 8.442C6.958 8.19 6.822 8.022 6.69 7.951C6.578 7.89 6.456 7.883 6.315 7.991C5.048 8.958 3.75 10.625 3.75 13.111C3.75 16.456 4.982 18.457 6.446 19.638C6.843 19.959 7.263 20.223 7.687 20.438C7.414 19.888 7.25 19.228 7.25 18.445C7.25 16.341 8.57 14.872 9.698 14.052C9.92653 13.8808 10.2011 13.7821 10.4863 13.7685C10.7716 13.755 11.0543 13.8273 11.298 13.976C11.752 14.25 12.044 14.759 12.044 15.333C12.044 15.568 12.044 15.833 12.076 16.097C12.081 16.14 12.087 16.181 12.094 16.221C12.254 15.852 12.548 15.567 12.897 15.415C13.315 15.235 13.847 15.238 14.291 15.572C14.991 16.098 15.75 17.042 15.75 18.445C15.75 19.038 15.666 19.563 15.518 20.023V20.022Z" fill="#B20000"/>
</g>
</svg>
