<svg width="16" height="16" viewBox="0 0 16 16" fill="none" xmlns="http://www.w3.org/2000/svg">
<path d="M8.83995 1.25333C8.86138 1.12246 8.93385 1.00544 9.04147 0.927951C9.14908 0.85046 9.28304 0.818827 9.41395 0.839994C9.43128 0.843327 9.48528 0.853327 9.51395 0.859994C9.57061 0.87266 9.64995 0.891994 9.74861 0.92066C9.94661 0.97866 10.2233 1.07399 10.5553 1.22533C11.2193 1.52999 12.1026 2.06266 13.0199 2.97999C13.9373 3.89733 14.4699 4.78066 14.7746 5.44533C14.9266 5.77666 15.0213 6.05333 15.0793 6.25133C15.1086 6.35135 15.1337 6.45255 15.1546 6.55466L15.1579 6.57466C15.1801 6.70679 15.1494 6.84232 15.0724 6.95197C14.9954 7.06162 14.8784 7.13658 14.7466 7.16066C14.6161 7.18186 14.4825 7.15047 14.375 7.07338C14.2676 6.99629 14.195 6.87977 14.1733 6.74933C14.158 6.67596 14.1397 6.60323 14.1186 6.53133C14.0505 6.30237 13.9658 6.07867 13.8653 5.86199C13.6053 5.29533 13.1386 4.51199 12.3133 3.68733C11.4879 2.86199 10.7053 2.39399 10.1379 2.13399C9.92149 2.03347 9.69801 1.94881 9.46928 1.88066C9.39913 1.86087 9.32844 1.84309 9.25728 1.82733C9.12646 1.80552 9.00943 1.73322 8.93138 1.626C8.85333 1.51877 8.82049 1.38519 8.83995 1.25399V1.25333Z" fill="#222222"/>
<path fill-rule="evenodd" clip-rule="evenodd" d="M8.99056 3.55333C9.027 3.42586 9.11258 3.31809 9.22847 3.25371C9.34436 3.18932 9.48108 3.1736 9.60856 3.21H9.61056L9.61256 3.21133L9.61789 3.21266L9.63122 3.21666C9.64122 3.22 9.65389 3.224 9.66856 3.23C9.70846 3.24383 9.74782 3.25917 9.78656 3.276C9.88389 3.31733 10.0166 3.382 10.1799 3.478C10.5066 3.67133 10.9512 3.992 11.4746 4.51533C11.9979 5.03866 12.3186 5.484 12.5119 5.81066C12.6086 5.97333 12.6726 6.106 12.7146 6.204C12.7363 6.25493 12.7558 6.30675 12.7732 6.35933L12.7779 6.37266L12.7792 6.37733V6.37933L12.7799 6.38066C12.8154 6.50731 12.7996 6.64351 12.7359 6.75857C12.6722 6.87364 12.5657 6.95896 12.4395 6.99605C12.3133 7.03315 12.1776 7.01902 12.0617 6.95674C11.9459 6.89447 11.8592 6.78905 11.8206 6.66333L11.8186 6.656C11.7717 6.5399 11.716 6.42757 11.6519 6.32C11.5026 6.06866 11.2339 5.68933 10.7679 5.22266C10.3012 4.756 9.92122 4.48733 9.67056 4.33866C9.56299 4.27457 9.45066 4.21885 9.33456 4.172L9.32722 4.16933C9.20144 4.13146 9.09561 4.04562 9.03261 3.93035C8.96961 3.81508 8.9545 3.67965 8.99056 3.55333ZM3.33789 2.938C4.45789 1.818 6.34856 1.90333 7.12856 3.30066L7.56122 4.076C8.06989 4.98866 7.85322 6.14 7.10789 6.89466C7.06398 6.96123 7.03993 7.03893 7.03856 7.11866C7.02989 7.28933 7.09056 7.68466 7.70322 8.29666C8.31522 8.90866 8.70989 8.97 8.88122 8.96133C8.96112 8.96028 9.03906 8.93646 9.10589 8.89266C9.85989 8.14666 11.0119 7.93 11.9239 8.43933L12.6992 8.872C14.0966 9.652 14.1819 11.542 13.0619 12.662C12.4626 13.2607 11.6666 13.7933 10.7299 13.8287C9.34322 13.8813 7.03922 13.5233 4.75789 11.242C2.47722 8.96066 2.11856 6.65733 2.17122 5.27C2.20656 4.334 2.73922 3.53666 3.33789 2.938ZM6.25522 3.788C5.85522 3.07266 4.78189 2.908 4.04522 3.64533C3.52856 4.162 3.19189 4.732 3.17056 5.308C3.12656 6.46466 3.41256 8.48133 5.46522 10.5347C7.51856 12.588 9.53522 12.8733 10.6919 12.8293C11.2672 12.808 11.8386 12.4713 12.3546 11.9547C13.0919 11.2173 12.9279 10.1447 12.2119 9.74533L11.4366 9.312C10.9546 9.04333 10.2766 9.13533 9.80122 9.61066C9.75456 9.65733 9.45722 9.93466 8.92989 9.96C8.38989 9.98666 7.73589 9.744 6.99656 9.004C6.25589 8.264 6.01322 7.61 6.03989 7.06933C6.06522 6.542 6.34322 6.24466 6.38922 6.19866C6.86522 5.72266 6.95656 5.04533 6.68789 4.56333L6.25456 3.788H6.25522Z" fill="#222222"/>
</svg>
