<svg width="24" height="24" viewBox="0 0 24 24" fill="none" xmlns="http://www.w3.org/2000/svg">
<path fill-rule="evenodd" clip-rule="evenodd" d="M20.924 11.75H18.23C16.806 11.75 15.749 12.809 15.749 14C15.749 15.191 16.806 16.25 18.229 16.25H20.947C21.153 16.237 21.242 16.098 21.249 16.014V11.986C21.242 11.902 21.153 11.763 20.947 11.751H20.923L20.924 11.75ZM20.85 10.25C20.916 10.25 20.98 10.25 21.04 10.254C21.91 10.307 22.681 10.964 22.746 11.882C22.75 11.942 22.75 12.007 22.75 12.067V15.933C22.75 15.993 22.75 16.058 22.746 16.118C22.681 17.036 21.91 17.693 21.039 17.747C20.98 17.75 20.916 17.75 20.849 17.75H18.231C16.086 17.75 14.25 16.122 14.25 14C14.25 11.878 16.086 10.25 18.23 10.25H20.85Z" fill="#222222"/>
<path d="M19 14C19 14.2652 18.8946 14.5196 18.7071 14.7071C18.5196 14.8946 18.2652 15 18 15C17.7348 15 17.4804 14.8946 17.2929 14.7071C17.1054 14.5196 17 14.2652 17 14C17 13.7348 17.1054 13.4804 17.2929 13.2929C17.4804 13.1054 17.7348 13 18 13C18.2652 13 18.5196 13.1054 18.7071 13.2929C18.8946 13.4804 19 13.7348 19 14Z" fill="#222222"/>
<path fill-rule="evenodd" clip-rule="evenodd" d="M20.85 10.25C21.1369 10.2392 21.4225 10.2939 21.685 10.41C21.578 8.804 21.283 7.566 20.359 6.641C19.61 5.893 18.661 5.561 17.489 5.403L17.447 5.398C17.4365 5.39006 17.4259 5.38239 17.415 5.375L13.679 2.898C13.031 2.47507 12.2738 2.24988 11.5 2.24988C10.7262 2.24988 9.96905 2.47507 9.321 2.898L5.586 5.375C5.5748 5.38238 5.5638 5.39004 5.553 5.398L5.511 5.403C4.339 5.561 3.39 5.893 2.641 6.641C1.893 7.39 1.561 8.339 1.403 9.511C1.25 10.651 1.25 12.106 1.25 13.944V14.056C1.25 15.894 1.25 17.35 1.403 18.489C1.561 19.661 1.893 20.61 2.641 21.359C3.39 22.107 4.339 22.439 5.511 22.597C6.651 22.75 8.106 22.75 9.944 22.75H13.056C14.894 22.75 16.35 22.75 17.489 22.597C18.661 22.439 19.61 22.107 20.359 21.359C21.283 20.434 21.578 19.196 21.685 17.589C21.483 17.679 21.265 17.733 21.039 17.747C20.98 17.75 20.916 17.75 20.849 17.75H20.168C20.054 19.091 19.797 19.8 19.298 20.298C18.875 20.721 18.295 20.975 17.289 21.11C16.262 21.248 14.907 21.25 13 21.25H10C8.093 21.25 6.739 21.248 5.71 21.11C4.705 20.975 4.125 20.721 3.702 20.298C3.279 19.875 3.025 19.295 2.89 18.289C2.752 17.262 2.75 15.907 2.75 14C2.75 12.093 2.752 10.739 2.89 9.71C3.025 8.705 3.279 8.125 3.702 7.702C4.125 7.279 4.705 7.025 5.711 6.89C6.739 6.752 8.093 6.75 10 6.75H13C14.907 6.75 16.262 6.752 17.29 6.89C18.295 7.025 18.875 7.279 19.298 7.702C19.797 8.2 20.054 8.909 20.168 10.25H20.85ZM9.944 5.25H13.056C13.573 5.25 14.059 5.25 14.516 5.253L12.85 4.148C12.05 3.618 10.95 3.618 10.15 4.148L8.483 5.253C8.941 5.25 9.427 5.25 9.943 5.25H9.944Z" fill="#222222"/>
<path d="M6 9.25C5.80109 9.25 5.61032 9.32902 5.46967 9.46967C5.32902 9.61032 5.25 9.80109 5.25 10C5.25 10.1989 5.32902 10.3897 5.46967 10.5303C5.61032 10.671 5.80109 10.75 6 10.75H10C10.1989 10.75 10.3897 10.671 10.5303 10.5303C10.671 10.3897 10.75 10.1989 10.75 10C10.75 9.80109 10.671 9.61032 10.5303 9.46967C10.3897 9.32902 10.1989 9.25 10 9.25H6Z" fill="#222222"/>
<path d="M19 14C19 14.2652 18.8946 14.5196 18.7071 14.7071C18.5196 14.8946 18.2652 15 18 15C17.7348 15 17.4804 14.8946 17.2929 14.7071C17.1054 14.5196 17 14.2652 17 14C17 13.7348 17.1054 13.4804 17.2929 13.2929C17.4804 13.1054 17.7348 13 18 13C18.2652 13 18.5196 13.1054 18.7071 13.2929C18.8946 13.4804 19 13.7348 19 14Z" fill="#222222"/>
</svg>
