<svg width="16" height="16" viewBox="0 0 16 16" fill="none" xmlns="http://www.w3.org/2000/svg">
<path fill-rule="evenodd" clip-rule="evenodd" d="M7.96192 0.833344H8.03792C9.57725 0.833344 10.7833 0.833344 11.7246 0.96001C12.6873 1.08934 13.4473 1.36001 14.0439 1.95601C14.6406 2.55268 14.9106 3.31268 15.0399 4.27601C15.1666 5.21668 15.1666 6.42268 15.1666 7.96201V8.00001H15.1599C15.1666 8.38601 15.1666 8.82001 15.1666 9.31068V9.35601C15.1666 10.27 15.1666 10.9873 15.1199 11.5633C15.0719 12.15 14.9726 12.6347 14.7486 13.0733C14.3811 13.7947 13.7946 14.3812 13.0733 14.7487C12.6346 14.9727 12.1499 15.072 11.5633 15.1193C10.9873 15.1667 10.2699 15.1667 9.35592 15.1667H6.64392C5.72992 15.1667 5.01259 15.1667 4.43659 15.12C3.84992 15.072 3.36525 14.9727 2.92658 14.7487C2.20524 14.3812 1.61878 13.7947 1.25125 13.0733C1.02725 12.6347 0.928585 12.15 0.880585 11.5633C0.833252 10.9873 0.833252 10.27 0.833252 9.35601V9.31068C0.833252 8.82001 0.833252 8.38601 0.839919 8.00001H0.833252V7.96201C0.833252 6.42268 0.833252 5.21668 0.959919 4.27534C1.08925 3.31268 1.35992 2.55268 1.95592 1.95601C2.55259 1.35934 3.31259 1.08934 4.27592 0.96001C5.21659 0.833344 6.42259 0.833344 7.96192 0.833344ZM1.92125 4.65801C2.21368 4.35807 2.55329 4.10809 2.92658 3.91801C3.36525 3.69401 3.84992 3.59534 4.43659 3.54734C5.01259 3.50001 5.72992 3.50001 6.64392 3.50001H9.35592C10.2699 3.50001 10.9873 3.50001 11.5633 3.54668C12.1499 3.59534 12.6346 3.69401 13.0733 3.91801C13.4465 4.10809 13.7862 4.35807 14.0786 4.65801C14.07 4.57498 14.0603 4.49208 14.0493 4.40934C13.9346 3.55668 13.7159 3.04268 13.3366 2.66268C12.9566 2.28334 12.4433 2.06534 11.5906 1.95068C10.7239 1.83468 9.58525 1.83334 7.99992 1.83334C6.41459 1.83334 5.27592 1.83468 4.40925 1.95068C3.55659 2.06534 3.04259 2.28401 2.66259 2.66334C2.28325 3.04334 2.06525 3.55668 1.95059 4.40934C1.93992 4.48934 1.93059 4.57268 1.92125 4.65801ZM4.51792 4.54401C3.99325 4.58668 3.65459 4.66934 3.38059 4.80868C2.84722 5.08036 2.4136 5.51398 2.14192 6.04734C2.00192 6.32134 1.91992 6.66001 1.87725 7.18468C1.83392 7.71534 1.83325 8.39134 1.83325 9.33334C1.83325 10.2747 1.83325 10.9513 1.87725 11.482C1.91992 12.0067 2.00259 12.3453 2.14192 12.62C2.41371 13.1531 2.84732 13.5865 3.38059 13.858C3.65459 13.998 3.99325 14.08 4.51792 14.1227C5.04858 14.166 5.72459 14.1667 6.66658 14.1667H9.33325C10.2746 14.1667 10.9513 14.1667 11.4819 14.1227C12.0066 14.08 12.3453 13.9973 12.6199 13.858C13.1529 13.5864 13.5863 13.153 13.8579 12.62C13.9979 12.3453 14.0799 12.0067 14.1226 11.482C14.1659 10.9513 14.1666 10.2753 14.1666 9.33334C14.1666 8.39201 14.1666 7.71534 14.1226 7.18468C14.0799 6.66001 13.9973 6.32134 13.8579 6.04734C13.5864 5.51408 13.153 5.08047 12.6199 4.80868C12.3453 4.66868 12.0066 4.58668 11.4819 4.54401C10.9513 4.50068 10.2753 4.50001 9.33325 4.50001H6.66658C5.72459 4.50001 5.04858 4.50001 4.51792 4.54401ZM9.99992 7.62668C10.0986 7.71497 10.1583 7.83883 10.1658 7.97107C10.1733 8.10331 10.128 8.23312 10.0399 8.33201L7.65858 10.9987C7.61168 11.0512 7.55421 11.0933 7.48993 11.122C7.42565 11.1508 7.35601 11.1657 7.28558 11.1657C7.21516 11.1657 7.14552 11.1508 7.08124 11.122C7.01696 11.0933 6.95949 11.0512 6.91259 10.9987L5.96059 9.93201C5.91357 9.88365 5.87682 9.82627 5.85256 9.76333C5.82829 9.7004 5.81701 9.6332 5.8194 9.56579C5.82178 9.49838 5.83778 9.43215 5.86644 9.37109C5.89509 9.31003 5.9358 9.25539 5.98612 9.21047C6.03644 9.16555 6.09533 9.13128 6.15924 9.10972C6.22315 9.08815 6.29076 9.07974 6.35801 9.08499C6.42526 9.09024 6.49075 9.10905 6.55054 9.14027C6.61033 9.17149 6.66318 9.21449 6.70592 9.26668L7.28592 9.91534L9.29325 7.66668C9.33699 7.61759 9.38998 7.57762 9.44918 7.54904C9.50839 7.52046 9.57265 7.50383 9.63829 7.50012C9.70393 7.4964 9.76965 7.50567 9.83171 7.52739C9.89376 7.5491 9.95092 7.58284 9.99992 7.62668Z" fill="#222222"/>
</svg>
