<svg width="24" height="24" viewBox="0 0 24 24" fill="none" xmlns="http://www.w3.org/2000/svg">
<path fill-rule="evenodd" clip-rule="evenodd" d="M2.25 6C2.25 5.80109 2.32902 5.61032 2.46967 5.46967C2.61032 5.32902 2.80109 5.25 3 5.25H21C21.1989 5.25 21.3897 5.32902 21.5303 5.46967C21.671 5.61032 21.75 5.80109 21.75 6C21.75 6.19891 21.671 6.38968 21.5303 6.53033C21.3897 6.67098 21.1989 6.75 21 6.75H3C2.80109 6.75 2.61032 6.67098 2.46967 6.53033C2.32902 6.38968 2.25 6.19891 2.25 6ZM2.25 10C2.25 9.80109 2.32902 9.61032 2.46967 9.46967C2.61032 9.32902 2.80109 9.25 3 9.25H21C21.1989 9.25 21.3897 9.32902 21.5303 9.46967C21.671 9.61032 21.75 9.80109 21.75 10C21.75 10.1989 21.671 10.3897 21.5303 10.5303C21.3897 10.671 21.1989 10.75 21 10.75H3C2.80109 10.75 2.61032 10.671 2.46967 10.5303C2.32902 10.3897 2.25 10.1989 2.25 10ZM2.25 14C2.25 13.8011 2.32902 13.6103 2.46967 13.4697C2.61032 13.329 2.80109 13.25 3 13.25H11C11.1989 13.25 11.3897 13.329 11.5303 13.4697C11.671 13.6103 11.75 13.8011 11.75 14C11.75 14.1989 11.671 14.3897 11.5303 14.5303C11.3897 14.671 11.1989 14.75 11 14.75H3C2.80109 14.75 2.61032 14.671 2.46967 14.5303C2.32902 14.3897 2.25 14.1989 2.25 14ZM16.97 13.47C17.1106 13.3295 17.3012 13.2507 17.5 13.2507C17.6988 13.2507 17.8894 13.3295 18.03 13.47L20.53 15.97C20.6037 16.0387 20.6628 16.1215 20.7038 16.2135C20.7448 16.3055 20.7668 16.4048 20.7686 16.5055C20.7704 16.6062 20.7518 16.7062 20.7141 16.7996C20.6764 16.893 20.6203 16.9778 20.549 17.049C20.4778 17.1203 20.393 17.1764 20.2996 17.2141C20.2062 17.2518 20.1062 17.2704 20.0055 17.2686C19.9048 17.2668 19.8055 17.2448 19.7135 17.2038C19.6215 17.1628 19.5387 17.1037 19.47 17.03L18.25 15.81V20C18.25 20.1989 18.171 20.3897 18.0303 20.5303C17.8897 20.671 17.6989 20.75 17.5 20.75C17.3011 20.75 17.1103 20.671 16.9697 20.5303C16.829 20.3897 16.75 20.1989 16.75 20V15.81L15.53 17.03C15.4613 17.1037 15.3785 17.1628 15.2865 17.2038C15.1945 17.2448 15.0952 17.2668 14.9945 17.2686C14.8938 17.2704 14.7938 17.2518 14.7004 17.2141C14.607 17.1764 14.5222 17.1203 14.451 17.049C14.3797 16.9778 14.3236 16.893 14.2859 16.7996C14.2482 16.7062 14.2296 16.6062 14.2314 16.5055C14.2332 16.4048 14.2552 16.3055 14.2962 16.2135C14.3372 16.1215 14.3963 16.0387 14.47 15.97L16.97 13.47ZM2.25 18C2.25 17.8011 2.32902 17.6103 2.46967 17.4697C2.61032 17.329 2.80109 17.25 3 17.25H11C11.1989 17.25 11.3897 17.329 11.5303 17.4697C11.671 17.6103 11.75 17.8011 11.75 18C11.75 18.1989 11.671 18.3897 11.5303 18.5303C11.3897 18.671 11.1989 18.75 11 18.75H3C2.80109 18.75 2.61032 18.671 2.46967 18.5303C2.32902 18.3897 2.25 18.1989 2.25 18Z" fill="#222222"/>
</svg>
