<svg width="33" height="32" viewBox="0 0 33 32" fill="none" xmlns="http://www.w3.org/2000/svg">
<path fill-rule="evenodd" clip-rule="evenodd" d="M16.5666 1.66675H16.4333C15.548 1.66675 14.784 1.66675 14.172 1.74941C13.5173 1.83741 12.888 2.03608 12.3786 2.54541C11.8693 3.05475 11.6706 3.68408 11.5826 4.33875C11.5 4.95075 11.5 5.71475 11.5 6.60142V9.83741C11.1788 9.72407 10.8406 9.66635 10.5 9.66675H6.49996C6.10599 9.66675 5.71589 9.74435 5.35191 9.89511C4.98793 10.0459 4.65721 10.2669 4.37864 10.5454C4.10006 10.824 3.87908 11.1547 3.72832 11.5187C3.57756 11.8827 3.49996 12.2728 3.49996 12.6667V28.3334H3.16663C2.90141 28.3334 2.64706 28.4388 2.45952 28.6263C2.27198 28.8138 2.16663 29.0682 2.16663 29.3334C2.16663 29.5986 2.27198 29.853 2.45952 30.0405C2.64706 30.2281 2.90141 30.3334 3.16663 30.3334H29.8333C30.0985 30.3334 30.3529 30.2281 30.5404 30.0405C30.7279 29.853 30.8333 29.5986 30.8333 29.3334C30.8333 29.0682 30.7279 28.8138 30.5404 28.6263C30.3529 28.4388 30.0985 28.3334 29.8333 28.3334H29.5V19.3334C29.5 18.5378 29.1839 17.7747 28.6213 17.2121C28.0587 16.6495 27.2956 16.3334 26.5 16.3334H22.5C22.1493 16.3334 21.8133 16.3934 21.5 16.5041V6.60142C21.5 5.71475 21.5 4.95075 21.4173 4.33875C21.3293 3.68408 21.1306 3.05475 20.6213 2.54541C20.112 2.03608 19.484 1.83741 18.828 1.74941C18.216 1.66675 17.452 1.66675 16.5653 1.66675H16.5666ZM27.5 28.3334V19.3334C27.5 19.0682 27.3946 18.8138 27.2071 18.6263C27.0195 18.4388 26.7652 18.3334 26.5 18.3334H22.5C22.2347 18.3334 21.9804 18.4388 21.7929 18.6263C21.6053 18.8138 21.5 19.0682 21.5 19.3334V28.3334H27.5ZM19.5 28.3334V6.66675C19.5 5.69608 19.4973 5.06675 19.436 4.60541C19.3773 4.17208 19.2826 4.03608 19.2066 3.96008C19.1306 3.88408 18.9946 3.78941 18.5613 3.73075C18.0986 3.66941 17.4706 3.66675 16.5 3.66675C15.5293 3.66675 14.9 3.66941 14.4386 3.73075C14.0053 3.78941 13.8693 3.88408 13.7933 3.96008C13.7173 4.03608 13.6226 4.17208 13.564 4.60541C13.5026 5.06808 13.5 5.69608 13.5 6.66675V28.3334H19.5ZM11.5 28.3334V12.6667C11.5 12.4015 11.3946 12.1472 11.2071 11.9596C11.0195 11.7721 10.7652 11.6667 10.5 11.6667H6.49996C6.23474 11.6667 5.98039 11.7721 5.79285 11.9596C5.60532 12.1472 5.49996 12.4015 5.49996 12.6667V28.3334H11.5Z" fill="#717171"/>
</svg>
