<svg width="16" height="16" viewBox="0 0 16 16" fill="none" xmlns="http://www.w3.org/2000/svg">
<path fill-rule="evenodd" clip-rule="evenodd" d="M15.1666 8C15.1666 4.042 11.9579 0.833328 7.99992 0.833328C4.04192 0.833328 0.833252 4.042 0.833252 8C0.833252 9.14533 1.10259 10.23 1.58125 11.1913C1.65259 11.3347 1.66792 11.4813 1.63459 11.6047L1.23792 13.0887C0.965919 14.1047 1.89525 15.034 2.91125 14.762L4.39525 14.3647C4.53493 14.3316 4.68188 14.3505 4.80859 14.418C5.7999 14.9117 6.89247 15.168 7.99992 15.1667C11.9579 15.1667 15.1666 11.958 15.1666 8ZM7.99992 1.83333C9.63542 1.83333 11.2039 2.48303 12.3604 3.6395C13.5169 4.79598 14.1666 6.36449 14.1666 8C14.1666 9.6355 13.5169 11.204 12.3604 12.3605C11.2039 13.517 9.63542 14.1667 7.99992 14.1667C7.04729 14.1681 6.10738 13.9479 5.25459 13.5233C4.90979 13.347 4.51244 13.3026 4.13725 13.3987L2.65259 13.796C2.59042 13.8126 2.52497 13.8125 2.46283 13.7958C2.4007 13.7791 2.34405 13.7463 2.29858 13.7008C2.25312 13.6553 2.22043 13.5986 2.20382 13.5364C2.1872 13.4742 2.18724 13.4088 2.20392 13.3467L2.60125 11.8627C2.69728 11.4875 2.65294 11.0901 2.47659 10.7453C2.05205 9.89252 1.8318 8.95263 1.83325 8C1.83325 6.36449 2.48295 4.79598 3.63943 3.6395C4.7959 2.48303 6.36442 1.83333 7.99992 1.83333Z" fill="black"/>
</svg>
