<svg width="24" height="24" viewBox="0 0 24 24" fill="none" xmlns="http://www.w3.org/2000/svg">
<g id="solar:link-round-outline">
<path id="Vector" fill-rule="evenodd" clip-rule="evenodd" d="M1.25001 9C1.25001 7.20979 1.96116 5.4929 3.22703 4.22703C4.49291 2.96116 6.20979 2.25 8.00001 2.25H12C13.7902 2.25 15.5071 2.96116 16.773 4.22703C18.0388 5.4929 18.75 7.20979 18.75 9C18.75 10.7902 18.0388 12.5071 16.773 13.773C15.5071 15.0388 13.7902 15.75 12 15.75H10C9.80109 15.75 9.61033 15.671 9.46968 15.5303C9.32902 15.3897 9.25001 15.1989 9.25001 15C9.25001 14.8011 9.32902 14.6103 9.46968 14.4697C9.61033 14.329 9.80109 14.25 10 14.25H12C12.6894 14.25 13.3721 14.1142 14.0091 13.8504C14.6461 13.5865 15.2248 13.1998 15.7123 12.7123C16.1998 12.2248 16.5865 11.646 16.8504 11.0091C17.1142 10.3721 17.25 9.68944 17.25 9C17.25 8.31056 17.1142 7.62787 16.8504 6.99091C16.5865 6.35395 16.1998 5.7752 15.7123 5.28769C15.2248 4.80018 14.6461 4.41347 14.0091 4.14963C13.3721 3.8858 12.6894 3.75 12 3.75H8.00001C6.98654 3.75002 5.99475 4.04338 5.14434 4.59466C4.29393 5.14595 3.62126 5.93159 3.20753 6.85675C2.79379 7.78192 2.65668 8.80706 2.81274 9.80843C2.9688 10.8098 3.41136 11.7446 4.08701 12.5C4.21825 12.6485 4.28541 12.8428 4.27381 13.0406C4.26222 13.2385 4.1728 13.4237 4.02511 13.5558C3.87741 13.6879 3.68344 13.7562 3.48556 13.7457C3.28767 13.7353 3.10197 13.6469 2.96901 13.5C1.86025 12.2636 1.24797 10.6608 1.25001 9ZM12 9.75C11.3106 9.75 10.6279 9.8858 9.99092 10.1496C9.35396 10.4135 8.7752 10.8002 8.2877 11.2877C7.80019 11.7752 7.41348 12.354 7.14964 12.9909C6.8858 13.6279 6.75001 14.3106 6.75001 15C6.75001 15.6894 6.8858 16.3721 7.14964 17.0091C7.41348 17.646 7.80019 18.2248 8.2877 18.7123C8.7752 19.1998 9.35396 19.5865 9.99092 19.8504C10.6279 20.1142 11.3106 20.25 12 20.25H16C17.0135 20.25 18.0053 19.9566 18.8557 19.4053C19.7061 18.8541 20.3788 18.0684 20.7925 17.1432C21.2062 16.2181 21.3433 15.1929 21.1873 14.1916C21.0312 13.1902 20.5886 12.2554 19.913 11.5C19.8467 11.4267 19.7955 11.341 19.7624 11.2479C19.7293 11.1547 19.7149 11.0559 19.7201 10.9572C19.7254 10.8585 19.75 10.7618 19.7928 10.6726C19.8355 10.5835 19.8954 10.5036 19.9691 10.4377C20.0428 10.3718 20.1288 10.3211 20.2221 10.2886C20.3155 10.256 20.4143 10.2423 20.513 10.248C20.6117 10.2538 20.7083 10.2791 20.7972 10.3223C20.8861 10.3655 20.9655 10.4259 21.031 10.5C21.8997 11.4712 22.4687 12.6731 22.6693 13.9606C22.87 15.2481 22.6937 16.5661 22.1618 17.7556C21.6298 18.9451 20.765 19.9552 19.6716 20.664C18.5782 21.3728 17.303 21.75 16 21.75H12C10.2098 21.75 8.49291 21.0388 7.22704 19.773C5.96116 18.5071 5.25001 16.7902 5.25001 15C5.25001 13.2098 5.96116 11.4929 7.22704 10.227C8.49291 8.96116 10.2098 8.25 12 8.25H14C14.1989 8.25 14.3897 8.32902 14.5303 8.46967C14.671 8.61032 14.75 8.80109 14.75 9C14.75 9.19891 14.671 9.38968 14.5303 9.53033C14.3897 9.67098 14.1989 9.75 14 9.75H12Z" fill="#6E0699"/>
</g>
</svg>
