<svg width="24" height="24" viewBox="0 0 24 24" fill="none" xmlns="http://www.w3.org/2000/svg">
<path d="M12 1.25C12.1989 1.25 12.3897 1.32902 12.5303 1.46967C12.671 1.61032 12.75 1.80109 12.75 2V3.036L17.758 5.54L17.812 5.567C18.546 5.934 19.172 6.247 19.608 6.551C20.05 6.86 20.514 7.307 20.514 8C20.514 8.693 20.05 9.14 19.608 9.449C19.172 9.753 18.546 10.066 17.812 10.433L12.75 12.963V18C12.75 18.1989 12.671 18.3897 12.5303 18.5303C12.3897 18.671 12.1989 18.75 12 18.75C11.8011 18.75 11.6103 18.671 11.4697 18.5303C11.329 18.3897 11.25 18.1989 11.25 18V2C11.25 1.80109 11.329 1.61032 11.4697 1.46967C11.6103 1.32902 11.8011 1.25 12 1.25Z" fill="currentColor"/>
<path d="M12 22C17.523 22 22 20.433 22 18.5C22 16.838 18.69 15.446 14.25 15.089V18C14.25 18.5967 14.0129 19.169 13.591 19.591C13.169 20.0129 12.5967 20.25 12 20.25C11.4033 20.25 10.831 20.0129 10.409 19.591C9.98705 19.169 9.75 18.5967 9.75 18V15.089C5.31 15.446 2 16.838 2 18.5C2 20.433 6.477 22 12 22Z" fill="currentColor"/>
<path d="M12 1.25C11.8011 1.25 11.6103 1.32902 11.4697 1.46967C11.329 1.61032 11.25 1.80109 11.25 2V18C11.25 18.1989 11.329 18.3897 11.4697 18.5303C11.6103 18.671 11.8011 18.75 12 18.75C12.1989 18.75 12.3897 18.671 12.5303 18.5303C12.671 18.3897 12.75 18.1989 12.75 18V12.964L17.812 10.433C18.546 10.066 19.172 9.753 19.608 9.449C20.05 9.14 20.514 8.693 20.514 8C20.514 7.308 20.05 6.86 19.608 6.551C19.172 6.247 18.546 5.934 17.812 5.567L12.75 3.037V2C12.75 1.80109 12.671 1.61032 12.5303 1.46967C12.3897 1.32902 12.1989 1.25 12 1.25Z" fill="currentColor"/>
</svg>
