<svg width="16" height="16" viewBox="0 0 16 16" fill="none" xmlns="http://www.w3.org/2000/svg">
<path fill-rule="evenodd" clip-rule="evenodd" d="M7.99992 14.1667C6.36442 14.1667 4.7959 13.517 3.63943 12.3605C2.48295 11.204 1.83325 9.63551 1.83325 8.00001C1.83325 6.3645 2.48295 4.79599 3.63943 3.63951C4.7959 2.48304 6.36442 1.83334 7.99992 1.83334C9.63542 1.83334 11.2039 2.48304 12.3604 3.63951C13.5169 4.79599 14.1666 6.3645 14.1666 8.00001C14.1666 9.63551 13.5169 11.204 12.3604 12.3605C11.2039 13.517 9.63542 14.1667 7.99992 14.1667ZM0.833252 8.00001C0.833252 11.958 4.04192 15.1667 7.99992 15.1667C11.9579 15.1667 15.1666 11.958 15.1666 8.00001C15.1666 4.04201 11.9579 0.83334 7.99992 0.83334C4.04192 0.83334 0.833252 4.04201 0.833252 8.00001ZM5.64658 7.35334L7.64658 9.35334C7.74034 9.44697 7.86742 9.49957 7.99992 9.49957C8.13242 9.49957 8.2595 9.44697 8.35325 9.35334L10.3533 7.35334C10.4024 7.30756 10.4418 7.25236 10.4691 7.19103C10.4964 7.1297 10.5111 7.06349 10.5123 6.99635C10.5135 6.92922 10.5011 6.86253 10.476 6.80027C10.4509 6.73802 10.4134 6.68146 10.3659 6.63398C10.3185 6.5865 10.2619 6.54907 10.1996 6.52392C10.1374 6.49878 10.0707 6.48643 10.0036 6.48761C9.93643 6.4888 9.87023 6.50349 9.80889 6.53082C9.74756 6.55815 9.69236 6.59755 9.64658 6.64667L7.99992 8.29334L6.35325 6.64667C6.25847 6.55835 6.1331 6.51027 6.00357 6.51256C5.87404 6.51484 5.75045 6.56732 5.65884 6.65893C5.56723 6.75053 5.51475 6.87412 5.51247 7.00366C5.51018 7.13319 5.55827 7.25856 5.64658 7.35334Z" fill="black"/>
</svg>
