<svg width="16" height="16" viewBox="0 0 16 16" fill="none" xmlns="http://www.w3.org/2000/svg">
<path fill-rule="evenodd" clip-rule="evenodd" d="M7.528 2.20534C7.26534 2.54801 6.96934 3.07734 6.53867 3.84934L6.32067 4.24068L6.28134 4.31134C6.08134 4.67134 5.91134 4.97668 5.63867 5.18334C5.36334 5.39268 5.02734 5.46801 4.63667 5.55601L4.56067 5.57334L4.13667 5.66934C3.3 5.85868 2.73 5.98868 2.34067 6.14268C1.96 6.29201 1.88 6.41534 1.84934 6.51334C1.81667 6.61734 1.816 6.77668 2.04267 7.13801C2.274 7.50468 2.664 7.96201 3.23334 8.62868L3.52267 8.96668L3.57267 9.02468C3.84134 9.33801 4.06534 9.59934 4.168 9.93001C4.27 10.2587 4.236 10.6033 4.19467 11.022L4.188 11.1L4.144 11.5513C4.05734 12.4393 4 13.0513 4.01934 13.4913C4.03934 13.9313 4.132 14.0527 4.206 14.1087C4.27134 14.1587 4.39267 14.2133 4.788 14.1C5.19 13.9853 5.72467 13.7407 6.508 13.38L6.90534 13.1973L6.978 13.164C7.34134 12.9953 7.656 12.85 8 12.85C8.344 12.85 8.65867 12.9953 9.022 13.1633C9.0462 13.175 9.07065 13.1861 9.09534 13.1967L9.492 13.38C10.2753 13.7407 10.81 13.9853 11.212 14.1C11.6073 14.2133 11.7287 14.1587 11.794 14.1087C11.868 14.0527 11.9607 13.9307 11.9807 13.4913C12.0007 13.0513 11.942 12.4393 11.856 11.5513L11.812 11.1L11.8053 11.022C11.764 10.6033 11.73 10.2587 11.832 9.93001C11.9347 9.59934 12.1587 9.33801 12.4273 9.02468L12.4773 8.96668L12.7667 8.62868C13.336 7.96201 13.726 7.50468 13.9567 7.13801C14.184 6.77668 14.1833 6.61801 14.1507 6.51334C14.12 6.41534 14.04 6.29201 13.6593 6.14268C13.2693 5.98868 12.7 5.85868 11.8633 5.66934L11.4393 5.57334C11.4133 5.56668 11.388 5.56134 11.3633 5.55601C10.9727 5.46801 10.6367 5.39268 10.3613 5.18334C10.088 4.97668 9.91934 4.67201 9.71867 4.31134L9.68 4.24068L9.46134 3.84934C9.03067 3.07734 8.73467 2.54801 8.472 2.20534C8.21 1.86268 8.076 1.83334 8 1.83334C7.924 1.83334 7.79 1.86268 7.528 2.20534ZM6.73467 1.59734C7.05134 1.18268 7.444 0.833344 8 0.833344C8.556 0.833344 8.948 1.18268 9.266 1.59734C9.578 2.00534 9.90934 2.59934 10.314 3.32534L10.5533 3.75401C10.8147 4.22334 10.882 4.32334 10.966 4.38734C11.046 4.44801 11.1507 4.48268 11.6593 4.59801L12.126 4.70334C12.91 4.88068 13.556 5.02668 14.026 5.21201C14.514 5.40468 14.9413 5.68801 15.106 6.21668C15.2687 6.74001 15.086 7.22134 14.8033 7.67001C14.5287 8.10668 14.09 8.62001 13.554 9.24668L13.2373 9.61668C12.8927 10.0193 12.8207 10.118 12.7867 10.2267C12.7527 10.338 12.7553 10.4667 12.808 11.0033L12.8553 11.4953C12.9367 12.3327 13.0027 13.0153 12.9793 13.5353C12.956 14.0653 12.836 14.5733 12.3993 14.9053C11.954 15.2427 11.436 15.2053 10.936 15.0613C10.4513 14.9227 9.84734 14.6447 9.114 14.3067L8.67667 14.1053C8.198 13.8853 8.096 13.85 8 13.85C7.904 13.85 7.802 13.8853 7.32334 14.1053L6.88667 14.3067C6.15267 14.6447 5.54867 14.9227 5.064 15.0613C4.564 15.2047 4.046 15.2427 3.60134 14.9053C3.164 14.5733 3.044 14.0653 3.02067 13.536C2.99734 13.016 3.06334 12.3327 3.14467 11.496L3.19267 11.0033C3.24467 10.466 3.24734 10.338 3.21267 10.2267C3.17934 10.118 3.10734 10.02 2.76267 9.61668L2.446 9.24668C1.91067 8.62001 1.472 8.10668 1.19734 7.67068C0.914002 7.22134 0.731336 6.74001 0.894002 6.21668C1.05867 5.68801 1.486 5.40468 1.974 5.21201C2.444 5.02668 3.09 4.88068 3.874 4.70334L3.916 4.69401L4.34 4.59801C4.84934 4.48268 4.95334 4.44801 5.034 4.38668C5.118 4.32334 5.18534 4.22334 5.44734 3.75401L5.686 3.32534C6.09067 2.59868 6.422 2.00534 6.734 1.59734H6.73467Z" fill="currentColor"/>
</svg>
