<svg width="16" height="16" viewBox="0 0 16 16" fill="none" xmlns="http://www.w3.org/2000/svg">
<g id="solar:close-circle-bold">
<path id="Vector" fill-rule="evenodd" clip-rule="evenodd" d="M14.6667 7.99992C14.6667 11.6819 11.682 14.6666 8.00004 14.6666C4.31804 14.6666 1.33337 11.6819 1.33337 7.99992C1.33337 4.31792 4.31804 1.33325 8.00004 1.33325C11.682 1.33325 14.6667 4.31792 14.6667 7.99992ZM5.98004 5.97992C6.07379 5.88628 6.20087 5.83369 6.33337 5.83369C6.46587 5.83369 6.59296 5.88628 6.68671 5.97992L8.00004 7.29325L9.31337 5.97992C9.40816 5.8916 9.53352 5.84352 9.66305 5.8458C9.79259 5.84809 9.91618 5.90056 10.0078 5.99217C10.0994 6.08378 10.1519 6.20737 10.1542 6.3369C10.1564 6.46644 10.1084 6.5918 10.02 6.68658L8.70671 7.99992L10.02 9.31325C10.1084 9.40804 10.1564 9.5334 10.1542 9.66293C10.1519 9.79247 10.0994 9.91606 10.0078 10.0077C9.91618 10.0993 9.79259 10.1517 9.66305 10.154C9.53352 10.1563 9.40816 10.1082 9.31337 10.0199L8.00004 8.70658L6.68671 10.0199C6.59192 10.1082 6.46656 10.1563 6.33703 10.154C6.20749 10.1517 6.0839 10.0993 5.99229 10.0077C5.90068 9.91606 5.84821 9.79247 5.84592 9.66293C5.84364 9.5334 5.89172 9.40804 5.98004 9.31325L7.29337 7.99992L5.98004 6.68658C5.88641 6.59283 5.83381 6.46575 5.83381 6.33325C5.83381 6.20075 5.88641 6.07367 5.98004 5.97992Z" fill="#BFBEBF"/>
</g>
</svg>
