<svg width="24" height="24" viewBox="0 0 24 24" fill="none" xmlns="http://www.w3.org/2000/svg">
<path fill-rule="evenodd" clip-rule="evenodd" d="M12.0001 2.9C11.8287 3.17033 11.6672 3.44685 11.5161 3.729L11.3861 3.964C11.376 3.98198 11.366 3.99998 11.3561 4.018C11.2461 4.216 11.0991 4.484 10.8561 4.668C10.6071 4.857 10.3081 4.923 10.0941 4.97L10.0361 4.983L9.78108 5.04C9.31608 5.146 9.02608 5.213 8.83108 5.281C8.95108 5.462 9.15408 5.701 9.48208 6.085L9.65608 6.287L9.69608 6.334C9.84308 6.504 10.0401 6.732 10.1311 7.024C10.2211 7.314 10.1901 7.613 10.1671 7.841C10.165 7.86166 10.163 7.88233 10.1611 7.903L10.1341 8.174C10.0871 8.658 10.0591 8.971 10.0591 9.192C10.2521 9.124 10.5151 9.004 10.9171 8.819L11.1551 8.709L11.2101 8.684C11.4081 8.591 11.6881 8.46 12.0001 8.46C12.3121 8.46 12.5921 8.591 12.7901 8.684L12.8451 8.709L13.0831 8.819C13.4851 9.004 13.7481 9.124 13.9411 9.192C13.9411 8.971 13.9131 8.658 13.8661 8.174L13.8391 7.904C13.8372 7.88299 13.8352 7.86199 13.8331 7.841C13.8101 7.613 13.7801 7.313 13.8701 7.024C13.9601 6.732 14.1571 6.504 14.3051 6.334L14.3451 6.287L14.5181 6.085C14.8461 5.701 15.0481 5.462 15.1681 5.281C14.9741 5.213 14.6841 5.146 14.2181 5.041L13.9641 4.983C13.9448 4.97862 13.9254 4.97428 13.9061 4.97C13.6921 4.923 13.3931 4.857 13.1451 4.668C12.9011 4.484 12.7541 4.216 12.6451 4.018L12.6151 3.964L12.4841 3.729C12.333 3.44682 12.1715 3.1703 12.0001 2.9ZM10.8831 1.885C11.0991 1.603 11.4511 1.25 12.0001 1.25C12.5501 1.25 12.9011 1.603 13.1171 1.885C13.3251 2.156 13.5371 2.538 13.7681 2.952L13.7941 2.998L13.9241 3.233C13.9676 3.31014 14.0119 3.38681 14.0571 3.463L14.1221 3.48L14.2951 3.52L14.5501 3.577L14.6021 3.589C15.0491 3.69 15.4661 3.784 15.7811 3.909C16.1221 4.043 16.5341 4.285 16.6931 4.796C16.8501 5.299 16.6571 5.733 16.4631 6.042C16.2801 6.332 15.9981 6.662 15.6921 7.02L15.4851 7.262C15.4256 7.33165 15.3669 7.40198 15.3091 7.473C15.3111 7.529 15.3181 7.608 15.3331 7.759L15.3631 8.08C15.4101 8.56 15.4531 8.997 15.4371 9.341C15.4211 9.699 15.3371 10.179 14.9121 10.501C14.4741 10.834 13.9851 10.769 13.6381 10.669C13.3131 10.576 12.9231 10.397 12.5051 10.204C12.4888 10.1966 12.4724 10.1893 12.4561 10.182L12.2181 10.072C12.1458 10.0386 12.0731 10.0059 12.0001 9.974C11.9271 10.0059 11.8544 10.0385 11.7821 10.072L11.5441 10.182C11.5277 10.1893 11.5114 10.1966 11.4951 10.204C11.0771 10.397 10.6871 10.576 10.3621 10.669C10.0151 10.769 9.52608 10.834 9.08908 10.501C8.66308 10.179 8.57908 9.699 8.56308 9.341C8.54708 8.997 8.59008 8.56 8.63608 8.081L8.64108 8.029L8.66808 7.759C8.67846 7.6639 8.68613 7.56853 8.69108 7.473C8.63352 7.40203 8.57518 7.33169 8.51608 7.262L8.34208 7.059L8.30808 7.02C8.00208 6.662 7.72008 6.332 7.53808 6.042C7.34308 5.733 7.15008 5.299 7.30708 4.796C7.46608 4.286 7.87808 4.043 8.21908 3.909C8.53408 3.784 8.95108 3.69 9.39908 3.589L9.45008 3.577L9.70508 3.52C9.78495 3.50186 9.86462 3.48286 9.94408 3.463L9.98408 3.394L10.0751 3.234L10.2061 2.998L10.2321 2.952C10.4621 2.538 10.6761 2.156 10.8831 1.885ZM4.00008 8.202C4.05208 8.298 4.16308 8.495 4.34608 8.632C4.54108 8.782 4.77608 8.832 4.87408 8.852L4.89908 8.857L4.91908 8.862L4.88708 8.9C4.88112 8.9067 4.87512 8.91337 4.86908 8.92C4.80108 8.999 4.64708 9.173 4.57708 9.4C4.50708 9.625 4.53208 9.855 4.54408 9.96C4.54408 9.97 4.54608 9.98 4.54708 9.988V9.999C4.37748 9.91156 4.19075 9.8624 4.00008 9.855C3.76008 9.855 3.54708 9.954 3.45208 9.999L3.45408 9.988L3.45708 9.96C3.46808 9.855 3.49308 9.625 3.42308 9.4C3.35308 9.173 3.19908 8.999 3.13108 8.92C3.12504 8.91337 3.11904 8.9067 3.11308 8.9L3.08008 8.862L3.10008 8.857L3.12608 8.852C3.22308 8.832 3.45908 8.782 3.65508 8.632C3.79906 8.51455 3.91663 8.36802 4.00008 8.202ZM3.14408 6.715C3.27308 6.546 3.54608 6.25 4.00008 6.25C4.45408 6.25 4.72808 6.546 4.85608 6.714C4.97708 6.873 5.09608 7.086 5.20608 7.282L5.22408 7.316L5.27408 7.404L5.35808 7.423L5.39708 7.432C5.60708 7.479 5.84208 7.532 6.02708 7.605C6.23908 7.689 6.57508 7.87 6.70508 8.287C6.83208 8.696 6.66708 9.034 6.54908 9.221C6.41756 9.41524 6.27219 9.59972 6.11408 9.773L6.04108 9.859L6.05308 9.979L6.05608 10.018C6.07908 10.244 6.10208 10.488 6.09308 10.688C6.08308 10.9 6.03108 11.285 5.68308 11.549C5.32108 11.823 4.92808 11.756 4.71608 11.695C4.49472 11.6234 4.2791 11.5352 4.07108 11.431L4.00008 11.4L3.92908 11.433C3.72139 11.5371 3.5061 11.6254 3.28508 11.697C3.07208 11.757 2.67908 11.824 2.31808 11.55C1.96808 11.286 1.91608 10.901 1.90708 10.688C1.89708 10.488 1.92208 10.245 1.94408 10.018L1.94708 9.98L1.95908 9.86L1.88608 9.774L1.86008 9.744C1.71205 9.5795 1.5754 9.40509 1.45108 9.222C1.33308 9.035 1.16808 8.697 1.29508 8.288C1.42508 7.871 1.76108 7.69 1.97208 7.606C2.19047 7.52841 2.41445 7.46757 2.64208 7.424L2.72708 7.404L2.77608 7.317L2.79508 7.283C2.90508 7.087 3.02308 6.873 3.14408 6.715ZM20.0001 8.201C20.0521 8.297 20.1631 8.494 20.3461 8.631C20.5108 8.74725 20.7 8.82422 20.8991 8.856L20.9191 8.861L20.8871 8.899C20.7486 9.04111 20.6428 9.21175 20.5771 9.399C20.5071 9.624 20.5321 9.854 20.5441 9.959C20.5441 9.969 20.5461 9.979 20.5471 9.987V9.998C20.3774 9.9109 20.1907 9.86209 20.0001 9.855C19.7601 9.855 19.5471 9.954 19.4531 9.999V9.988L19.4561 9.96C19.4833 9.77303 19.4721 9.58247 19.4231 9.4C19.3601 9.22146 19.2607 9.05799 19.1311 8.92L19.1131 8.9L19.0801 8.862L19.1001 8.857L19.1261 8.852C19.2231 8.832 19.4591 8.782 19.6541 8.632C19.8371 8.495 19.9481 8.297 20.0001 8.201ZM19.1441 6.713C19.2731 6.545 19.5461 6.249 20.0001 6.249C20.4541 6.249 20.7271 6.545 20.8561 6.713C20.9771 6.872 21.0961 7.085 21.2061 7.281L21.2241 7.315L21.2741 7.403L21.3581 7.422L21.3971 7.431C21.6071 7.478 21.8431 7.531 22.0271 7.604C22.2391 7.688 22.5751 7.869 22.7051 8.286C22.8321 8.695 22.6671 9.033 22.5491 9.22C22.4421 9.389 22.2841 9.573 22.1391 9.743L22.1141 9.773L22.0411 9.858L22.0531 9.978L22.0561 10.017C22.0781 10.243 22.1021 10.487 22.0931 10.687C22.0831 10.899 22.0311 11.284 21.6831 11.548C21.3211 11.822 20.9281 11.755 20.7161 11.694C20.5251 11.639 20.3061 11.538 20.1081 11.447C20.0961 11.442 20.0831 11.437 20.0711 11.43L20.0001 11.4L19.9291 11.433L19.8921 11.449C19.6956 11.5457 19.4924 11.6282 19.2841 11.696C19.0721 11.757 18.6791 11.824 18.3181 11.55C17.9681 11.286 17.9161 10.901 17.9071 10.688C17.8971 10.488 17.9221 10.245 17.9441 10.018L17.9471 9.98L17.9591 9.86L17.8861 9.774L17.8601 9.744C17.712 9.57951 17.5754 9.4051 17.4511 9.222C17.3341 9.035 17.1681 8.697 17.2951 8.288C17.4251 7.871 17.7611 7.69 17.9721 7.606C18.1905 7.52842 18.4145 7.46757 18.6421 7.424L18.7271 7.404L18.7761 7.317L18.7951 7.283C18.9051 7.087 19.0231 6.873 19.1441 6.715V6.713ZM8.68408 14.447C10.5501 14.086 12.5471 14.167 14.1641 15.131C14.3901 15.266 14.6041 15.435 14.7891 15.643C15.1651 16.066 15.3591 16.59 15.3681 17.116C15.5591 16.993 15.7511 16.856 15.9451 16.709L17.7531 15.344C18.2058 15.0114 18.7528 14.832 19.3146 14.832C19.8763 14.832 20.4234 15.0114 20.8761 15.344C21.7121 15.974 22.0461 17.107 21.4471 18.067C21.0221 18.748 20.3811 19.691 19.7301 20.295C19.0701 20.905 18.1331 21.419 17.4241 21.761C16.5621 22.177 15.6321 22.407 14.7271 22.553C12.8771 22.853 10.9531 22.807 9.12508 22.43C8.1824 22.236 7.22252 22.1378 6.26008 22.137H4.00008C3.80117 22.137 3.6104 22.058 3.46975 21.9173C3.3291 21.7767 3.25008 21.5859 3.25008 21.387C3.25008 21.1881 3.3291 20.9973 3.46975 20.8567C3.6104 20.716 3.80117 20.637 4.00008 20.637H6.26008C7.32208 20.637 8.39508 20.748 9.42808 20.961C11.0942 21.3029 12.8085 21.3405 14.4881 21.072C15.3161 20.938 16.0901 20.739 16.7721 20.41C17.4551 20.08 18.2231 19.646 18.7101 19.195C19.2031 18.738 19.7541 17.947 20.1751 17.273C20.3021 17.069 20.2841 16.776 19.9731 16.541C19.6031 16.261 19.0261 16.261 18.6571 16.541L16.8491 17.906C16.1291 18.451 15.2401 19.034 14.1391 19.21C14.0237 19.2283 13.9081 19.2443 13.7921 19.258C13.0914 19.3388 12.3842 19.3455 11.6821 19.278C11.5823 19.2711 11.4849 19.2443 11.3956 19.1992C11.3063 19.1541 11.2269 19.0916 11.1622 19.0153C11.0974 18.9391 11.0485 18.8507 11.0185 18.7552C10.9884 18.6598 10.9777 18.5594 10.9871 18.4598C10.9964 18.3602 11.0256 18.2634 11.0729 18.1753C11.1201 18.0871 11.1846 18.0093 11.2624 17.9464C11.3402 17.8836 11.4298 17.8369 11.5259 17.8092C11.622 17.7814 11.7227 17.7732 11.8221 17.785C12.3768 17.8389 12.9355 17.8379 13.4901 17.782L13.5201 17.779C13.6134 17.7211 13.6927 17.6432 13.7522 17.551C13.8118 17.4587 13.8501 17.3544 13.8645 17.2455C13.8788 17.1366 13.8688 17.0259 13.8352 16.9214C13.8016 16.8169 13.7452 16.7211 13.6701 16.641C13.5904 16.5533 13.4976 16.4784 13.3951 16.419C12.2141 15.714 10.6361 15.597 8.96908 15.919C7.34083 16.2466 5.79725 16.9052 4.43408 17.854C4.35371 17.911 4.2629 17.9516 4.16684 17.9735C4.07078 17.9954 3.97135 17.9982 3.87422 17.9816C3.77709 17.9651 3.68416 17.9296 3.60075 17.8772C3.51734 17.8247 3.44508 17.7564 3.38808 17.676C3.33109 17.5956 3.29048 17.5048 3.26858 17.4088C3.24668 17.3127 3.24392 17.2133 3.26045 17.1161C3.29383 16.92 3.40377 16.7451 3.56608 16.63C5.10371 15.558 6.84606 14.8148 8.68408 14.447Z" fill="currentcolor"/>
</svg>
