<svg width="24" height="24" viewBox="0 0 24 24" fill="none" xmlns="http://www.w3.org/2000/svg">
<path fill-rule="evenodd" clip-rule="evenodd" d="M10.5301 5.47001C10.6705 5.61064 10.7494 5.80126 10.7494 6.00001C10.7494 6.19876 10.6705 6.38939 10.5301 6.53001L5.81007 11.25H20.0001C20.199 11.25 20.3898 11.329 20.5304 11.4697C20.6711 11.6103 20.7501 11.8011 20.7501 12C20.7501 12.1989 20.6711 12.3897 20.5304 12.5303C20.3898 12.671 20.199 12.75 20.0001 12.75H5.81007L10.5301 17.47C10.6038 17.5387 10.6629 17.6215 10.7039 17.7135C10.7448 17.8055 10.7669 17.9048 10.7687 18.0055C10.7704 18.1062 10.7519 18.2062 10.7142 18.2996C10.6765 18.393 10.6203 18.4778 10.5491 18.549C10.4779 18.6203 10.3931 18.6764 10.2997 18.7141C10.2063 18.7519 10.1063 18.7704 10.0056 18.7686C9.90485 18.7668 9.80553 18.7448 9.71353 18.7038C9.62153 18.6628 9.53873 18.6037 9.47007 18.53L3.47007 12.53C3.32962 12.3894 3.25073 12.1988 3.25073 12C3.25073 11.8013 3.32962 11.6106 3.47007 11.47L9.47007 5.47001C9.6107 5.32956 9.80132 5.25067 10.0001 5.25067C10.1988 5.25067 10.3894 5.32956 10.5301 5.47001Z" fill="#222222"/>
</svg>
