<svg width="25" height="24" viewBox="0 0 25 24" fill="none" xmlns="http://www.w3.org/2000/svg">
<path d="M2.5 6.5C2.5 4.379 2.5 3.318 3.159 2.659C3.818 2 4.879 2 7 2C9.121 2 10.182 2 10.841 2.659C11.5 3.318 11.5 4.379 11.5 6.5C11.5 8.621 11.5 9.682 10.841 10.341C10.182 11 9.121 11 7 11C4.879 11 3.818 11 3.159 10.341C2.5 9.682 2.5 8.621 2.5 6.5ZM13.5 17.5C13.5 15.379 13.5 14.318 14.159 13.659C14.818 13 15.879 13 18 13C20.121 13 21.182 13 21.841 13.659C22.5 14.318 22.5 15.379 22.5 17.5C22.5 19.621 22.5 20.682 21.841 21.341C21.182 22 20.121 22 18 22C15.879 22 14.818 22 14.159 21.341C13.5 20.682 13.5 19.621 13.5 17.5ZM2.5 17.5C2.5 15.379 2.5 14.318 3.159 13.659C3.818 13 4.879 13 7 13C9.121 13 10.182 13 10.841 13.659C11.5 14.318 11.5 15.379 11.5 17.5C11.5 19.621 11.5 20.682 10.841 21.341C10.182 22 9.121 22 7 22C4.879 22 3.818 22 3.159 21.341C2.5 20.682 2.5 19.621 2.5 17.5ZM13.5 6.5C13.5 4.379 13.5 3.318 14.159 2.659C14.818 2 15.879 2 18 2C20.121 2 21.182 2 21.841 2.659C22.5 3.318 22.5 4.379 22.5 6.5C22.5 8.621 22.5 9.682 21.841 10.341C21.182 11 20.121 11 18 11C15.879 11 14.818 11 14.159 10.341C13.5 9.682 13.5 8.621 13.5 6.5Z" fill="#B00DF6"/>
</svg>
