<svg width="32" height="32" viewBox="0 0 32 32" fill="none" xmlns="http://www.w3.org/2000/svg">
<g id="solar:camera-outline">
<path id="Vector" fill-rule="evenodd" clip-rule="evenodd" d="M10.1307 5.98267C10.4867 4.236 12.0414 3 13.8214 3H18.1787C19.9587 3 21.5121 4.236 21.8694 5.98267C21.9088 6.175 22.0118 6.34849 22.1617 6.47522C22.3116 6.60195 22.4999 6.67455 22.6961 6.68133H22.7401C24.6107 6.764 26.0481 6.99333 27.2481 7.78133C28.0041 8.27733 28.6547 8.91467 29.1614 9.66C29.7921 10.5853 30.0694 11.6493 30.2027 12.9347C30.3334 14.192 30.3334 15.7667 30.3334 17.7613V17.8747C30.3334 19.8693 30.3334 21.4453 30.2027 22.7013C30.0694 23.9867 29.7921 25.0507 29.1614 25.9773C28.6532 26.7231 28.003 27.3615 27.2481 27.856C26.3107 28.4707 25.2347 28.7427 23.9307 28.872C22.6534 29 21.0521 29 19.0174 29H12.9827C10.9481 29 9.34675 29 8.06942 28.872C6.76541 28.7427 5.68941 28.472 4.75208 27.856C3.99702 27.3611 3.34687 26.7222 2.83875 25.976C2.20808 25.0507 1.93075 23.9867 1.79741 22.7013C1.66675 21.4453 1.66675 19.8693 1.66675 17.8747V17.7613C1.66675 15.7667 1.66675 14.192 1.79741 12.9347C1.93075 11.6493 2.20808 10.5853 2.83875 9.66C3.34687 8.91376 3.99702 8.27493 4.75208 7.78C5.95208 6.99333 7.38942 6.764 9.26008 6.68267L9.28275 6.68133H9.30408C9.50029 6.67455 9.68852 6.60195 9.83846 6.47522C9.98841 6.34849 10.0914 6.175 10.1307 5.98267ZM13.8214 5C12.9681 5 12.2521 5.59067 12.0907 6.38133C11.8307 7.66133 10.6947 8.66933 9.32808 8.68133C7.53075 8.76133 6.56808 8.98133 5.84808 9.45333C5.31325 9.8043 4.85254 10.2569 4.49208 10.7853C4.12408 11.3253 3.90275 12.0173 3.78541 13.1413C3.66808 14.2827 3.66675 15.7547 3.66675 17.8187C3.66675 19.8827 3.66675 21.3533 3.78675 22.4947C3.90275 23.6187 4.12408 24.3107 4.49341 24.852C4.85075 25.3773 5.31075 25.8307 5.84941 26.1827C6.40542 26.548 7.11742 26.768 8.26808 26.8827C9.43342 26.9987 10.9347 27 13.0374 27H18.9627C21.0641 27 22.5654 27 23.7321 26.8827C24.8827 26.768 25.5947 26.5493 26.1507 26.184C26.6894 25.8307 27.1507 25.3773 27.5081 24.8507C27.8761 24.3107 28.0974 23.6187 28.2147 22.4947C28.3321 21.3533 28.3334 19.8813 28.3334 17.8187C28.3334 15.7547 28.3334 14.2827 28.2134 13.1413C28.0974 12.0173 27.8761 11.3253 27.5067 10.7853C27.1467 10.2562 26.6859 9.80309 26.1507 9.452C25.4334 8.98133 24.4707 8.76133 22.6707 8.68133C21.3054 8.668 20.1694 7.66267 19.9094 6.38133C19.8241 5.98703 19.6053 5.63425 19.29 5.38259C18.9747 5.13092 18.5822 4.99578 18.1787 5H13.8214ZM16.0001 14.3333C15.2044 14.3333 14.4414 14.6494 13.8788 15.212C13.3162 15.7746 13.0001 16.5377 13.0001 17.3333C13.0001 18.129 13.3162 18.892 13.8788 19.4547C14.4414 20.0173 15.2044 20.3333 16.0001 20.3333C16.7957 20.3333 17.5588 20.0173 18.1214 19.4547C18.684 18.892 19.0001 18.129 19.0001 17.3333C19.0001 16.5377 18.684 15.7746 18.1214 15.212C17.5588 14.6494 16.7957 14.3333 16.0001 14.3333ZM11.0001 17.3333C11.0001 16.0073 11.5269 14.7355 12.4645 13.7978C13.4022 12.8601 14.674 12.3333 16.0001 12.3333C17.3262 12.3333 18.5979 12.8601 19.5356 13.7978C20.4733 14.7355 21.0001 16.0073 21.0001 17.3333C21.0001 18.6594 20.4733 19.9312 19.5356 20.8689C18.5979 21.8065 17.3262 22.3333 16.0001 22.3333C14.674 22.3333 13.4022 21.8065 12.4645 20.8689C11.5269 19.9312 11.0001 18.6594 11.0001 17.3333ZM23.0001 13.3333C23.0001 13.0681 23.1054 12.8138 23.293 12.6262C23.4805 12.4387 23.7349 12.3333 24.0001 12.3333H25.3334C25.5986 12.3333 25.853 12.4387 26.0405 12.6262C26.2281 12.8138 26.3334 13.0681 26.3334 13.3333C26.3334 13.5985 26.2281 13.8529 26.0405 14.0404C25.853 14.228 25.5986 14.3333 25.3334 14.3333H24.0001C23.7349 14.3333 23.4805 14.228 23.293 14.0404C23.1054 13.8529 23.0001 13.5985 23.0001 13.3333Z" fill="black"/>
</g>
</svg>
