<svg width="24" height="24" viewBox="0 0 24 24" fill="none" xmlns="http://www.w3.org/2000/svg">
<g id="solar:video-library-outline">
<g id="Group">
<path id="Vector" fill-rule="evenodd" clip-rule="evenodd" d="M9.99001 10.9101C10.2284 10.7509 10.5077 10.6642 10.7943 10.6603C11.0808 10.6564 11.3624 10.7355 11.605 10.8881L14.976 12.9781C15.514 13.3121 15.75 13.8881 15.75 14.4101C15.75 14.9331 15.514 15.5091 14.976 15.8421L11.605 17.9321C11.065 18.2661 10.448 18.2121 9.99001 17.9101C9.75922 17.755 9.5707 17.5449 9.4415 17.2987C9.3123 17.0526 9.24649 16.7781 9.25001 16.5001V12.3201C9.25001 11.7271 9.53901 11.2061 9.99001 10.9101ZM10.813 12.1641C10.794 12.1761 10.75 12.2201 10.75 12.3201V16.5001C10.75 16.6001 10.794 16.6441 10.813 16.6561L10.814 16.6571L14.186 14.5671C14.207 14.5541 14.25 14.5081 14.25 14.4101C14.25 14.3121 14.207 14.2671 14.186 14.2531L10.815 12.1631L10.813 12.1641Z" fill="#6E0699"/>
<path id="Vector_2" fill-rule="evenodd" clip-rule="evenodd" d="M8.69996 1.25C8.47996 1.25 8.30996 1.25 8.16396 1.266C7.51152 1.33589 6.90557 1.63677 6.45554 2.11431C6.00551 2.59185 5.74106 3.21456 5.70996 3.87C5.12298 4.04674 4.60747 4.40567 4.23803 4.89485C3.86858 5.38402 3.66438 5.97806 3.65496 6.591C3.05496 6.771 2.53596 7.056 2.11196 7.514C1.45996 8.219 1.25796 9.086 1.24996 10.1C1.24296 11.075 1.41696 12.307 1.63196 13.836L2.07196 16.95C2.23996 18.146 2.37696 19.118 2.58996 19.879C2.81296 20.676 3.14196 21.331 3.74996 21.835C4.35396 22.335 5.06996 22.55 5.91596 22.652C6.73496 22.75 7.76496 22.75 9.04596 22.75H14.953C16.235 22.75 17.265 22.75 18.083 22.652C18.93 22.55 19.646 22.335 20.25 21.835C20.858 21.331 21.187 20.675 21.41 19.879C21.623 19.118 21.76 18.146 21.929 16.949L22.368 13.836C22.584 12.306 22.758 11.075 22.75 10.1C22.742 9.086 22.54 8.219 21.888 7.514C21.464 7.056 20.945 6.772 20.344 6.591C20.3344 5.97836 20.1302 5.38464 19.761 4.89568C19.3918 4.40672 18.8766 4.04787 18.29 3.871C18.2591 3.21539 17.9947 2.59243 17.5447 2.11469C17.0946 1.63694 16.4886 1.33592 15.836 1.266C15.689 1.25 15.52 1.25 15.3 1.25H8.69996ZM18.81 6.328C18.7408 6.02209 18.5697 5.74878 18.3248 5.5529C18.0798 5.35702 17.7756 5.25022 17.462 5.25H6.53796C5.86896 5.25 5.32596 5.72 5.18896 6.328C6.11496 6.25 7.24896 6.25 8.61596 6.25H15.384C16.75 6.25 17.884 6.25 18.811 6.328H18.81ZM16.769 3.75C16.7159 3.49001 16.5815 3.25364 16.3852 3.07512C16.1888 2.8966 15.9408 2.78518 15.677 2.757C15.5381 2.74878 15.399 2.74644 15.26 2.75H8.73996C8.45996 2.75 8.37896 2.751 8.32296 2.757C8.05911 2.78518 7.81107 2.8966 7.61475 3.07512C7.41843 3.25364 7.28402 3.49001 7.23096 3.75H16.767H16.769ZM3.21296 8.533C3.51596 8.206 3.97096 7.989 4.85596 7.871C5.75696 7.751 6.96396 7.75 8.67196 7.75H15.328C17.036 7.75 18.243 7.752 19.144 7.871C20.029 7.989 20.484 8.206 20.787 8.533C21.083 8.853 21.244 9.288 21.25 10.112C21.256 10.962 21.1 12.082 20.874 13.688L20.451 16.688C20.273 17.949 20.149 18.821 19.966 19.475C19.789 20.105 19.582 20.44 19.293 20.679C19 20.923 18.606 21.079 17.905 21.163C17.186 21.249 16.246 21.25 14.905 21.25H9.09496C7.75296 21.25 6.81396 21.249 6.09496 21.163C5.39496 21.078 4.99996 20.923 4.70696 20.68C4.41796 20.44 4.21096 20.104 4.03396 19.475C3.85096 18.821 3.72696 17.949 3.54896 16.688L3.12596 13.688C2.89996 12.083 2.74396 10.962 2.74996 10.112C2.75596 9.288 2.91696 8.852 3.21296 8.533Z" fill="#6E0699"/>
</g>
</g>
</svg>
