<svg width="16" height="16" viewBox="0 0 16 16" fill="none" xmlns="http://www.w3.org/2000/svg">
<path fill-rule="evenodd" clip-rule="evenodd" d="M4.66659 1.16666C4.79919 1.16666 4.92637 1.21933 5.02014 1.3131C5.11391 1.40687 5.16659 1.53405 5.16659 1.66666V2.17532C5.60792 2.16666 6.09392 2.16666 6.62925 2.16666H9.37059C9.90592 2.16666 10.3919 2.16666 10.8333 2.17532V1.66666C10.8333 1.53405 10.8859 1.40687 10.9797 1.3131C11.0735 1.21933 11.2006 1.16666 11.3333 1.16666C11.4659 1.16666 11.593 1.21933 11.6868 1.3131C11.7806 1.40687 11.8333 1.53405 11.8333 1.66666V2.21799C12.0066 2.23132 12.1706 2.24799 12.3259 2.26866C13.1073 2.37399 13.7399 2.59532 14.2393 3.09399C14.7379 3.59332 14.9593 4.22599 15.0646 5.00732C15.0979 5.25732 15.1206 5.52999 15.1359 5.82732C15.1723 5.92566 15.1768 6.03298 15.1486 6.13399C15.1666 6.66799 15.1666 7.27532 15.1666 7.96266V9.37066C15.1666 10.596 15.1666 11.5667 15.0646 12.326C14.9593 13.1073 14.7379 13.74 14.2393 14.2393C13.7399 14.738 13.1073 14.9593 12.3259 15.0647C11.5659 15.1667 10.5959 15.1667 9.37059 15.1667H6.62925C5.40392 15.1667 4.43325 15.1667 3.67392 15.0647C2.89259 14.9593 2.25992 14.738 1.76059 14.2393C1.26192 13.74 1.04059 13.1073 0.935252 12.326C0.833252 11.566 0.833252 10.596 0.833252 9.37066V7.96266C0.833252 7.27532 0.833252 6.66799 0.851252 6.13332C0.823433 6.03223 0.828097 5.92495 0.864585 5.82666C0.879252 5.52999 0.901919 5.25732 0.935252 5.00732C1.04059 4.22599 1.26192 3.59332 1.76059 3.09399C2.25992 2.59532 2.89259 2.37399 3.67392 2.26866C3.82925 2.24799 3.99392 2.23132 4.16659 2.21799V1.66666C4.16659 1.53405 4.21926 1.40687 4.31303 1.3131C4.4068 1.21933 4.53398 1.16666 4.66659 1.16666ZM1.84192 6.49999C1.83325 6.93532 1.83325 7.43066 1.83325 7.99999V9.33332C1.83325 10.6047 1.83459 11.508 1.92659 12.1933C2.01659 12.8633 2.18592 13.25 2.46792 13.532C2.74992 13.814 3.13659 13.9833 3.80725 14.0733C4.49259 14.1653 5.39525 14.1667 6.66659 14.1667H9.33325C10.6046 14.1667 11.5079 14.1653 12.1933 14.0733C12.8633 13.9833 13.2499 13.814 13.5319 13.532C13.8139 13.25 13.9833 12.8633 14.0733 12.1927C14.1653 11.508 14.1666 10.6047 14.1666 9.33332V7.99999C14.1666 7.43066 14.1666 6.93532 14.1579 6.49999H1.84192ZM14.1119 5.49999H1.88792C1.89859 5.37332 1.91125 5.25399 1.92659 5.13999C2.01659 4.46999 2.18592 4.08332 2.46792 3.80132C2.74992 3.51932 3.13659 3.34999 3.80725 3.25999C4.49259 3.16799 5.39525 3.16666 6.66659 3.16666H9.33325C10.6046 3.16666 11.5079 3.16799 12.1933 3.25999C12.8633 3.34999 13.2499 3.51932 13.5319 3.80132C13.8139 4.08332 13.9833 4.46999 14.0733 5.14066C14.0886 5.25399 14.1013 5.37399 14.1119 5.49999ZM10.9999 10.5C10.8673 10.5 10.7401 10.5527 10.6464 10.6464C10.5526 10.7402 10.4999 10.8674 10.4999 11C10.4999 11.1326 10.5526 11.2598 10.6464 11.3535C10.7401 11.4473 10.8673 11.5 10.9999 11.5C11.1325 11.5 11.2597 11.4473 11.3535 11.3535C11.4472 11.2598 11.4999 11.1326 11.4999 11C11.4999 10.8674 11.4472 10.7402 11.3535 10.6464C11.2597 10.5527 11.1325 10.5 10.9999 10.5ZM9.49992 11C9.49992 10.803 9.53872 10.608 9.6141 10.426C9.68948 10.244 9.79997 10.0786 9.93926 9.93933C10.0785 9.80004 10.2439 9.68955 10.4259 9.61417C10.6079 9.53879 10.8029 9.49999 10.9999 9.49999C11.1969 9.49999 11.392 9.53879 11.5739 9.61417C11.7559 9.68955 11.9213 9.80004 12.0606 9.93933C12.1999 10.0786 12.3104 10.244 12.3857 10.426C12.4611 10.608 12.4999 10.803 12.4999 11C12.4999 11.3978 12.3419 11.7793 12.0606 12.0606C11.7793 12.342 11.3977 12.5 10.9999 12.5C10.6021 12.5 10.2206 12.342 9.93926 12.0606C9.65795 11.7793 9.49992 11.3978 9.49992 11Z" fill="currentColor"/>
</svg>
