<svg width="16" height="16" viewBox="0 0 16 16" fill="currentColor" xmlns="http://www.w3.org/2000/svg">
    <g>
        <path
            d="M7.99992 3.66666L7.63992 4.01332C7.68656 4.06172 7.74248 4.10021 7.80433 4.1265C7.86619 4.15279 7.93271 4.16634 7.99992 4.16634C8.06713 4.16634 8.13365 4.15279 8.1955 4.1265C8.25736 4.10021 8.31328 4.06172 8.35992 4.01332L7.99992 3.66666ZM6.28392 12.2147C5.27325 11.418 4.16859 10.64 3.29192 9.65332C2.43325 8.68532 1.83325 7.55599 1.83325 6.09132H0.833252C0.833252 7.86866 1.57325 9.22466 2.54459 10.3173C3.49792 11.3907 4.71392 12.2507 5.66458 13L6.28458 12.2147H6.28392ZM1.83325 6.09132C1.83325 4.65799 2.64325 3.45532 3.74925 2.94932C4.82392 2.45799 6.26792 2.58799 7.63992 4.01332L8.35992 3.32066C6.73325 1.62932 4.84259 1.34999 3.33325 2.03999C1.85725 2.71532 0.833252 4.28332 0.833252 6.09132H1.83325ZM5.66458 13C6.00658 13.2693 6.37325 13.556 6.74458 13.7733C7.11592 13.99 7.53992 14.1667 7.99992 14.1667V13.1667C7.79325 13.1667 7.55058 13.0867 7.24925 12.91C6.94725 12.734 6.63458 12.4913 6.28392 12.2147L5.66458 13ZM10.3353 13C11.2859 12.25 12.5019 11.3913 13.4553 10.3173C14.4266 9.22399 15.1666 7.86866 15.1666 6.09132H14.1666C14.1666 7.55599 13.5666 8.68532 12.7079 9.65332C11.8313 10.64 10.7266 11.418 9.71592 12.2147L10.3353 13ZM15.1666 6.09132C15.1666 4.28332 14.1433 2.71532 12.6666 2.03999C11.1573 1.34999 9.26792 1.62932 7.63992 3.31999L8.35992 4.01332C9.73192 2.58866 11.1759 2.45799 12.2506 2.94932C13.3566 3.45532 14.1666 4.65732 14.1666 6.09132H15.1666ZM9.71592 12.2147C9.36525 12.4913 9.05258 12.734 8.75059 12.91C8.44925 13.086 8.20658 13.1667 7.99992 13.1667V14.1667C8.45992 14.1667 8.88392 13.99 9.25525 13.7733C9.62725 13.556 9.99325 13.2693 10.3353 13L9.71592 12.2147Z">
            <rect width="100%" height="100%" fill="red" />
        </path>
    </g>
</svg>