<svg width="17" height="17" viewBox="0 0 17 17" fill="none" xmlns="http://www.w3.org/2000/svg">
<path d="M6.51229 8.16667C6.51229 8.34348 6.44205 8.51305 6.31703 8.63807C6.192 8.7631 6.02243 8.83333 5.84562 8.83333C5.66881 8.83333 5.49924 8.7631 5.37422 8.63807C5.24919 8.51305 5.17896 8.34348 5.17896 8.16667C5.17896 7.98986 5.24919 7.82029 5.37422 7.69526C5.49924 7.57024 5.66881 7.5 5.84562 7.5C6.02243 7.5 6.192 7.57024 6.31703 7.69526C6.44205 7.82029 6.51229 7.98986 6.51229 8.16667ZM9.17896 8.16667C9.17896 8.34348 9.10872 8.51305 8.98369 8.63807C8.85867 8.7631 8.6891 8.83333 8.51229 8.83333C8.33548 8.83333 8.16591 8.7631 8.04088 8.63807C7.91586 8.51305 7.84562 8.34348 7.84562 8.16667C7.84562 7.98986 7.91586 7.82029 8.04088 7.69526C8.16591 7.57024 8.33548 7.5 8.51229 7.5C8.6891 7.5 8.85867 7.57024 8.98369 7.69526C9.10872 7.82029 9.17896 7.98986 9.17896 8.16667ZM11.8456 8.16667C11.8456 8.34348 11.7754 8.51305 11.6504 8.63807C11.5253 8.7631 11.3558 8.83333 11.179 8.83333C11.0021 8.83333 10.8326 8.7631 10.7076 8.63807C10.5825 8.51305 10.5123 8.34348 10.5123 8.16667C10.5123 7.98986 10.5825 7.82029 10.7076 7.69526C10.8326 7.57024 11.0021 7.5 11.179 7.5C11.3558 7.5 11.5253 7.57024 11.6504 7.69526C11.7754 7.82029 11.8456 7.98986 11.8456 8.16667Z" fill="#222222"/>
<path fill-rule="evenodd" clip-rule="evenodd" d="M15.679 8.16667C15.679 4.20867 12.4704 1 8.51237 1C4.55437 1 1.3457 4.20867 1.3457 8.16667C1.3457 9.312 1.61504 10.3967 2.0937 11.358C2.16504 11.5013 2.18037 11.648 2.14704 11.7713L1.75037 13.2553C1.47837 14.2713 2.4077 15.2007 3.4237 14.9287L4.9077 14.5313C5.04738 14.4982 5.19433 14.5172 5.32104 14.5847C6.31235 15.0784 7.40492 15.3347 8.51237 15.3333C12.4704 15.3333 15.679 12.1247 15.679 8.16667ZM8.51237 2C10.1479 2 11.7164 2.6497 12.8729 3.80617C14.0293 4.96265 14.679 6.53117 14.679 8.16667C14.679 9.80217 14.0293 11.3707 12.8729 12.5272C11.7164 13.6836 10.1479 14.3333 8.51237 14.3333C7.55974 14.3348 6.61983 14.1146 5.76704 13.69C5.42224 13.5136 5.02489 13.4693 4.6497 13.5653L3.16504 13.9627C3.10287 13.9793 3.03742 13.9792 2.97529 13.9625C2.91315 13.9458 2.8565 13.913 2.81103 13.8675C2.76557 13.8219 2.73289 13.7652 2.71627 13.7031C2.69965 13.6409 2.69969 13.5755 2.71637 13.5133L3.1137 12.0293C3.20973 11.6541 3.16539 11.2568 2.98904 10.912C2.5645 10.0592 2.34425 9.1193 2.3457 8.16667C2.3457 6.53117 2.9954 4.96265 4.15188 3.80617C5.30835 2.6497 6.87687 2 8.51237 2Z" fill="#222222"/>
</svg>
