<svg width="16" height="16" viewBox="0 0 16 16" fill="none" xmlns="http://www.w3.org/2000/svg">
<g id="solar:masks-outline" clip-path="url(#clip0_13_3570)">
<g id="Group">
<path id="Vector" d="M4.00329 8.91207C4.02262 8.71474 4.17662 8.51207 4.42862 8.44407C4.68129 8.37607 4.91529 8.4754 5.03062 8.6374C5.1078 8.74526 5.22466 8.81803 5.3555 8.83973C5.48634 8.86142 5.62044 8.83025 5.72829 8.75307C5.83614 8.67589 5.90892 8.55903 5.93062 8.42819C5.95231 8.29735 5.92113 8.16326 5.84396 8.0554C5.47729 7.54207 4.80929 7.30674 4.16996 7.47807C3.52996 7.6494 3.06929 8.1874 3.00796 8.8154C3.00161 8.88076 3.0082 8.94672 3.02734 9.00953C3.04649 9.07234 3.07782 9.13076 3.11954 9.18146C3.16127 9.23216 3.21257 9.27415 3.27052 9.30502C3.32847 9.3359 3.39194 9.35505 3.45729 9.3614C3.52264 9.36775 3.58861 9.36116 3.65142 9.34202C3.71423 9.32287 3.77265 9.29154 3.82335 9.24982C3.87405 9.20809 3.91604 9.15679 3.94691 9.09884C3.97779 9.04089 3.99694 8.97742 4.00329 8.91207ZM7.86729 7.87673C7.88662 7.6794 8.04062 7.47674 8.29262 7.40874C8.54529 7.34074 8.77929 7.44007 8.89462 7.6014C8.97301 7.70585 9.08916 7.77549 9.21822 7.79542C9.34729 7.81535 9.47903 7.784 9.58528 7.70806C9.69152 7.63212 9.76384 7.51762 9.78677 7.38905C9.80969 7.26049 9.78141 7.12805 9.70796 7.02007C9.34129 6.50674 8.67329 6.2714 8.03396 6.44273C7.39396 6.61407 6.93329 7.1514 6.87196 7.78007C6.85914 7.91206 6.89928 8.04373 6.98354 8.14613C7.06781 8.24852 7.1893 8.31325 7.32129 8.32607C7.45328 8.33889 7.58496 8.29875 7.68735 8.21448C7.78974 8.13022 7.85447 8.00872 7.86729 7.87673ZM8.79996 10.8207L9.09862 10.4194C9.20411 10.4982 9.27425 10.6155 9.2938 10.7457C9.31334 10.8759 9.28072 11.0086 9.20302 11.115C9.12532 11.2213 9.00882 11.2926 8.8788 11.3136C8.74879 11.3345 8.61577 11.3033 8.50862 11.2267L8.50196 11.2227C8.4003 11.1647 8.29164 11.1199 8.17862 11.0894C7.93796 11.0241 7.55862 10.9807 7.05462 11.1161C6.55062 11.2507 6.24462 11.4781 6.06796 11.6547C5.98533 11.7377 5.91364 11.8309 5.85462 11.9321L5.85129 11.9387C5.79763 12.06 5.69798 12.155 5.57427 12.2029C5.45056 12.2507 5.31292 12.2474 5.19162 12.1937C5.07033 12.1401 4.97532 12.0404 4.9275 11.9167C4.87968 11.793 4.88296 11.6554 4.93662 11.5341L4.93729 11.5334V11.5321L4.93929 11.5294L4.94129 11.5241L4.94862 11.5087L4.96996 11.4661C4.98796 11.4321 5.01329 11.3874 5.04662 11.3354C5.11329 11.2314 5.21462 11.0954 5.35929 10.9501C5.64996 10.6574 6.10862 10.3341 6.79596 10.1501C7.48329 9.9654 8.04262 10.0167 8.44062 10.1247C8.63862 10.1781 8.79396 10.2447 8.90396 10.3021C8.96289 10.3324 9.02009 10.366 9.07529 10.4027L9.08862 10.4127L9.09462 10.4161L9.09662 10.4181L9.09862 10.4194L8.80062 10.8207H8.79996Z" fill="#717171"/>
<path id="Vector_2" fill-rule="evenodd" clip-rule="evenodd" d="M8.8347 1.50003L8.8627 1.51336C9.6407 1.87803 9.9907 2.04069 10.3527 2.15536C10.4814 2.19603 10.6107 2.23269 10.7414 2.26469C11.1094 2.35403 11.4894 2.39603 12.338 2.48736L12.368 2.49003C12.9067 2.54803 13.3547 2.59669 13.708 2.67669C14.0774 2.76136 14.4107 2.89536 14.6734 3.17203C14.8267 3.33203 14.9494 3.51936 15.0374 3.72336C15.1874 4.07003 15.188 4.43269 15.1334 4.81669C15.08 5.18603 14.9647 5.63803 14.824 6.18736L14.2534 8.41336C13.776 10.2754 12.5647 11.31 11.3487 11.8727C10.8654 12.922 10.1067 13.726 9.47936 14.2614L9.46536 14.2734C9.2987 14.416 9.13403 14.5567 8.9187 14.68C8.69536 14.8074 8.43603 14.9067 8.0727 15.0087C7.71003 15.11 7.43736 15.16 7.1807 15.166C6.93403 15.172 6.7227 15.136 6.51003 15.0994L6.49136 15.0967C4.94403 14.834 2.48336 13.954 1.7467 11.08L1.17603 8.85336C1.03603 8.30469 0.920029 7.85336 0.866695 7.48269C0.812029 7.09936 0.812695 6.73736 0.962695 6.39003C1.0507 6.18603 1.17403 5.99936 1.3267 5.83869C1.58936 5.56203 1.9227 5.42803 2.29203 5.34403C2.64536 5.26269 3.0927 5.21469 3.63203 5.15736L3.66203 5.15403C4.0087 5.11669 4.27603 5.08736 4.49736 5.06069L4.91403 3.43403C5.0547 2.88469 5.1707 2.43336 5.30203 2.08469C5.43736 1.72469 5.6127 1.40669 5.91536 1.17936C6.09203 1.04603 6.29203 0.94736 6.5047 0.886694C6.87136 0.782694 7.22736 0.842694 7.58603 0.962027C7.93003 1.07669 8.3407 1.26803 8.8347 1.50003ZM13.2847 8.16469C13.01 9.23669 12.4447 9.96536 11.776 10.4647C11.8819 9.75128 11.841 9.02378 11.656 8.32669L11.036 5.90536C11.1267 5.8702 11.205 5.80924 11.2614 5.73003C11.3767 5.56869 11.6114 5.47003 11.864 5.53736C12.116 5.60469 12.2694 5.80803 12.2887 6.00536C12.3015 6.13735 12.3662 6.25884 12.4686 6.34311C12.571 6.42737 12.7027 6.46751 12.8347 6.45469C12.9667 6.44187 13.0882 6.37715 13.1724 6.27475C13.2567 6.17236 13.2968 6.04068 13.284 5.90869C13.2234 5.28069 12.762 4.74269 12.1227 4.57136C11.8855 4.50626 11.6364 4.49743 11.3952 4.54558C11.154 4.59373 10.9274 4.69752 10.7334 4.84869C10.7219 4.81612 10.7102 4.78367 10.698 4.75136C10.5627 4.39136 10.3874 4.07336 10.0847 3.84603C9.90792 3.71306 9.70813 3.61385 9.49536 3.55336C9.1487 3.45536 8.81136 3.50336 8.47336 3.61003C8.40361 3.58041 8.33188 3.55568 8.2587 3.53603C7.6187 3.36469 6.9507 3.60003 6.58403 4.11336C6.50835 4.21883 6.47678 4.34965 6.49603 4.47803C6.12936 4.64603 5.8907 4.74469 5.64736 4.82203L5.58603 4.84203L5.87536 3.71069C6.02536 3.12603 6.1287 2.72803 6.23736 2.43736C6.3447 2.15203 6.4347 2.04003 6.51536 1.97936C6.59536 1.91936 6.6847 1.87536 6.77736 1.84869C6.86603 1.82336 6.9967 1.82003 7.2707 1.91136C7.55203 2.00469 7.90936 2.17136 8.4387 2.41936L8.47403 2.43603C9.20736 2.77936 9.6187 2.97203 10.05 3.10936C10.2 3.15603 10.352 3.19869 10.5047 3.23603C10.9447 3.34269 11.3927 3.39136 12.192 3.47736L12.2314 3.48136C12.808 3.54336 13.1967 3.58603 13.4847 3.65203C13.7634 3.71536 13.8787 3.78736 13.9487 3.86069C14.0194 3.93469 14.0774 4.02269 14.1194 4.12069C14.164 4.22336 14.1867 4.37203 14.1434 4.67403C14.0994 4.98403 13.9974 5.38269 13.848 5.96669L13.2847 8.16469ZM8.73003 4.57803C8.44803 4.67136 8.0907 4.83803 7.56136 5.08603L7.52603 5.10269C6.7927 5.44603 6.38136 5.63869 5.95003 5.77603C5.80003 5.82269 5.64803 5.86536 5.49536 5.90269C5.05536 6.00936 4.60736 6.05803 3.80803 6.14403L3.7687 6.14803C3.19203 6.21003 2.80336 6.25269 2.51536 6.31869C2.2367 6.38203 2.12136 6.45403 2.05136 6.52736C1.97958 6.60328 1.9218 6.6913 1.8807 6.78736C1.83603 6.89003 1.81336 7.03869 1.8567 7.34069C1.9007 7.65069 2.0027 8.04936 2.15203 8.63336L2.71536 10.8314C3.30336 13.1247 5.24736 13.8714 6.65936 14.1114C6.89136 14.1507 7.01403 14.17 7.1567 14.166C7.2967 14.1627 7.4807 14.136 7.80336 14.046C8.12536 13.9554 8.29803 13.8827 8.4227 13.8114C8.54936 13.7387 8.64803 13.6567 8.83003 13.5014C9.94336 12.5514 11.278 10.8774 10.688 8.57469L10.1247 6.37736C9.9747 5.79269 9.87136 5.39469 9.7627 5.10403C9.65536 4.81869 9.56536 4.70669 9.4847 4.64603C9.40616 4.5867 9.31733 4.5424 9.2227 4.51536C9.13403 4.49003 9.00336 4.48669 8.72936 4.57803H8.73003Z" fill="#717171"/>
</g>
</g>
<defs>
<clipPath id="clip0_13_3570">
<rect width="16" height="16" fill="white"/>
</clipPath>
</defs>
</svg>
