<svg width="16" height="16" viewBox="0 0 16 16" fill="none" xmlns="http://www.w3.org/2000/svg">
<g id="solar:alt-arrow-down-outline">
<path id="Vector" fill-rule="evenodd" clip-rule="evenodd" d="M2.95337 5.67462C2.99612 5.62474 3.04828 5.58377 3.10688 5.55406C3.16547 5.52435 3.22934 5.50647 3.29484 5.50146C3.36035 5.49644 3.4262 5.50439 3.48863 5.52483C3.55106 5.54528 3.60885 5.57783 3.6587 5.62062L8.00003 9.34129L12.3414 5.62062C12.4426 5.53938 12.5714 5.50067 12.7007 5.51269C12.8299 5.52471 12.9494 5.58652 13.0339 5.68504C13.1184 5.78356 13.1613 5.91108 13.1535 6.04063C13.1456 6.17019 13.0878 6.29163 12.992 6.37929L8.32537 10.3793C8.23476 10.4569 8.11936 10.4996 8.00003 10.4996C7.88071 10.4996 7.76531 10.4569 7.6747 10.3793L3.00804 6.37929C2.90749 6.29297 2.84533 6.17026 2.8352 6.03813C2.82508 5.906 2.86782 5.77526 2.95404 5.67462H2.95337Z" fill="black"/>
</g>
</svg>
