<svg width="40" height="40" viewBox="0 0 40 40" fill="none" xmlns="http://www.w3.org/2000/svg">
<g id="solar:card-bold">
<path id="Vector" fill-rule="evenodd" clip-rule="evenodd" d="M16.6668 6.66667H23.3335C29.6185 6.66667 32.7618 6.66667 34.7135 8.62001C36.1202 10.025 36.5135 12.0483 36.6235 15.4167H3.37683C3.48683 12.0483 3.88016 10.025 5.28683 8.62001C7.2385 6.66667 10.3818 6.66667 16.6668 6.66667ZM23.3335 33.3333H16.6668C10.3818 33.3333 7.2385 33.3333 5.28683 31.38C3.3335 29.4283 3.3335 26.285 3.3335 20C3.3335 19.2633 3.3335 18.57 3.33683 17.9167H36.6635C36.6668 18.57 36.6668 19.2633 36.6668 20C36.6668 26.285 36.6668 29.4283 34.7135 31.38C32.7618 33.3333 29.6185 33.3333 23.3335 33.3333ZM10.0002 25.4167C9.66864 25.4167 9.3507 25.5484 9.11628 25.7828C8.88186 26.0172 8.75016 26.3352 8.75016 26.6667C8.75016 26.9982 8.88186 27.3161 9.11628 27.5506C9.3507 27.785 9.66864 27.9167 10.0002 27.9167H16.6668C16.9984 27.9167 17.3163 27.785 17.5507 27.5506C17.7851 27.3161 17.9168 26.9982 17.9168 26.6667C17.9168 26.3352 17.7851 26.0172 17.5507 25.7828C17.3163 25.5484 16.9984 25.4167 16.6668 25.4167H10.0002ZM20.8335 25.4167C20.502 25.4167 20.184 25.5484 19.9496 25.7828C19.7152 26.0172 19.5835 26.3352 19.5835 26.6667C19.5835 26.9982 19.7152 27.3161 19.9496 27.5506C20.184 27.785 20.502 27.9167 20.8335 27.9167H23.3335C23.665 27.9167 23.983 27.785 24.2174 27.5506C24.4518 27.3161 24.5835 26.9982 24.5835 26.6667C24.5835 26.3352 24.4518 26.0172 24.2174 25.7828C23.983 25.5484 23.665 25.4167 23.3335 25.4167H20.8335Z" fill="black"/>
</g>
</svg>
