<svg width="24" height="24" viewBox="0 0 24 24" fill="none" xmlns="http://www.w3.org/2000/svg">
<path fill-rule="evenodd" clip-rule="evenodd" d="M12 1.25C12.1989 1.25 12.3897 1.32902 12.5303 1.46967C12.671 1.61032 12.75 1.80109 12.75 2V3.037L17.812 5.567C18.546 5.934 19.172 6.247 19.608 6.551C20.049 6.86 20.514 7.307 20.514 8C20.514 8.693 20.049 9.14 19.608 9.449C19.172 9.753 18.546 10.066 17.812 10.433L12.75 12.963V14.259C15.28 14.323 17.58 14.709 19.319 15.317C20.269 15.65 21.093 16.064 21.692 16.56C22.287 17.052 22.75 17.704 22.75 18.5C22.75 19.296 22.287 19.948 21.692 20.44C21.092 20.936 20.27 21.35 19.319 21.683C17.41 22.351 14.823 22.75 12 22.75C9.177 22.75 6.59 22.35 4.681 21.683C3.731 21.35 2.908 20.936 2.308 20.44C1.713 19.948 1.25 19.296 1.25 18.5C1.25 17.704 1.713 17.052 2.308 16.56C2.908 16.064 3.73 15.65 4.681 15.317C6.419 14.709 8.721 14.323 11.25 14.259V2C11.25 1.80109 11.329 1.61032 11.4697 1.46967C11.6103 1.32902 11.8011 1.25 12 1.25ZM12.75 4.714V11.286L17.087 9.118C17.89 8.716 18.415 8.452 18.749 8.218C18.8441 8.15847 18.9297 8.08498 19.003 8C18.9295 7.91526 18.8439 7.84181 18.749 7.782C18.415 7.548 17.89 7.284 17.087 6.882L12.75 4.714ZM19.02 8.031C19.02 8.031 19.017 8.026 19.016 8.018C19.021 8.027 19.02 8.031 19.02 8.031ZM19.016 7.981C19.017 7.974 19.02 7.969 19.021 7.969C19.021 7.969 19.021 7.972 19.016 7.981ZM11.25 15.76C8.855 15.824 6.727 16.19 5.177 16.733C4.317 17.033 3.677 17.374 3.264 17.715C2.847 18.061 2.75 18.329 2.75 18.5C2.75 18.67 2.847 18.94 3.264 19.285C3.676 19.625 4.318 19.966 5.177 20.267C6.887 20.866 9.3 21.25 12 21.25C14.7 21.25 17.113 20.866 18.823 20.267C19.683 19.967 20.323 19.626 20.736 19.285C21.153 18.939 21.25 18.671 21.25 18.5C21.25 18.33 21.153 18.06 20.736 17.715C20.324 17.375 19.682 17.034 18.823 16.733C17.273 16.19 15.145 15.823 12.75 15.76V18C12.75 18.1989 12.671 18.3897 12.5303 18.5303C12.3897 18.671 12.1989 18.75 12 18.75C11.8011 18.75 11.6103 18.671 11.4697 18.5303C11.329 18.3897 11.25 18.1989 11.25 18V15.76Z" fill="currentcolor"/>
</svg>
