<svg width="17" height="17" viewBox="0 0 17 17" fill="none" xmlns="http://www.w3.org/2000/svg">
<path fill-rule="evenodd" clip-rule="evenodd" d="M8.4019 1C7.03161 1 5.71745 1.54434 4.74851 2.51328C3.77958 3.48222 3.23523 4.79638 3.23523 6.16667V6.636C3.23519 7.1006 3.09764 7.55478 2.8399 7.94133L2.07523 9.09C1.1859 10.4233 1.86456 12.2353 3.41056 12.6567C3.9139 12.794 4.4219 12.91 4.93323 13.0053L4.93456 13.0087C5.44656 14.3767 6.81657 15.3333 8.4019 15.3333C9.98723 15.3333 11.3572 14.3767 11.8699 13.0087L11.8712 13.0053C12.3834 12.9101 12.8913 12.7937 13.3939 12.6567C14.9399 12.2353 15.6186 10.4233 14.7292 9.09L13.9639 7.94133C13.7062 7.55478 13.5686 7.1006 13.5686 6.636V6.16667C13.5686 4.79638 13.0242 3.48222 12.0553 2.51328C11.0863 1.54434 9.77218 1 8.4019 1ZM10.6526 13.1913C9.15722 13.37 7.64591 13.37 6.15057 13.1913C6.62457 13.872 7.44923 14.3333 8.4019 14.3333C9.35457 14.3333 10.1786 13.872 10.6526 13.1913ZM4.23523 6.16667C4.23523 5.0616 4.67422 4.00179 5.45562 3.22039C6.23702 2.43899 7.29683 2 8.4019 2C9.50697 2 10.5668 2.43899 11.3482 3.22039C12.1296 4.00179 12.5686 5.0616 12.5686 6.16667V6.636C12.5686 7.298 12.7646 7.94533 13.1319 8.496L13.8972 9.64467C14.0158 9.82227 14.0905 10.0255 14.115 10.2377C14.1396 10.4498 14.1133 10.6648 14.0384 10.8648C13.9635 11.0648 13.8422 11.2441 13.6843 11.3879C13.5264 11.5317 13.3366 11.636 13.1306 11.692C10.0344 12.5364 6.76869 12.5364 3.67256 11.692C3.46668 11.6358 3.27708 11.5315 3.11939 11.3877C2.9617 11.2439 2.84043 11.0647 2.76556 10.8648C2.6907 10.665 2.66438 10.4502 2.68878 10.2382C2.71318 10.0262 2.78759 9.82296 2.9059 9.64533L3.67256 8.496C4.03959 7.94513 4.23537 7.29795 4.23523 6.636V6.16667Z" fill="currentColor"/>
</svg>
