<svg width="25" height="24" viewBox="0 0 25 24" fill="none" xmlns="http://www.w3.org/2000/svg">
<g id="solar:buildings-outline">
<path id="Vector" fill-rule="evenodd" clip-rule="evenodd" d="M15.448 1.25H17.552C18.451 1.25 19.2 1.25 19.794 1.33C20.422 1.414 20.989 1.6 21.444 2.055C21.9 2.511 22.086 3.078 22.17 3.705C22.25 4.3 22.25 5.05 22.25 5.948V21.25H22.5C22.6989 21.25 22.8897 21.329 23.0303 21.4697C23.171 21.6103 23.25 21.8011 23.25 22C23.25 22.1989 23.171 22.3897 23.0303 22.5303C22.8897 22.671 22.6989 22.75 22.5 22.75H2.5C2.30109 22.75 2.11032 22.671 1.96967 22.5303C1.82902 22.3897 1.75 22.1989 1.75 22C1.75 21.8011 1.82902 21.6103 1.96967 21.4697C2.11032 21.329 2.30109 21.25 2.5 21.25H2.75V8.948C2.75 8.05 2.75 7.3 2.83 6.706C2.914 6.078 3.1 5.511 3.555 5.056C4.011 4.6 4.578 4.414 5.205 4.33C5.8 4.25 6.55 4.25 7.448 4.25H10.778C10.829 3.376 10.991 2.62 11.555 2.055C12.011 1.6 12.578 1.415 13.205 1.33C13.8 1.25 14.55 1.25 15.448 1.25ZM11.507 5.75H7.5C6.536 5.75 5.888 5.752 5.405 5.817C4.944 5.879 4.746 5.986 4.616 6.117C4.486 6.247 4.379 6.444 4.316 6.905C4.253 7.388 4.25 8.036 4.25 9V21.25H8.75V19C8.75 18.8011 8.82902 18.6103 8.96967 18.4697C9.11032 18.329 9.30109 18.25 9.5 18.25C9.69891 18.25 9.88968 18.329 10.0303 18.4697C10.171 18.6103 10.25 18.8011 10.25 19V21.25H14.75V9C14.75 8.036 14.748 7.388 14.684 6.905C14.621 6.444 14.514 6.246 14.384 6.116C14.254 5.986 14.056 5.879 13.594 5.816C13.113 5.752 12.467 5.75 11.507 5.75ZM16.25 21.25V8.948C16.25 8.05 16.25 7.3 16.17 6.706C16.086 6.078 15.9 5.511 15.444 5.056C14.989 4.6 14.422 4.414 13.794 4.33C13.369 4.273 12.864 4.256 12.284 4.252C12.334 3.552 12.444 3.289 12.616 3.116C12.746 2.986 12.944 2.879 13.406 2.816C13.888 2.752 14.536 2.75 15.5 2.75H17.5C18.464 2.75 19.112 2.752 19.595 2.817C20.056 2.879 20.254 2.986 20.384 3.117C20.514 3.247 20.621 3.444 20.684 3.905C20.748 4.388 20.75 5.036 20.75 6V21.25H16.25ZM5.75 8C5.75 7.80109 5.82902 7.61032 5.96967 7.46967C6.11032 7.32902 6.30109 7.25 6.5 7.25H12.5C12.6989 7.25 12.8897 7.32902 13.0303 7.46967C13.171 7.61032 13.25 7.80109 13.25 8C13.25 8.19891 13.171 8.38968 13.0303 8.53033C12.8897 8.67098 12.6989 8.75 12.5 8.75H6.5C6.30109 8.75 6.11032 8.67098 5.96967 8.53033C5.82902 8.38968 5.75 8.19891 5.75 8ZM5.75 11C5.75 10.8011 5.82902 10.6103 5.96967 10.4697C6.11032 10.329 6.30109 10.25 6.5 10.25H12.5C12.6989 10.25 12.8897 10.329 13.0303 10.4697C13.171 10.6103 13.25 10.8011 13.25 11C13.25 11.1989 13.171 11.3897 13.0303 11.5303C12.8897 11.671 12.6989 11.75 12.5 11.75H6.5C6.30109 11.75 6.11032 11.671 5.96967 11.5303C5.82902 11.3897 5.75 11.1989 5.75 11ZM5.75 14C5.75 13.8011 5.82902 13.6103 5.96967 13.4697C6.11032 13.329 6.30109 13.25 6.5 13.25H12.5C12.6989 13.25 12.8897 13.329 13.0303 13.4697C13.171 13.6103 13.25 13.8011 13.25 14C13.25 14.1989 13.171 14.3897 13.0303 14.5303C12.8897 14.671 12.6989 14.75 12.5 14.75H6.5C6.30109 14.75 6.11032 14.671 5.96967 14.5303C5.82902 14.3897 5.75 14.1989 5.75 14Z" fill="currentColor"/>
</g>
</svg>
