<svg width="16" height="16" viewBox="0 0 16 16" fill="none" xmlns="http://www.w3.org/2000/svg">
<path fill-rule="evenodd" clip-rule="evenodd" d="M12.0961 2.42C11.3161 2.55933 10.2641 2.90867 8.78873 3.4L5.44673 4.51333C4.26006 4.90933 3.40073 5.19667 2.79339 5.45467C2.15873 5.72467 1.93339 5.91267 1.86006 6.03867C1.74905 6.22958 1.69057 6.44649 1.69057 6.66733C1.69057 6.88818 1.74905 7.10508 1.86006 7.296C1.93339 7.422 2.15873 7.61 2.79339 7.88C3.40073 8.138 4.26006 8.42533 5.44673 8.82067L5.50273 8.83933C5.75606 8.92333 5.96473 8.99267 6.14739 9.08867L9.69606 5.57867C9.79269 5.48319 9.92329 5.43001 10.0591 5.43082C10.195 5.43163 10.3249 5.48637 10.4204 5.583C10.5159 5.67963 10.5691 5.81023 10.5682 5.94606C10.5674 6.0819 10.5127 6.21186 10.4161 6.30733L6.88273 9.80133C6.99339 9.996 7.06806 10.22 7.16006 10.4967L7.17873 10.5527C7.57406 11.7393 7.86139 12.5987 8.11873 13.206C8.38939 13.8407 8.57739 14.066 8.70339 14.1393C8.89431 14.2503 9.11122 14.3088 9.33206 14.3088C9.55291 14.3088 9.76981 14.2503 9.96073 14.1393C10.0867 14.066 10.2747 13.8407 10.5447 13.206C10.8027 12.5987 11.0901 11.7393 11.4854 10.5527L12.5987 7.21133C13.0907 5.736 13.4401 4.68467 13.5787 3.90467C13.7187 3.12067 13.6121 2.78733 13.4121 2.58733C13.2121 2.38733 12.8787 2.28067 12.0954 2.42067L12.0961 2.42ZM11.9161 1.412C12.7847 1.25733 13.5667 1.29267 14.1367 1.86333C14.7074 2.43333 14.7427 3.21533 14.5881 4.08333C14.4347 4.94667 14.0601 6.07 13.5861 7.49133L12.4494 10.9013C12.0641 12.058 11.7647 12.9567 11.4881 13.6067C11.2214 14.2333 10.9254 14.764 10.4761 15.0253C10.1288 15.2272 9.73437 15.3336 9.33273 15.3336C8.93109 15.3336 8.53661 15.2272 8.18939 15.0253C7.74006 14.764 7.44406 14.2333 7.17739 13.6067C6.90073 12.9567 6.60139 12.058 6.21539 10.9013L6.20739 10.876C6.07206 10.4713 6.03139 10.3613 5.97273 10.274C5.90741 10.1765 5.82361 10.0927 5.72606 10.0273C5.63939 9.96867 5.52873 9.92733 5.12339 9.79267L5.09873 9.78467C3.94206 9.39867 3.04339 9.09933 2.39339 8.82267C1.76673 8.556 1.23606 8.26 0.974728 7.81067C0.772849 7.46345 0.666504 7.06897 0.666504 6.66733C0.666504 6.26569 0.772849 5.87122 0.974728 5.524C1.23606 5.07467 1.76673 4.77867 2.39339 4.512C3.04339 4.23533 3.94206 3.936 5.09939 3.55067L8.50873 2.414C9.93073 1.94 11.0527 1.56533 11.9161 1.412Z" fill="black"/>
</svg>
