<svg width="16" height="16" viewBox="0 0 16 16" fill="none" xmlns="http://www.w3.org/2000/svg">
<g id="solar:medal-ribbons-star-bold">
<g id="Group">
<path id="Vector" fill-rule="evenodd" clip-rule="evenodd" d="M7.99992 10.6667C9.2376 10.6667 10.4246 10.175 11.2997 9.29987C12.1749 8.4247 12.6666 7.23772 12.6666 6.00004C12.6666 4.76236 12.1749 3.57538 11.2997 2.70021C10.4246 1.82504 9.2376 1.33337 7.99992 1.33337C6.76224 1.33337 5.57526 1.82504 4.70009 2.70021C3.82492 3.57538 3.33325 4.76236 3.33325 6.00004C3.33325 7.23772 3.82492 8.4247 4.70009 9.29987C5.57526 10.175 6.76224 10.6667 7.99992 10.6667ZM7.99992 4.00004C7.81059 4.00004 7.68392 4.22671 7.43058 4.68204L7.36525 4.79937C7.29325 4.92871 7.25725 4.99271 7.20125 5.03537C7.14459 5.07804 7.07459 5.09404 6.93459 5.12537L6.80792 5.15471C6.31592 5.26604 6.06992 5.32137 6.01125 5.50937C5.95259 5.69804 6.12059 5.89404 6.45592 6.28604L6.54259 6.38737C6.63792 6.49871 6.68592 6.55404 6.70725 6.62337C6.72859 6.69271 6.72125 6.76671 6.70725 6.91537L6.69392 7.05071C6.64325 7.57404 6.61792 7.83604 6.77059 7.95204C6.92392 8.06804 7.15459 7.96204 7.61525 7.75004L7.73392 7.69537C7.86525 7.63537 7.93058 7.60537 7.99992 7.60537C8.06925 7.60537 8.13458 7.63537 8.26592 7.69537L8.38458 7.75004C8.84525 7.96271 9.07592 8.06804 9.22925 7.95204C9.38259 7.83604 9.35658 7.57404 9.30592 7.05071L9.29258 6.91537C9.27858 6.76671 9.27125 6.69271 9.29258 6.62337C9.31392 6.55471 9.36192 6.49871 9.45725 6.38737L9.54392 6.28604C9.87925 5.89404 10.0473 5.69804 9.98858 5.50937C9.92992 5.32137 9.68392 5.26604 9.19192 5.15471L9.06525 5.12537C8.92525 5.09404 8.85525 5.07871 8.79858 5.03537C8.74258 4.99271 8.70658 4.92871 8.63458 4.79937L8.56925 4.68204C8.31592 4.22671 8.18925 4.00004 7.99992 4.00004Z" fill="#FF8A00"/>
<path id="Vector_2" d="M2.99656 8.66339L1.99456 9.70005C1.63456 10.0734 1.45456 10.2594 1.39189 10.4174C1.24989 10.7774 1.37189 11.1761 1.68056 11.3654C1.81656 11.4481 2.06056 11.4741 2.55056 11.5254C2.82656 11.5547 2.96523 11.5694 3.08056 11.6141C3.33989 11.7134 3.54056 11.9221 3.63723 12.1901C3.67989 12.3101 3.69389 12.4527 3.72189 12.7387C3.77189 13.2454 3.79723 13.4987 3.87723 13.6394C4.05989 13.9594 4.44589 14.0854 4.79323 13.9381C4.94523 13.8741 5.12523 13.6874 5.48589 13.3147L7.14056 11.6014C6.26892 11.4674 5.44052 11.1321 4.72116 10.6219C4.0018 10.1118 3.4113 9.44165 2.99656 8.66339ZM8.85989 11.6021L10.5146 13.3154C10.8746 13.6887 11.0546 13.8747 11.2066 13.9394C11.5539 14.0861 11.9399 13.9601 12.1226 13.6401C12.2026 13.5001 12.2272 13.2467 12.2772 12.7401C12.3059 12.4534 12.3199 12.3107 12.3626 12.1907C12.4586 11.9227 12.6599 11.7141 12.9192 11.6147C13.0346 11.5701 13.1726 11.5561 13.4492 11.5267C13.9386 11.4747 14.1832 11.4487 14.3192 11.3661C14.6279 11.1767 14.7499 10.7774 14.6079 10.4181C14.5452 10.2601 14.3652 10.0734 14.0052 9.70072L13.0032 8.66339C12.5885 9.44165 11.998 10.1125 11.2786 10.6226C10.5593 11.1327 9.73087 11.4681 8.85923 11.6021H8.85989Z" fill="#FF8A00"/>
</g>
</g>
</svg>
