<svg width="16" height="16" viewBox="0 0 16 16" fill="none" xmlns="http://www.w3.org/2000/svg">
<g id="solar:star-bold">
<path id="Vector" d="M6.10195 3.60537C6.94662 2.09071 7.36862 1.33337 7.99995 1.33337C8.63129 1.33337 9.05329 2.09071 9.89795 3.60537L10.1166 3.99737C10.3566 4.42804 10.4766 4.64337 10.6633 4.78537C10.85 4.92737 11.0833 4.98004 11.55 5.08537L11.974 5.18137C13.614 5.55271 14.4333 5.73804 14.6286 6.36537C14.8233 6.99204 14.2646 7.64604 13.1466 8.95337L12.8573 9.29137C12.54 9.66271 12.3806 9.84871 12.3093 10.078C12.238 10.308 12.262 10.556 12.31 11.0514L12.354 11.5027C12.5226 13.2474 12.6073 14.1194 12.0966 14.5067C11.586 14.8947 10.818 14.5407 9.28329 13.834L8.88529 13.6514C8.44929 13.45 8.23129 13.35 7.99995 13.35C7.76862 13.35 7.55062 13.45 7.11395 13.6514L6.71729 13.834C5.18195 14.5407 4.41395 14.894 3.90395 14.5074C3.39262 14.1194 3.47729 13.2474 3.64595 11.5027L3.68995 11.052C3.73795 10.556 3.76195 10.308 3.68995 10.0787C3.61929 9.84871 3.45995 9.66271 3.14262 9.29204L2.85329 8.95337C1.73529 7.64671 1.17662 6.99271 1.37129 6.36537C1.56662 5.73804 2.38662 5.55204 4.02662 5.18137L4.45062 5.08537C4.91662 4.98004 5.14929 4.92737 5.33662 4.78537C5.52329 4.64337 5.64329 4.42804 5.88329 3.99737L6.10195 3.60537Z" fill="currentColor"/>
</g>
</svg>
