<svg width="16" height="16" viewBox="0 0 16 16" fill="none" xmlns="http://www.w3.org/2000/svg">
<g id="solar:calendar-mark-bold">
<g id="Group">
<path id="Vector" d="M5.16665 1.66663C5.16665 1.53402 5.11397 1.40684 5.02021 1.31307C4.92644 1.2193 4.79926 1.16663 4.66665 1.16663C4.53404 1.16663 4.40687 1.2193 4.3131 1.31307C4.21933 1.40684 4.16665 1.53402 4.16665 1.66663V2.71996C3.20665 2.79663 2.57732 2.98463 2.11465 3.44796C1.65132 3.91063 1.46332 4.54063 1.38599 5.49996H14.614C14.5367 4.53996 14.3487 3.91063 13.8853 3.44796C13.4227 2.98463 12.7927 2.79663 11.8333 2.71929V1.66663C11.8333 1.53402 11.7806 1.40684 11.6869 1.31307C11.5931 1.2193 11.4659 1.16663 11.3333 1.16663C11.2007 1.16663 11.0735 1.2193 10.9798 1.31307C10.886 1.40684 10.8333 1.53402 10.8333 1.66663V2.67529C10.39 2.66663 9.89265 2.66663 9.33332 2.66663H6.66665C6.10732 2.66663 5.60999 2.66663 5.16665 2.67529V1.66663Z" fill="#666666"/>
<path id="Vector_2" fill-rule="evenodd" clip-rule="evenodd" d="M14.6666 8V9.33333C14.6666 11.8473 14.6666 13.1047 13.8853 13.8853C13.1046 14.6667 11.8473 14.6667 9.33331 14.6667H6.66665C4.15265 14.6667 2.89531 14.6667 2.11465 13.8853C1.33331 13.1047 1.33331 11.8473 1.33331 9.33333V8C1.33331 7.44067 1.33331 6.94333 1.34198 6.5H14.658C14.6666 6.94333 14.6666 7.44067 14.6666 8ZM11 12C11.2652 12 11.5195 11.8946 11.7071 11.7071C11.8946 11.5196 12 11.2652 12 11C12 10.7348 11.8946 10.4804 11.7071 10.2929C11.5195 10.1054 11.2652 10 11 10C10.7348 10 10.4804 10.1054 10.2929 10.2929C10.1053 10.4804 9.99998 10.7348 9.99998 11C9.99998 11.2652 10.1053 11.5196 10.2929 11.7071C10.4804 11.8946 10.7348 12 11 12Z" fill="#666666"/>
</g>
</g>
</svg>
