<svg width="16" height="16" viewBox="0 0 16 16" fill="none" xmlns="http://www.w3.org/2000/svg">
<g id="solar:calendar-minimalistic-outline">
<path id="Vector" fill-rule="evenodd" clip-rule="evenodd" d="M4.66659 1.16669C4.79919 1.16669 4.92637 1.21937 5.02014 1.31313C5.11391 1.4069 5.16659 1.53408 5.16659 1.66669V2.17535C5.60792 2.16669 6.09392 2.16669 6.62925 2.16669H9.37059C9.90592 2.16669 10.3919 2.16669 10.8333 2.17535V1.66669C10.8333 1.53408 10.8859 1.4069 10.9797 1.31313C11.0735 1.21937 11.2006 1.16669 11.3333 1.16669C11.4659 1.16669 11.593 1.21937 11.6868 1.31313C11.7806 1.4069 11.8333 1.53408 11.8333 1.66669V2.21802C12.0066 2.23135 12.1706 2.24802 12.3259 2.26869C13.1073 2.37402 13.7399 2.59535 14.2393 3.09402C14.7379 3.59335 14.9593 4.22602 15.0646 5.00735C15.0979 5.25735 15.1206 5.53002 15.1359 5.82735C15.1723 5.92569 15.1768 6.03301 15.1486 6.13402C15.1666 6.66802 15.1666 7.27535 15.1666 7.96269V9.37069C15.1666 10.596 15.1666 11.5667 15.0646 12.326C14.9593 13.1074 14.7379 13.74 14.2393 14.2394C13.7399 14.738 13.1073 14.9594 12.3259 15.0647C11.5659 15.1667 10.5959 15.1667 9.37059 15.1667H6.62925C5.40392 15.1667 4.43325 15.1667 3.67392 15.0647C2.89259 14.9594 2.25992 14.738 1.76059 14.2394C1.26192 13.74 1.04059 13.1074 0.935252 12.326C0.833252 11.566 0.833252 10.596 0.833252 9.37069V7.96269C0.833252 7.27535 0.833252 6.66802 0.851252 6.13335C0.823433 6.03226 0.828097 5.92498 0.864585 5.82669C0.879252 5.53002 0.901919 5.25735 0.935252 5.00735C1.04059 4.22602 1.26192 3.59335 1.76059 3.09402C2.25992 2.59535 2.89259 2.37402 3.67392 2.26869C3.82925 2.24802 3.99392 2.23135 4.16659 2.21802V1.66669C4.16659 1.53408 4.21926 1.4069 4.31303 1.31313C4.4068 1.21937 4.53398 1.16669 4.66659 1.16669ZM1.84192 6.50002C1.83325 6.93535 1.83325 7.43069 1.83325 8.00002V9.33335C1.83325 10.6047 1.83459 11.508 1.92659 12.1934C2.01659 12.8634 2.18592 13.25 2.46792 13.532C2.74992 13.814 3.13659 13.9834 3.80725 14.0734C4.49259 14.1654 5.39525 14.1667 6.66659 14.1667H9.33325C10.6046 14.1667 11.5079 14.1654 12.1933 14.0734C12.8633 13.9834 13.2499 13.814 13.5319 13.532C13.8139 13.25 13.9833 12.8634 14.0733 12.1927C14.1653 11.508 14.1666 10.6047 14.1666 9.33335V8.00002C14.1666 7.43069 14.1666 6.93535 14.1579 6.50002H1.84192ZM14.1119 5.50002H1.88792C1.89859 5.37335 1.91125 5.25402 1.92659 5.14002C2.01659 4.47002 2.18592 4.08335 2.46792 3.80135C2.74992 3.51935 3.13659 3.35002 3.80725 3.26002C4.49259 3.16802 5.39525 3.16669 6.66659 3.16669H9.33325C10.6046 3.16669 11.5079 3.16802 12.1933 3.26002C12.8633 3.35002 13.2499 3.51935 13.5319 3.80135C13.8139 4.08335 13.9833 4.47002 14.0733 5.14069C14.0886 5.25402 14.1013 5.37402 14.1119 5.50002Z" fill="#717171"/>
</g>
</svg>
