<svg width="20" height="20" viewBox="0 0 20 20" fill="none" xmlns="http://www.w3.org/2000/svg">
<g id="solar:course-up-outline">
<path id="Vector" fill-rule="evenodd" clip-rule="evenodd" d="M13.057 5.83325C13.057 5.66749 13.1229 5.50852 13.2401 5.39131C13.3573 5.2741 13.5163 5.20825 13.682 5.20825H18.3337C18.4994 5.20825 18.6584 5.2741 18.7756 5.39131C18.8928 5.50852 18.9587 5.66749 18.9587 5.83325V10.4549C18.9587 10.6207 18.8928 10.7797 18.7756 10.8969C18.6584 11.0141 18.4994 11.0799 18.3337 11.0799C18.1679 11.0799 18.009 11.0141 17.8917 10.8969C17.7745 10.7797 17.7087 10.6207 17.7087 10.4549V7.33575L12.5954 12.4166C12.2045 12.8049 11.8679 13.1399 11.562 13.3724C11.2337 13.6208 10.8704 13.8091 10.4212 13.8091C9.97285 13.8091 9.60869 13.6208 9.28035 13.3716C8.97452 13.1399 8.63869 12.8049 8.24702 12.4166L8.01869 12.1891C7.59035 11.7633 7.31285 11.4891 7.08119 11.3133C6.86452 11.1483 6.76285 11.1299 6.69535 11.1299C6.62869 11.1299 6.52702 11.1491 6.31035 11.3133C6.07952 11.4891 5.80202 11.7633 5.37369 12.1899L2.10785 15.4416C1.98917 15.5518 1.83235 15.6116 1.67043 15.6084C1.50851 15.6053 1.35414 15.5394 1.23984 15.4247C1.12554 15.3099 1.06024 15.1553 1.05769 14.9934C1.05515 14.8314 1.11555 14.6749 1.22619 14.5566L4.52035 11.2749C4.91202 10.8866 5.24785 10.5508 5.55369 10.3183C5.88202 10.0683 6.24619 9.88075 6.69535 9.87992C7.14452 9.87992 7.50869 10.0683 7.83702 10.3174C8.14285 10.5499 8.47952 10.8849 8.87035 11.2741L9.09952 11.5008C9.52785 11.9266 9.80535 12.2008 10.0362 12.3758C10.2529 12.5408 10.3545 12.5591 10.4212 12.5591C10.4879 12.5591 10.5895 12.5408 10.8062 12.3758C11.0379 12.2008 11.3145 11.9266 11.7437 11.5008L16.8187 6.45742H13.682C13.5163 6.45742 13.3573 6.39157 13.2401 6.27436C13.1229 6.15715 13.057 5.99901 13.057 5.83325Z" fill="#337B06"/>
</g>
</svg>
