<svg width="16" height="16" viewBox="0 0 16 16" fill="none" xmlns="http://www.w3.org/2000/svg">
<g id="solar:ticker-star-bold">
<path id="Vector" fill-rule="evenodd" clip-rule="evenodd" d="M6.66402 2.66675H9.33602C11.8547 2.66675 13.114 2.66675 13.896 3.44808C14.4827 4.03275 14.6294 4.88408 14.6667 6.32942C14.6714 6.51475 14.5194 6.66275 14.34 6.71008C14.0546 6.78464 13.8019 6.95168 13.6215 7.18507C13.441 7.41847 13.343 7.70507 13.3427 8.00008C13.3427 8.61941 13.7654 9.14008 14.3387 9.29008C14.5187 9.33675 14.6707 9.48475 14.6654 9.67008C14.6287 11.1167 14.4814 11.9674 13.896 12.5521C13.1134 13.3334 11.8547 13.3334 9.33602 13.3334H6.66402C4.14536 13.3334 2.88602 13.3334 2.10402 12.5521C1.51736 11.9674 1.37069 11.1161 1.33336 9.67075C1.32869 9.48475 1.48069 9.33742 1.66002 9.29008C1.94551 9.21562 2.19827 9.04862 2.37873 8.8152C2.55919 8.58178 2.65718 8.29512 2.65736 8.00008C2.65736 7.38075 2.23469 6.86008 1.66136 6.71008C1.48136 6.66341 1.32936 6.51475 1.33469 6.33008C1.37136 4.88341 1.51869 4.03275 2.10402 3.44808C2.88669 2.66675 4.14536 2.66675 6.66402 2.66675ZM8.63602 6.79942L8.57069 6.68208C8.31669 6.22675 8.19002 6.00008 8.00002 6.00008C7.81002 6.00008 7.68336 6.22675 7.42936 6.68208L7.36402 6.79942C7.29202 6.92875 7.25602 6.99275 7.19936 7.03542C7.14336 7.07808 7.07269 7.09408 6.93269 7.12541L6.80602 7.15475C6.31269 7.26608 6.06602 7.32141 6.00802 7.50941C5.94936 7.69808 6.11736 7.89408 6.45336 8.28608L6.54002 8.38741C6.63536 8.49875 6.68336 8.55408 6.70469 8.62341C6.72602 8.69275 6.71936 8.76675 6.70469 8.91541L6.69136 9.05075C6.64069 9.57408 6.61536 9.83608 6.76869 9.95208C6.92202 10.0681 7.15269 9.96208 7.61469 9.75008L7.73402 9.69542C7.86469 9.63542 7.93069 9.60541 8.00002 9.60541C8.06936 9.60541 8.13536 9.63542 8.26669 9.69542L8.38536 9.75008C8.84736 9.96275 9.07802 10.0681 9.23136 9.95208C9.38469 9.83608 9.35936 9.57408 9.30869 9.05075L9.29536 8.91541C9.28069 8.76675 9.27402 8.69275 9.29536 8.62341C9.31669 8.55475 9.36469 8.49875 9.46002 8.38741L9.54669 8.28608C9.88269 7.89408 10.0507 7.69808 9.99202 7.50941C9.93336 7.32141 9.68736 7.26608 9.19402 7.15475L9.06736 7.12541C8.92736 7.09408 8.85669 7.07875 8.80069 7.03542C8.74402 6.99275 8.70802 6.92875 8.63602 6.79942Z" fill="#666666"/>
</g>
</svg>
