<svg width="16" height="16" viewBox="0 0 16 16" fill="none" xmlns="http://www.w3.org/2000/svg">
<g id="solar:tuning-4-outline">
<g id="Group">
<path id="Vector" fill-rule="evenodd" clip-rule="evenodd" d="M11.1666 2.66659C11.1666 3.15282 10.9734 3.61913 10.6296 3.96295C10.2858 4.30676 9.81948 4.49992 9.33325 4.49992C8.84702 4.49992 8.38071 4.30676 8.03689 3.96295C7.69307 3.61913 7.49992 3.15282 7.49992 2.66659C7.49992 2.18036 7.69307 1.71404 8.03689 1.37022C8.38071 1.02641 8.84702 0.833252 9.33325 0.833252C9.81948 0.833252 10.2858 1.02641 10.6296 1.37022C10.9734 1.71404 11.1666 2.18036 11.1666 2.66659ZM9.33325 3.49992C9.55427 3.49992 9.76623 3.41212 9.92251 3.25584C10.0788 3.09956 10.1666 2.8876 10.1666 2.66659C10.1666 2.44557 10.0788 2.23361 9.92251 2.07733C9.76623 1.92105 9.55427 1.83325 9.33325 1.83325C9.11224 1.83325 8.90028 1.92105 8.744 2.07733C8.58772 2.23361 8.49992 2.44557 8.49992 2.66659C8.49992 2.8876 8.58772 3.09956 8.744 3.25584C8.90028 3.41212 9.11224 3.49992 9.33325 3.49992ZM7.99992 9.83325C7.51369 9.83325 7.04737 9.6401 6.70356 9.29628C6.35974 8.95247 6.16659 8.48615 6.16659 7.99992C6.16659 7.51369 6.35974 7.04737 6.70356 6.70356C7.04737 6.35974 7.51369 6.16659 7.99992 6.16659C8.48615 6.16659 8.95246 6.35974 9.29628 6.70356C9.6401 7.04737 9.83325 7.51369 9.83325 7.99992C9.83325 8.48615 9.6401 8.95247 9.29628 9.29628C8.95246 9.6401 8.48615 9.83325 7.99992 9.83325ZM7.16659 7.99992C7.16659 8.22093 7.25438 8.43289 7.41066 8.58917C7.56694 8.74545 7.7789 8.83325 7.99992 8.83325C8.22093 8.83325 8.43289 8.74545 8.58917 8.58917C8.74545 8.43289 8.83325 8.22093 8.83325 7.99992C8.83325 7.7789 8.74545 7.56694 8.58917 7.41066C8.43289 7.25438 8.22093 7.16659 7.99992 7.16659C7.7789 7.16659 7.56694 7.25438 7.41066 7.41066C7.25438 7.56694 7.16659 7.7789 7.16659 7.99992ZM6.66659 15.1666C6.18036 15.1666 5.71404 14.9734 5.37022 14.6296C5.02641 14.2858 4.83325 13.8195 4.83325 13.3333C4.83325 12.847 5.02641 12.3807 5.37022 12.0369C5.71404 11.6931 6.18036 11.4999 6.66659 11.4999C7.15282 11.4999 7.61913 11.6931 7.96295 12.0369C8.30676 12.3807 8.49992 12.847 8.49992 13.3333C8.49992 13.8195 8.30676 14.2858 7.96295 14.6296C7.61913 14.9734 7.15282 15.1666 6.66659 15.1666ZM5.83325 13.3333C5.83325 13.5543 5.92105 13.7662 6.07733 13.9225C6.23361 14.0788 6.44557 14.1666 6.66659 14.1666C6.8876 14.1666 7.09956 14.0788 7.25584 13.9225C7.41212 13.7662 7.49992 13.5543 7.49992 13.3333C7.49992 13.1122 7.41212 12.9003 7.25584 12.744C7.09956 12.5877 6.8876 12.4999 6.66659 12.4999C6.44557 12.4999 6.23361 12.5877 6.07733 12.744C5.92105 12.9003 5.83325 13.1122 5.83325 13.3333Z" fill="black"/>
<path id="Vector_2" d="M10.1666 7.99984C10.1666 7.86723 10.2193 7.74005 10.313 7.64628C10.4068 7.55252 10.534 7.49984 10.6666 7.49984H12.6666C12.7992 7.49984 12.9264 7.55252 13.0201 7.64628C13.1139 7.74005 13.1666 7.86723 13.1666 7.99984C13.1666 8.13245 13.1139 8.25962 13.0201 8.35339C12.9264 8.44716 12.7992 8.49984 12.6666 8.49984H10.6666C10.534 8.49984 10.4068 8.44716 10.313 8.35339C10.2193 8.25962 10.1666 8.13245 10.1666 7.99984ZM9.33325 12.8332C9.20064 12.8332 9.07347 12.8858 8.9797 12.9796C8.88593 13.0734 8.83325 13.2006 8.83325 13.3332C8.83325 13.4658 8.88593 13.593 8.9797 13.6867C9.07347 13.7805 9.20064 13.8332 9.33325 13.8332H12.6666C12.7992 13.8332 12.9264 13.7805 13.0201 13.6867C13.1139 13.593 13.1666 13.4658 13.1666 13.3332C13.1666 13.2006 13.1139 13.0734 13.0201 12.9796C12.9264 12.8858 12.7992 12.8332 12.6666 12.8332H9.33325ZM7.16659 2.6665C7.16659 2.5339 7.11391 2.40672 7.02014 2.31295C6.92637 2.21918 6.79919 2.1665 6.66659 2.1665H3.33325C3.20064 2.1665 3.07347 2.21918 2.9797 2.31295C2.88593 2.40672 2.83325 2.5339 2.83325 2.6665C2.83325 2.79911 2.88593 2.92629 2.9797 3.02006C3.07347 3.11383 3.20064 3.1665 3.33325 3.1665H6.66659C6.79919 3.1665 6.92637 3.11383 7.02014 3.02006C7.11391 2.92629 7.16659 2.79911 7.16659 2.6665ZM3.33325 7.49984C3.20064 7.49984 3.07347 7.55252 2.9797 7.64628C2.88593 7.74005 2.83325 7.86723 2.83325 7.99984C2.83325 8.13245 2.88593 8.25962 2.9797 8.35339C3.07347 8.44716 3.20064 8.49984 3.33325 8.49984H5.33325C5.46586 8.49984 5.59304 8.44716 5.68681 8.35339C5.78057 8.25962 5.83325 8.13245 5.83325 7.99984C5.83325 7.86723 5.78057 7.74005 5.68681 7.64628C5.59304 7.55252 5.46586 7.49984 5.33325 7.49984H3.33325ZM2.83325 13.3332C2.83325 13.2006 2.88593 13.0734 2.9797 12.9796C3.07347 12.8858 3.20064 12.8332 3.33325 12.8332H3.99992C4.13253 12.8332 4.2597 12.8858 4.35347 12.9796C4.44724 13.0734 4.49992 13.2006 4.49992 13.3332C4.49992 13.4658 4.44724 13.593 4.35347 13.6867C4.2597 13.7805 4.13253 13.8332 3.99992 13.8332H3.33325C3.20064 13.8332 3.07347 13.7805 2.9797 13.6867C2.88593 13.593 2.83325 13.4658 2.83325 13.3332ZM12.6666 2.1665C12.7992 2.1665 12.9264 2.21918 13.0201 2.31295C13.1139 2.40672 13.1666 2.5339 13.1666 2.6665C13.1666 2.79911 13.1139 2.92629 13.0201 3.02006C12.9264 3.11383 12.7992 3.1665 12.6666 3.1665H11.9999C11.8673 3.1665 11.7401 3.11383 11.6464 3.02006C11.5526 2.92629 11.4999 2.79911 11.4999 2.6665C11.4999 2.5339 11.5526 2.40672 11.6464 2.31295C11.7401 2.21918 11.8673 2.1665 11.9999 2.1665H12.6666Z" fill="black"/>
</g>
</g>
</svg>
