<svg width="16" height="17" viewBox="0 0 16 17" fill="none" xmlns="http://www.w3.org/2000/svg">
<g id="solar:minimalistic-magnifer-outline">
<path id="Vector" fill-rule="evenodd" clip-rule="evenodd" d="M7.66671 2.33331C6.90066 2.33331 6.14212 2.4842 5.43439 2.77735C4.72665 3.0705 4.08359 3.50018 3.54192 4.04186C3.00024 4.58353 2.57056 5.22659 2.27741 5.93433C1.98426 6.64206 1.83337 7.4006 1.83337 8.16665C1.83337 8.93269 1.98426 9.69123 2.27741 10.399C2.57056 11.1067 3.00024 11.7498 3.54192 12.2914C4.08359 12.8331 4.72665 13.2628 5.43439 13.5559C6.14212 13.8491 6.90066 14 7.66671 14C9.2138 14 10.6975 13.3854 11.7915 12.2914C12.8855 11.1975 13.5 9.71374 13.5 8.16665C13.5 6.61955 12.8855 5.13582 11.7915 4.04186C10.6975 2.94789 9.2138 2.33331 7.66671 2.33331ZM0.833374 8.16665C0.833374 4.39331 3.89337 1.33331 7.66671 1.33331C11.44 1.33331 14.5 4.39331 14.5 8.16665C14.5 11.94 11.44 15 7.66671 15C3.89337 15 0.833374 11.94 0.833374 8.16665ZM12.98 13.48C13.0738 13.3863 13.2009 13.3338 13.3334 13.3338C13.4659 13.3338 13.593 13.3863 13.6867 13.48L15.02 14.8133C15.0692 14.8591 15.1086 14.9143 15.1359 14.9756C15.1632 15.037 15.1779 15.1032 15.1791 15.1703C15.1803 15.2374 15.1679 15.3041 15.1428 15.3664C15.1176 15.4286 15.0802 15.4852 15.0327 15.5327C14.9853 15.5802 14.9287 15.6176 14.8664 15.6427C14.8042 15.6679 14.7375 15.6802 14.6704 15.679C14.6032 15.6779 14.537 15.6632 14.4757 15.6358C14.4143 15.6085 14.3591 15.5691 14.3134 15.52L12.98 14.1866C12.8864 14.0929 12.8338 13.9658 12.8338 13.8333C12.8338 13.7008 12.8864 13.5737 12.98 13.48Z" fill="#BFBEBF"/>
</g>
</svg>
