<svg width="25" height="24" viewBox="0 0 25 24" fill="none" xmlns="http://www.w3.org/2000/svg">
<path fill-rule="evenodd" clip-rule="evenodd" d="M6.948 1.75C6.05 1.75 5.3 1.75 4.706 1.83C4.078 1.914 3.511 2.1 3.056 2.555C2.6 3.011 2.414 3.578 2.33 4.205C2.25 4.8 2.25 5.55 2.25 6.448V6.552C2.25 7.45 2.25 8.2 2.33 8.794C2.414 9.422 2.6 9.989 3.055 10.444C3.511 10.9 4.078 11.086 4.705 11.17C5.3 11.25 6.05 11.25 6.948 11.25H7.052C7.95 11.25 8.7 11.25 9.294 11.17C9.922 11.086 10.489 10.9 10.944 10.444C11.4 9.989 11.586 9.422 11.67 8.794C11.75 8.2 11.75 7.45 11.75 6.552V6.448C11.75 5.55 11.75 4.8 11.67 4.206C11.586 3.578 11.4 3.011 10.944 2.556C10.489 2.1 9.922 1.914 9.294 1.83C8.7 1.75 7.95 1.75 7.052 1.75H6.948ZM4.116 3.616C4.246 3.486 4.444 3.379 4.906 3.316C5.388 3.252 6.036 3.25 7 3.25C7.964 3.25 8.612 3.252 9.095 3.317C9.556 3.379 9.754 3.486 9.884 3.617C10.014 3.747 10.121 3.944 10.184 4.405C10.248 4.888 10.25 5.536 10.25 6.5C10.25 7.464 10.248 8.112 10.183 8.595C10.121 9.056 10.014 9.254 9.883 9.384C9.753 9.514 9.556 9.621 9.095 9.684C8.612 9.748 7.964 9.75 7 9.75C6.036 9.75 5.388 9.748 4.905 9.683C4.444 9.621 4.246 9.514 4.116 9.383C3.986 9.253 3.879 9.056 3.816 8.595C3.752 8.112 3.75 7.464 3.75 6.5C3.75 5.536 3.752 4.888 3.817 4.405C3.879 3.944 3.986 3.746 4.117 3.616H4.116ZM17.948 12.75C17.049 12.75 16.3 12.75 15.706 12.83C15.078 12.914 14.511 13.1 14.056 13.556C13.6 14.011 13.414 14.578 13.33 15.206C13.25 15.8 13.25 16.549 13.25 17.448V17.552C13.25 18.451 13.25 19.2 13.33 19.794C13.414 20.422 13.6 20.989 14.056 21.444C14.511 21.9 15.078 22.086 15.706 22.17C16.3 22.25 17.049 22.25 17.948 22.25H18.052C18.95 22.25 19.7 22.25 20.294 22.17C20.922 22.086 21.489 21.9 21.944 21.444C22.4 20.989 22.586 20.422 22.67 19.794C22.75 19.2 22.75 18.451 22.75 17.552V17.448C22.75 16.55 22.75 15.8 22.67 15.206C22.586 14.578 22.4 14.011 21.944 13.556C21.489 13.1 20.922 12.914 20.294 12.83C19.7 12.75 18.951 12.75 18.052 12.75H17.948ZM15.116 14.616C15.246 14.486 15.444 14.379 15.906 14.316C16.388 14.252 17.036 14.25 18 14.25C18.964 14.25 19.612 14.252 20.095 14.316C20.556 14.379 20.754 14.486 20.884 14.616C21.014 14.746 21.121 14.944 21.184 15.406C21.248 15.888 21.25 16.536 21.25 17.5C21.25 18.464 21.248 19.112 21.183 19.595C21.121 20.056 21.014 20.254 20.883 20.384C20.753 20.514 20.556 20.621 20.095 20.684C19.612 20.748 18.964 20.75 18 20.75C17.036 20.75 16.388 20.748 15.905 20.683C15.444 20.621 15.246 20.514 15.116 20.383C14.986 20.253 14.879 20.056 14.816 19.595C14.752 19.112 14.75 18.464 14.75 17.5C14.75 16.536 14.752 15.888 14.816 15.405C14.879 14.944 14.986 14.746 15.116 14.616ZM6.948 12.75H7.052C7.95 12.75 8.7 12.75 9.294 12.83C9.922 12.914 10.489 13.1 10.944 13.556C11.4 14.011 11.586 14.578 11.67 15.206C11.75 15.8 11.75 16.549 11.75 17.448V17.552C11.75 18.451 11.75 19.2 11.67 19.794C11.586 20.422 11.4 20.989 10.944 21.444C10.489 21.9 9.922 22.086 9.294 22.17C8.7 22.25 7.951 22.25 7.052 22.25H6.948C6.05 22.25 5.3 22.25 4.706 22.17C4.078 22.086 3.511 21.9 3.056 21.444C2.6 20.989 2.414 20.422 2.33 19.794C2.25 19.2 2.25 18.451 2.25 17.552V17.448C2.25 16.549 2.25 15.8 2.33 15.206C2.414 14.578 2.6 14.011 3.055 13.556C3.511 13.1 4.078 12.914 4.705 12.83C5.3 12.75 6.05 12.75 6.948 12.75ZM4.905 14.316C4.444 14.379 4.246 14.486 4.116 14.616C3.986 14.746 3.879 14.944 3.816 15.406C3.752 15.888 3.75 16.536 3.75 17.5C3.75 18.464 3.752 19.112 3.817 19.595C3.879 20.056 3.986 20.254 4.117 20.384C4.247 20.514 4.444 20.621 4.905 20.684C5.388 20.748 6.036 20.75 7 20.75C7.964 20.75 8.612 20.748 9.095 20.683C9.556 20.621 9.754 20.514 9.884 20.383C10.014 20.253 10.121 20.056 10.184 19.595C10.248 19.112 10.25 18.464 10.25 17.5C10.25 16.536 10.248 15.888 10.183 15.405C10.121 14.944 10.014 14.746 9.883 14.616C9.753 14.486 9.556 14.379 9.095 14.316C8.612 14.252 7.964 14.25 7 14.25C6.036 14.25 5.388 14.252 4.905 14.316ZM17.948 1.75C17.049 1.75 16.3 1.75 15.706 1.83C15.078 1.914 14.511 2.1 14.056 2.555C13.6 3.011 13.414 3.578 13.33 4.205C13.25 4.8 13.25 5.55 13.25 6.448V6.552C13.25 7.45 13.25 8.2 13.33 8.794C13.414 9.422 13.6 9.989 14.056 10.444C14.511 10.9 15.078 11.086 15.706 11.17C16.3 11.25 17.049 11.25 17.948 11.25H18.052C18.951 11.25 19.7 11.25 20.294 11.17C20.922 11.086 21.489 10.9 21.944 10.444C22.4 9.989 22.586 9.422 22.67 8.794C22.75 8.2 22.75 7.45 22.75 6.552V6.448C22.75 5.55 22.75 4.8 22.67 4.206C22.586 3.578 22.4 3.011 21.944 2.556C21.489 2.1 20.922 1.914 20.294 1.83C19.7 1.75 18.951 1.75 18.052 1.75H17.948ZM15.116 3.616C15.246 3.486 15.444 3.379 15.906 3.316C16.388 3.252 17.036 3.25 18 3.25C18.964 3.25 19.612 3.252 20.095 3.317C20.556 3.379 20.754 3.486 20.884 3.617C21.014 3.747 21.121 3.944 21.184 4.405C21.248 4.888 21.25 5.536 21.25 6.5C21.25 7.464 21.248 8.112 21.183 8.595C21.121 9.056 21.014 9.254 20.883 9.384C20.753 9.514 20.556 9.621 20.095 9.684C19.612 9.748 18.964 9.75 18 9.75C17.036 9.75 16.388 9.748 15.905 9.683C15.444 9.621 15.246 9.514 15.116 9.383C14.986 9.253 14.879 9.056 14.816 8.595C14.752 8.112 14.75 7.464 14.75 6.5C14.75 5.536 14.752 4.888 14.816 4.405C14.879 3.944 14.986 3.746 15.116 3.616Z" fill="currentColor"/>
</svg>
