<svg width="16" height="16" viewBox="0 0 16 16" fill="none" xmlns="http://www.w3.org/2000/svg">
<g id="solar:map-point-bold">
<path id="Vector" fill-rule="evenodd" clip-rule="evenodd" d="M8.00002 1.33337C5.05469 1.33337 2.66669 4.00204 2.66669 7.00004C2.66669 9.97471 4.36869 13.208 7.02469 14.4494C7.32997 14.5923 7.66293 14.6664 8.00002 14.6664C8.33711 14.6664 8.67008 14.5923 8.97535 14.4494C11.6314 13.208 13.3334 9.97471 13.3334 7.00004C13.3334 4.00204 10.9454 1.33337 8.00002 1.33337ZM8.00002 8.00004C8.35364 8.00004 8.69278 7.85956 8.94283 7.60952C9.19288 7.35947 9.33335 7.02033 9.33335 6.66671C9.33335 6.31309 9.19288 5.97395 8.94283 5.7239C8.69278 5.47385 8.35364 5.33337 8.00002 5.33337C7.6464 5.33337 7.30726 5.47385 7.05721 5.7239C6.80716 5.97395 6.66669 6.31309 6.66669 6.66671C6.66669 7.02033 6.80716 7.35947 7.05721 7.60952C7.30726 7.85956 7.6464 8.00004 8.00002 8.00004Z" fill="#666666"/>
</g>
</svg>
