<svg width="16" height="16" viewBox="0 0 16 16" fill="none" xmlns="http://www.w3.org/2000/svg">
<g id="solar:menu-dots-outline">
<path id="Vector" fill-rule="evenodd" clip-rule="evenodd" d="M1.5 8.00008C1.5 7.51385 1.69315 7.04754 2.03697 6.70372C2.38079 6.3599 2.8471 6.16675 3.33333 6.16675C3.81956 6.16675 4.28588 6.3599 4.6297 6.70372C4.97351 7.04754 5.16667 7.51385 5.16667 8.00008C5.16667 8.48631 4.97351 8.95263 4.6297 9.29644C4.28588 9.64026 3.81956 9.83341 3.33333 9.83341C2.8471 9.83341 2.38079 9.64026 2.03697 9.29644C1.69315 8.95263 1.5 8.48631 1.5 8.00008ZM3.33333 7.16675C3.11232 7.16675 2.90036 7.25455 2.74408 7.41083C2.5878 7.56711 2.5 7.77907 2.5 8.00008C2.5 8.2211 2.5878 8.43306 2.74408 8.58934C2.90036 8.74562 3.11232 8.83341 3.33333 8.83341C3.55435 8.83341 3.76631 8.74562 3.92259 8.58934C4.07887 8.43306 4.16667 8.2211 4.16667 8.00008C4.16667 7.77907 4.07887 7.56711 3.92259 7.41083C3.76631 7.25455 3.55435 7.16675 3.33333 7.16675ZM6.16667 8.00008C6.16667 7.51385 6.35982 7.04754 6.70364 6.70372C7.04745 6.3599 7.51377 6.16675 8 6.16675C8.48623 6.16675 8.95255 6.3599 9.29636 6.70372C9.64018 7.04754 9.83333 7.51385 9.83333 8.00008C9.83333 8.48631 9.64018 8.95263 9.29636 9.29644C8.95255 9.64026 8.48623 9.83341 8 9.83341C7.51377 9.83341 7.04745 9.64026 6.70364 9.29644C6.35982 8.95263 6.16667 8.48631 6.16667 8.00008ZM8 7.16675C7.77899 7.16675 7.56702 7.25455 7.41074 7.41083C7.25446 7.56711 7.16667 7.77907 7.16667 8.00008C7.16667 8.2211 7.25446 8.43306 7.41074 8.58934C7.56702 8.74562 7.77899 8.83341 8 8.83341C8.22101 8.83341 8.43298 8.74562 8.58926 8.58934C8.74554 8.43306 8.83333 8.2211 8.83333 8.00008C8.83333 7.77907 8.74554 7.56711 8.58926 7.41083C8.43298 7.25455 8.22101 7.16675 8 7.16675ZM12.6667 6.16675C12.1804 6.16675 11.7141 6.3599 11.3703 6.70372C11.0265 7.04754 10.8333 7.51385 10.8333 8.00008C10.8333 8.48631 11.0265 8.95263 11.3703 9.29644C11.7141 9.64026 12.1804 9.83341 12.6667 9.83341C13.1529 9.83341 13.6192 9.64026 13.963 9.29644C14.3068 8.95263 14.5 8.48631 14.5 8.00008C14.5 7.51385 14.3068 7.04754 13.963 6.70372C13.6192 6.3599 13.1529 6.16675 12.6667 6.16675ZM11.8333 8.00008C11.8333 7.89065 11.8549 7.78228 11.8968 7.68118C11.9386 7.58007 12 7.48821 12.0774 7.41083C12.1548 7.33344 12.2467 7.27206 12.3478 7.23018C12.4489 7.1883 12.5572 7.16675 12.6667 7.16675C12.7761 7.16675 12.8845 7.1883 12.9856 7.23018C13.0867 7.27206 13.1785 7.33344 13.2559 7.41083C13.3333 7.48821 13.3947 7.58007 13.4366 7.68118C13.4784 7.78228 13.5 7.89065 13.5 8.00008C13.5 8.2211 13.4122 8.43306 13.2559 8.58934C13.0996 8.74562 12.8877 8.83341 12.6667 8.83341C12.4457 8.83341 12.2337 8.74562 12.0774 8.58934C11.9211 8.43306 11.8333 8.2211 11.8333 8.00008Z" fill="black"/>
</g>
</svg>
