<svg width="16" height="16" viewBox="0 0 16 16" fill="none" xmlns="http://www.w3.org/2000/svg">
<path fill-rule="evenodd" clip-rule="evenodd" d="M7.99992 1.83333C6.36442 1.83333 4.7959 2.48303 3.63943 3.6395C2.48295 4.79598 1.83325 6.36449 1.83325 7.99999C1.83325 9.6355 2.48295 11.204 3.63943 12.3605C4.7959 13.517 6.36442 14.1667 7.99992 14.1667C9.63542 14.1667 11.2039 13.517 12.3604 12.3605C13.5169 11.204 14.1666 9.6355 14.1666 7.99999C14.1666 6.36449 13.5169 4.79598 12.3604 3.6395C11.2039 2.48303 9.63542 1.83333 7.99992 1.83333ZM0.833252 7.99999C0.833252 4.04199 4.04192 0.833328 7.99992 0.833328C11.9579 0.833328 15.1666 4.04199 15.1666 7.99999C15.1666 11.958 11.9579 15.1667 7.99992 15.1667C4.04192 15.1667 0.833252 11.958 0.833252 7.99999ZM5.64658 8.64666L7.64658 6.64666C7.74034 6.55303 7.86742 6.50043 7.99992 6.50043C8.13242 6.50043 8.2595 6.55303 8.35325 6.64666L10.3533 8.64666C10.4024 8.69244 10.4418 8.74764 10.4691 8.80897C10.4964 8.8703 10.5111 8.93651 10.5123 9.00365C10.5135 9.07078 10.5011 9.13747 10.476 9.19973C10.4509 9.26198 10.4134 9.31854 10.3659 9.36602C10.3185 9.4135 10.2619 9.45093 10.1996 9.47608C10.1374 9.50122 10.0707 9.51357 10.0036 9.51239C9.93643 9.5112 9.87023 9.49651 9.80889 9.46918C9.74756 9.44185 9.69236 9.40245 9.64658 9.35333L7.99992 7.70666L6.35325 9.35333C6.25847 9.44165 6.1331 9.48973 6.00357 9.48744C5.87404 9.48516 5.75045 9.43268 5.65884 9.34107C5.56723 9.24947 5.51475 9.12588 5.51247 8.99634C5.51018 8.86681 5.55827 8.74144 5.64658 8.64666Z" fill="black"/>
</svg>
