<svg width="24" height="24" viewBox="0 0 24 24" fill="none" xmlns="http://www.w3.org/2000/svg">
<path d="M14.4701 7.53001C14.5388 7.6037 14.6216 7.6628 14.7136 7.70379C14.8056 7.74478 14.9049 7.76683 15.0056 7.7686C15.1063 7.77038 15.2063 7.75186 15.2997 7.71413C15.3931 7.67641 15.4779 7.62027 15.5491 7.54905C15.6203 7.47783 15.6765 7.393 15.7142 7.29961C15.7519 7.20622 15.7705 7.10619 15.7687 7.00549C15.7669 6.90479 15.7449 6.80547 15.7039 6.71347C15.6629 6.62147 15.6038 6.53867 15.5301 6.47001L12.5301 3.47001C12.3895 3.32956 12.1988 3.25067 12.0001 3.25067C11.8013 3.25067 11.6107 3.32956 11.4701 3.47001L8.47009 6.47001C8.33761 6.61219 8.26549 6.80023 8.26892 6.99453C8.27234 7.18884 8.35106 7.37422 8.48847 7.51163C8.62588 7.64905 8.81127 7.72776 9.00557 7.73119C9.19987 7.73461 9.38792 7.66249 9.53009 7.53001L11.2501 5.81001V14C11.2501 14.1989 11.3291 14.3897 11.4698 14.5303C11.6104 14.671 11.8012 14.75 12.0001 14.75C12.199 14.75 12.3898 14.671 12.5304 14.5303C12.6711 14.3897 12.7501 14.1989 12.7501 14V5.81001L14.4701 7.53001Z" fill="#FF2D2D"/>
<path d="M20.75 12C20.75 11.8011 20.671 11.6103 20.5303 11.4697C20.3897 11.329 20.1989 11.25 20 11.25C19.8011 11.25 19.6103 11.329 19.4697 11.4697C19.329 11.6103 19.25 11.8011 19.25 12C19.25 12.9521 19.0625 13.8948 18.6981 14.7745C18.3338 15.6541 17.7997 16.4533 17.1265 17.1265C16.4533 17.7997 15.6541 18.3338 14.7745 18.6981C13.8948 19.0625 12.9521 19.25 12 19.25C11.0479 19.25 10.1052 19.0625 9.22554 18.6981C8.34593 18.3338 7.5467 17.7997 6.87348 17.1265C6.20025 16.4533 5.66622 15.6541 5.30187 14.7745C4.93753 13.8948 4.75 12.9521 4.75 12C4.75 11.8011 4.67098 11.6103 4.53033 11.4697C4.38968 11.329 4.19891 11.25 4 11.25C3.80109 11.25 3.61032 11.329 3.46967 11.4697C3.32902 11.6103 3.25 11.8011 3.25 12C3.25 14.3206 4.17187 16.5462 5.81282 18.1872C7.45376 19.8281 9.67936 20.75 12 20.75C14.3206 20.75 16.5462 19.8281 18.1872 18.1872C19.8281 16.5462 20.75 14.3206 20.75 12Z" fill="#FF2D2D"/>
</svg>
