<svg width="16" height="16" viewBox="0 0 16 16" fill="none" xmlns="http://www.w3.org/2000/svg">
<g id="solar:dollar-outline" clip-path="url(#clip0_13_3431)">
<path id="Vector" fill-rule="evenodd" clip-rule="evenodd" d="M7.99967 1.83337C6.36417 1.83337 4.79566 2.48307 3.63918 3.63955C2.48271 4.79602 1.83301 6.36454 1.83301 8.00004C1.83301 9.63554 2.48271 11.2041 3.63918 12.3605C4.79566 13.517 6.36417 14.1667 7.99967 14.1667C9.63518 14.1667 11.2037 13.517 12.3602 12.3605C13.5166 11.2041 14.1663 9.63554 14.1663 8.00004C14.1663 6.36454 13.5166 4.79602 12.3602 3.63955C11.2037 2.48307 9.63518 1.83337 7.99967 1.83337ZM0.833008 8.00004C0.833008 4.04204 4.04167 0.833374 7.99967 0.833374C11.9577 0.833374 15.1663 4.04204 15.1663 8.00004C15.1663 11.958 11.9577 15.1667 7.99967 15.1667C4.04167 15.1667 0.833008 11.958 0.833008 8.00004ZM7.99967 3.50004C8.13228 3.50004 8.25946 3.55272 8.35323 3.64649C8.447 3.74026 8.49967 3.86743 8.49967 4.00004V4.21137C9.58634 4.40604 10.4997 5.22271 10.4997 6.33337C10.4997 6.46598 10.447 6.59316 10.3532 6.68693C10.2595 6.7807 10.1323 6.83337 9.99967 6.83337C9.86707 6.83337 9.73989 6.7807 9.64612 6.68693C9.55235 6.59316 9.49967 6.46598 9.49967 6.33337C9.49967 5.88137 9.12367 5.40204 8.49967 5.23137V7.54471C9.58634 7.73937 10.4997 8.55604 10.4997 9.66671C10.4997 10.7774 9.58634 11.594 8.49967 11.7887V12C8.49967 12.1326 8.447 12.2598 8.35323 12.3536C8.25946 12.4474 8.13228 12.5 7.99967 12.5C7.86707 12.5 7.73989 12.4474 7.64612 12.3536C7.55235 12.2598 7.49967 12.1326 7.49967 12V11.7887C6.41301 11.594 5.49967 10.7774 5.49967 9.66671C5.49967 9.5341 5.55235 9.40692 5.64612 9.31315C5.73989 9.21939 5.86707 9.16671 5.99967 9.16671C6.13228 9.16671 6.25946 9.21939 6.35323 9.31315C6.447 9.40692 6.49967 9.5341 6.49967 9.66671C6.49967 10.1187 6.87567 10.598 7.49967 10.768V8.45537C6.41301 8.26071 5.49967 7.44404 5.49967 6.33337C5.49967 5.22271 6.41301 4.40604 7.49967 4.21137V4.00004C7.49967 3.86743 7.55235 3.74026 7.64612 3.64649C7.73989 3.55272 7.86707 3.50004 7.99967 3.50004ZM7.49967 5.23137C6.87567 5.40204 6.49967 5.88137 6.49967 6.33337C6.49967 6.78537 6.87567 7.26471 7.49967 7.43471V5.23137ZM8.49967 8.56471V10.7687C9.12367 10.598 9.49967 10.1194 9.49967 9.66671C9.49967 9.21471 9.12367 8.73471 8.49967 8.56471Z" fill="#6E0699"/>
</g>
<defs>
<clipPath id="clip0_13_3431">
<rect width="16" height="16" fill="white"/>
</clipPath>
</defs>
</svg>
