<svg width="16" height="16" viewBox="0 0 16 16" fill="none" xmlns="http://www.w3.org/2000/svg">
<path fill-rule="evenodd" clip-rule="evenodd" d="M6.62661 2.16666H9.37328C10.6006 2.16666 11.5733 2.16666 12.3333 2.26866C13.1166 2.374 13.7499 2.59533 14.2499 3.094C14.9926 3.83533 15.1299 4.88533 15.1666 6.31666C15.1786 6.80733 14.7906 7.10866 14.4659 7.194C14.2875 7.24055 14.1296 7.34496 14.0169 7.49087C13.9042 7.63678 13.843 7.81595 13.843 8.00033C13.843 8.18471 13.9042 8.36388 14.0169 8.50979C14.1296 8.6557 14.2875 8.76011 14.4659 8.80666C14.7906 8.89133 15.1793 9.19266 15.1659 9.68333C15.1299 11.1147 14.9926 12.1647 14.2499 12.906C13.7499 13.4047 13.1166 13.626 12.3339 13.7313C11.5733 13.8333 10.6006 13.8333 9.37395 13.8333H6.62661C5.39928 13.8333 4.42661 13.8333 3.66661 13.7313C2.88328 13.626 2.24995 13.4047 1.74995 12.906C1.00728 12.1647 0.869946 11.1147 0.833279 9.68333C0.821279 9.19266 1.20928 8.89133 1.53395 8.806C1.71235 8.75944 1.87028 8.65504 1.983 8.50913C2.09572 8.36322 2.15687 8.18404 2.15687 7.99966C2.15687 7.81528 2.09572 7.63611 1.983 7.4902C1.87028 7.34429 1.71235 7.23988 1.53395 7.19333C1.20928 7.10866 0.820613 6.80733 0.833946 6.31666C0.869946 4.88533 1.00728 3.83533 1.74995 3.094C2.24995 2.59533 2.88328 2.374 3.66595 2.26866C4.42728 2.16666 5.39995 2.16666 6.62661 2.16666ZM3.79928 3.26C3.12728 3.35 2.73928 3.51933 2.45661 3.80133C2.03795 4.21933 1.87795 4.852 1.83661 6.24C2.21705 6.35147 2.55113 6.58322 2.78879 6.90051C3.02645 7.2178 3.1549 7.60356 3.1549 8C3.1549 8.39643 3.02645 8.78219 2.78879 9.09948C2.55113 9.41678 2.21705 9.64852 1.83661 9.76C1.87795 11.148 2.03795 11.78 2.45661 12.1987C2.73928 12.4807 3.12728 12.65 3.79928 12.74C4.48595 12.832 5.39061 12.8333 6.66395 12.8333H9.33595C10.6093 12.8333 11.5139 12.832 12.2006 12.74C12.8733 12.65 13.2606 12.4807 13.5433 12.1987C13.9619 11.7807 14.1219 11.148 14.1633 9.76C13.7826 9.64874 13.4482 9.4171 13.2102 9.0998C12.9722 8.7825 12.8435 8.39662 12.8433 8C12.8433 7.16533 13.4013 6.462 14.1633 6.24C14.1219 4.852 13.9619 4.22 13.5433 3.80133C13.2606 3.51933 12.8726 3.35 12.2006 3.26C11.5139 3.168 10.6093 3.16666 9.33595 3.16666H6.66395C5.39061 3.16666 4.48595 3.168 3.79928 3.26ZM7.99995 6.68933C7.96128 6.75666 7.91795 6.834 7.86728 6.92533L7.80195 7.04266L7.78661 7.06933C7.73461 7.16533 7.64795 7.324 7.50328 7.434C7.35595 7.546 7.17795 7.58466 7.07461 7.60733L7.04528 7.61333L6.91861 7.642C6.80128 7.66866 6.70595 7.69 6.62528 7.71066C6.67795 7.77533 6.74661 7.85666 6.83595 7.96066L6.92261 8.06266L6.94261 8.08533C7.01461 8.16866 7.13061 8.302 7.18461 8.47533C7.23795 8.646 7.21928 8.822 7.20795 8.93266L7.20461 8.964L7.19128 9.09933C7.18129 9.20149 7.17195 9.30372 7.16328 9.406C7.23328 9.37533 7.31195 9.33933 7.40595 9.296L7.52528 9.24133L7.55195 9.228C7.64795 9.18333 7.81395 9.10533 7.99995 9.10533C8.18595 9.10533 8.35195 9.18333 8.44795 9.22866L8.47461 9.24133L8.59395 9.296C8.68728 9.33933 8.76728 9.376 8.83661 9.406C8.82794 9.30372 8.81861 9.20149 8.80861 9.09933L8.79528 8.964C8.7942 8.95355 8.79309 8.94311 8.79195 8.93266C8.78061 8.82133 8.76195 8.646 8.81528 8.47533C8.86861 8.302 8.98528 8.16866 9.05728 8.08533L9.07728 8.06266L9.16395 7.96133C9.25328 7.85666 9.32195 7.77533 9.37461 7.71066C9.29395 7.69066 9.19861 7.66866 9.08128 7.642L8.95461 7.61333L8.92595 7.60666C8.82195 7.58466 8.64395 7.546 8.49661 7.43333C8.35195 7.324 8.26528 7.16533 8.21328 7.07C8.20821 7.06086 8.2031 7.05175 8.19795 7.04266L8.13261 6.92533C8.08195 6.834 8.03928 6.75666 7.99995 6.68933ZM7.34261 5.86666C7.45728 5.71666 7.66528 5.5 7.99995 5.5C8.33461 5.5 8.54261 5.71666 8.65728 5.86666C8.76728 6.00933 8.87728 6.20733 8.99061 6.41066L9.00595 6.438L9.07128 6.556L9.10928 6.62266L9.17528 6.638L9.30195 6.66666L9.33395 6.67333C9.55195 6.72333 9.76928 6.772 9.93595 6.838C10.1199 6.91066 10.3693 7.05133 10.4659 7.36133C10.5606 7.66466 10.4413 7.922 10.3373 8.088C10.2406 8.24133 10.0939 8.412 9.94395 8.58733L9.92395 8.61066L9.83728 8.71266L9.78261 8.77733L9.79061 8.86733L9.80395 9.00266L9.80661 9.03333C9.82928 9.268 9.85128 9.49466 9.84328 9.676C9.83528 9.86666 9.78995 10.1547 9.53128 10.35C9.26461 10.5527 8.97128 10.5087 8.78461 10.4547C8.61261 10.406 8.40928 10.312 8.20461 10.218L8.17595 10.2047L8.05595 10.1493L7.99995 10.1233L7.94328 10.15L7.82395 10.2047L7.79461 10.218C7.59061 10.312 7.38795 10.406 7.21528 10.4547C7.02861 10.508 6.73528 10.5527 6.46861 10.35C6.21061 10.1547 6.16461 9.86666 6.15661 9.67666C6.14861 9.49466 6.16995 9.268 6.19328 9.03333L6.19595 9.00266L6.20928 8.86733C6.21238 8.83735 6.21527 8.80735 6.21795 8.77733C6.19964 8.75565 6.1812 8.7341 6.16261 8.71266L6.07595 8.61066C6.06928 8.60289 6.06261 8.59511 6.05595 8.58733C5.90595 8.412 5.75928 8.24066 5.66261 8.08733C5.55861 7.922 5.43928 7.66466 5.53395 7.36066C5.62995 7.052 5.87995 6.91066 6.06395 6.838C6.23061 6.772 6.44795 6.72333 6.66595 6.674L6.69728 6.66733L6.82461 6.638L6.89128 6.62266L6.92861 6.556L6.99395 6.438L7.00928 6.41066C7.12261 6.20733 7.23261 6.00933 7.34261 5.86666Z" fill="currentColor"/>
</svg>
