<svg width="16" height="16" viewBox="0 0 16 16" fill="none" xmlns="http://www.w3.org/2000/svg">
<path fill-rule="evenodd" clip-rule="evenodd" d="M2.16675 6.76201C2.16675 3.49601 4.77008 0.833344 8.00008 0.833344C11.2301 0.833344 13.8334 3.49601 13.8334 6.76201C13.8334 8.33868 13.3841 10.032 12.5894 11.4947C11.7961 12.9553 10.6374 14.2247 9.18675 14.9027C8.81529 15.0765 8.41019 15.1666 8.00008 15.1666C7.58997 15.1666 7.18487 15.0765 6.81342 14.9027C5.36275 14.2247 4.20408 12.956 3.41075 11.4947C2.61608 10.032 2.16675 8.33868 2.16675 6.76201ZM8.00008 1.83334C5.33875 1.83334 3.16675 4.03134 3.16675 6.76201C3.16675 8.16001 3.56875 9.69001 4.28941 11.0173C5.01075 12.346 6.03075 13.4333 7.23608 13.9967C7.47509 14.1087 7.73581 14.1667 7.99975 14.1667C8.26369 14.1667 8.5244 14.1087 8.76342 13.9967C9.96942 13.4333 10.9894 12.346 11.7107 11.0173C12.4314 9.69068 12.8334 8.16001 12.8334 6.76201C12.8334 4.03134 10.6614 1.83334 8.00008 1.83334ZM8.00008 5.16668C7.8031 5.16668 7.60804 5.20548 7.42606 5.28086C7.24407 5.35624 7.07871 5.46673 6.93942 5.60602C6.80013 5.7453 6.68964 5.91066 6.61426 6.09265C6.53888 6.27464 6.50008 6.46969 6.50008 6.66668C6.50008 6.86366 6.53888 7.05871 6.61426 7.2407C6.68964 7.42269 6.80013 7.58805 6.93942 7.72734C7.07871 7.86662 7.24407 7.97711 7.42606 8.0525C7.60804 8.12788 7.8031 8.16668 8.00008 8.16668C8.39791 8.16668 8.77944 8.00864 9.06074 7.72734C9.34205 7.44603 9.50008 7.0645 9.50008 6.66668C9.50008 6.26885 9.34205 5.88732 9.06074 5.60602C8.77944 5.32471 8.39791 5.16668 8.00008 5.16668ZM5.50008 6.66668C5.50008 6.00364 5.76347 5.36775 6.23231 4.89891C6.70116 4.43007 7.33704 4.16668 8.00008 4.16668C8.66312 4.16668 9.29901 4.43007 9.76785 4.89891C10.2367 5.36775 10.5001 6.00364 10.5001 6.66668C10.5001 7.32972 10.2367 7.9656 9.76785 8.43444C9.29901 8.90329 8.66312 9.16668 8.00008 9.16668C7.33704 9.16668 6.70116 8.90329 6.23231 8.43444C5.76347 7.9656 5.50008 7.32972 5.50008 6.66668Z" fill="currentColor"/>
</svg>
