<svg width="24" height="24" viewBox="0 0 24 24" fill="none" xmlns="http://www.w3.org/2000/svg">
<g id="solar:star-outline">
<path id="Vector" fill-rule="evenodd" clip-rule="evenodd" d="M11.2922 3.308C10.8982 3.822 10.4542 4.616 9.80823 5.774L9.48123 6.361L9.42223 6.467C9.12223 7.007 8.86723 7.465 8.45823 7.775C8.04523 8.089 7.54123 8.202 6.95523 8.334L6.84123 8.36L6.20523 8.504C4.95023 8.788 4.09523 8.983 3.51123 9.214C2.94023 9.438 2.82023 9.623 2.77423 9.77C2.72523 9.926 2.72423 10.165 3.06423 10.707C3.41123 11.257 3.99623 11.943 4.85023 12.943L5.28423 13.45L5.35923 13.537C5.76223 14.007 6.09823 14.399 6.25223 14.895C6.40523 15.388 6.35423 15.905 6.29223 16.533L6.28223 16.65L6.21623 17.327C6.08623 18.659 6.00023 19.577 6.02923 20.237C6.05923 20.897 6.19823 21.079 6.30923 21.163C6.40723 21.238 6.58923 21.32 7.18223 21.15C7.78523 20.978 8.58723 20.611 9.76223 20.07L10.3582 19.796L10.4672 19.746C11.0122 19.493 11.4842 19.275 12.0002 19.275C12.5162 19.275 12.9882 19.493 13.5332 19.745C13.5695 19.7625 13.6062 19.7791 13.6432 19.795L14.2382 20.07C15.4132 20.611 16.2152 20.978 16.8182 21.15C17.4112 21.32 17.5932 21.238 17.6912 21.163C17.8022 21.079 17.9412 20.896 17.9712 20.237C18.0012 19.577 17.9132 18.659 17.7842 17.327L17.7182 16.65L17.7082 16.533C17.6462 15.905 17.5952 15.388 17.7482 14.895C17.9022 14.399 18.2382 14.007 18.6412 13.537L18.7162 13.45L19.1502 12.943C20.0042 11.943 20.5892 11.257 20.9352 10.707C21.2762 10.165 21.2752 9.927 21.2262 9.77C21.1802 9.623 21.0602 9.438 20.4892 9.214C19.9042 8.983 19.0502 8.788 17.7952 8.504L17.1592 8.36C17.1202 8.35 17.0822 8.342 17.0452 8.334C16.4592 8.202 15.9552 8.089 15.5422 7.775C15.1322 7.465 14.8792 7.008 14.5782 6.467L14.5202 6.361L14.1922 5.774C13.5462 4.616 13.1022 3.822 12.7082 3.308C12.3152 2.794 12.1142 2.75 12.0002 2.75C11.8862 2.75 11.6852 2.794 11.2922 3.308ZM10.1022 2.396C10.5772 1.774 11.1662 1.25 12.0002 1.25C12.8342 1.25 13.4222 1.774 13.8992 2.396C14.3672 3.008 14.8642 3.899 15.4712 4.988L15.8302 5.631C16.2222 6.335 16.3232 6.485 16.4492 6.581C16.5692 6.672 16.7262 6.724 17.4892 6.897L18.1892 7.055C19.3652 7.321 20.3342 7.54 21.0392 7.818C21.7712 8.107 22.4122 8.532 22.6592 9.325C22.9032 10.11 22.6292 10.832 22.2052 11.505C21.7932 12.16 21.1352 12.93 20.3312 13.87L19.8562 14.425C19.3392 15.029 19.2312 15.177 19.1802 15.34C19.1292 15.507 19.1332 15.7 19.2122 16.505L19.2832 17.243C19.4052 18.499 19.5042 19.523 19.4692 20.303C19.4342 21.098 19.2542 21.86 18.5992 22.358C17.9312 22.864 17.1542 22.808 16.4042 22.592C15.6772 22.384 14.7712 21.967 13.6712 21.46L13.0152 21.158C12.2972 20.828 12.1442 20.775 12.0002 20.775C11.8562 20.775 11.7032 20.828 10.9852 21.158L10.3302 21.46C9.22923 21.967 8.32323 22.384 7.59623 22.592C6.84623 22.807 6.06923 22.864 5.40223 22.358C4.74623 21.86 4.56623 21.098 4.53123 20.304C4.49623 19.524 4.59523 18.499 4.71723 17.244L4.78923 16.505C4.86723 15.699 4.87123 15.507 4.81923 15.34C4.76923 15.177 4.66123 15.03 4.14423 14.425L3.66923 13.87C2.86623 12.93 2.20823 12.16 1.79623 11.506C1.37123 10.832 1.09723 10.11 1.34123 9.325C1.58823 8.532 2.22923 8.107 2.96123 7.818C3.66623 7.54 4.63523 7.321 5.81123 7.055L5.87423 7.041L6.51023 6.897C7.27423 6.724 7.43023 6.672 7.55123 6.58C7.67723 6.485 7.77823 6.335 8.17123 5.631L8.52923 4.988C9.13623 3.898 9.63323 3.008 10.1012 2.396H10.1022Z" fill="#8A0064"/>
</g>
</svg>
