<svg width="21" height="21" viewBox="0 0 21 21" fill="none" xmlns="http://www.w3.org/2000/svg">
<g id="vuesax/bold/ticket-discount">
<g id="ticket-discount">
<path id="Vector" d="M18.5326 9.53334C18.8576 9.53334 19.1159 9.27501 19.1159 8.95001V8.17501C19.1159 4.75834 18.0742 3.71667 14.6576 3.71667H6.90755C3.49089 3.71667 2.44922 4.75834 2.44922 8.17501V8.56668C2.44922 8.89167 2.70755 9.15001 3.03255 9.15001C3.78255 9.15001 4.39089 9.75834 4.39089 10.5083C4.39089 11.2583 3.78255 11.8583 3.03255 11.8583C2.70755 11.8583 2.44922 12.1167 2.44922 12.4417V12.8333C2.44922 16.25 3.49089 17.2917 6.90755 17.2917H14.6576C18.0742 17.2917 19.1159 16.25 19.1159 12.8333C19.1159 12.5083 18.8576 12.25 18.5326 12.25C17.7826 12.25 17.1742 11.6417 17.1742 10.8917C17.1742 10.1417 17.7826 9.53334 18.5326 9.53334ZM8.28255 7.90001C8.74089 7.90001 9.11589 8.27501 9.11589 8.73334C9.11589 9.19168 8.74922 9.56668 8.28255 9.56668C7.82422 9.56668 7.44922 9.19168 7.44922 8.73334C7.44922 8.27501 7.81589 7.90001 8.28255 7.90001ZM13.2826 13.7333C12.8159 13.7333 12.4409 13.3583 12.4409 12.9C12.4409 12.4417 12.8159 12.0667 13.2742 12.0667C13.7326 12.0667 14.1076 12.4417 14.1076 12.9C14.1076 13.3583 13.7492 13.7333 13.2826 13.7333ZM14.0326 8.40001L8.42422 14.0083C8.29922 14.1333 8.14089 14.1917 7.98255 14.1917C7.82422 14.1917 7.66589 14.1333 7.54089 14.0083C7.29922 13.7667 7.29922 13.3667 7.54089 13.125L13.1492 7.51667C13.3909 7.27501 13.7909 7.27501 14.0326 7.51667C14.2742 7.75834 14.2742 8.15834 14.0326 8.40001Z" fill="#6E0699"/>
</g>
</g>
</svg>
