<svg width="57" height="20" viewBox="0 0 57 20" fill="none" xmlns="http://www.w3.org/2000/svg">
<g id="UPI-Logo-vector 1" clip-path="url(#clip0_1_4719)">
<g id="layer1">
<g id="g22">
<g id="Clip path group">
<mask id="mask0_1_4719" style="mask-type:luminance" maskUnits="userSpaceOnUse" x="-5" y="-7" width="67" height="34">
<g id="clipPath28">
<path id="path26" d="M-4.73828 -6.52345H61.353V26.5222H-4.73828V-6.52345Z" fill="white"/>
</g>
</mask>
<g mask="url(#mask0_1_4719)">
<g id="g24">
<g id="g30">
<path id="path32" d="M0.459767 17.1801H0.883547L0.489753 18.8248C0.431311 19.0689 0.442326 19.2526 0.523104 19.3751C0.603577 19.4978 0.753353 19.5592 0.97228 19.5592C1.18983 19.5592 1.36822 19.4978 1.50759 19.3751C1.64712 19.2526 1.7461 19.0689 1.80454 18.8248L2.19818 17.1801H2.62747L2.22404 18.8655C2.13637 19.2318 1.98017 19.5059 1.7565 19.6877C1.53268 19.8698 1.23925 19.9606 0.876203 19.9606C0.512854 19.9606 0.263635 19.8699 0.127933 19.6886C-0.00792105 19.5075 -0.0316344 19.233 0.0563344 18.8655L0.459767 17.1801Z" fill="#696A6A"/>
</g>
<g id="g34">
<path id="path36" d="M2.57031 19.8886L3.24438 17.0728L4.52521 18.7286C4.55948 18.7753 4.59405 18.8253 4.62817 18.8784C4.66229 18.9315 4.69717 18.9911 4.73297 19.0578L5.1826 17.1801H5.5793L4.90569 19.9937L3.59794 18.3084C3.56291 18.2629 3.53032 18.2149 3.49987 18.1642C3.46912 18.1136 3.44143 18.0605 3.41604 18.0051L2.96518 19.8886H2.57031Z" fill="#696A6A"/>
</g>
<g id="g38">
<path id="path40" d="M5.54443 19.8886L6.1928 17.1801H6.62178L5.97357 19.8886H5.54443Z" fill="#696A6A"/>
</g>
<g id="g42">
<path id="path44" d="M6.59033 19.8886L7.2387 17.1801H8.71199L8.62249 17.5537H7.57834L7.41663 18.229H8.46078L8.36837 18.6156H7.32407L7.01947 19.8886H6.59033Z" fill="#696A6A"/>
</g>
<g id="g46">
<path id="path48" d="M8.53613 19.8886L9.1845 17.1801H9.61348L8.96527 19.8886H8.53613Z" fill="#696A6A"/>
</g>
<g id="g50">
<path id="path52" d="M9.58252 19.8886L10.2309 17.1801H11.7042L11.6147 17.5537H10.5705L10.4079 18.2326H11.452L11.3596 18.6194H10.3155L10.1059 19.4945H11.15L11.0558 19.8886H9.58252Z" fill="#696A6A"/>
</g>
<g id="g54">
<path id="path56" d="M12.0726 19.4907H12.4334C12.6317 19.4907 12.7837 19.4771 12.8894 19.45C12.9952 19.4229 13.0922 19.3772 13.181 19.3131C13.3017 19.2257 13.4026 19.1168 13.4837 18.9866C13.5646 18.8566 13.6259 18.705 13.6672 18.5322C13.7084 18.3595 13.7197 18.2084 13.7011 18.0785C13.6822 17.9481 13.6336 17.8394 13.5548 17.7517C13.4956 17.6877 13.4174 17.6418 13.3198 17.6146C13.222 17.5877 13.0629 17.5741 12.8417 17.5741H12.6866H12.5314L12.0726 19.4907ZM11.5483 19.8886L12.1967 17.18H12.7755C13.1518 17.18 13.4119 17.1992 13.556 17.2381C13.6998 17.2771 13.8187 17.3423 13.9122 17.4335C14.0362 17.5531 14.1152 17.7067 14.1492 17.894C14.183 18.0815 14.171 18.2956 14.1135 18.5361C14.056 18.7766 13.9656 18.9897 13.8423 19.1753C13.7193 19.361 13.5667 19.5141 13.3853 19.635C13.248 19.7263 13.1009 19.7913 12.9445 19.8304C12.7877 19.8691 12.5539 19.8886 12.2425 19.8886H12.1269H11.5483Z" fill="#696A6A"/>
</g>
<g id="g58">
<path id="path60" d="M16.2029 18.3124H16.313C16.5509 18.3124 16.716 18.2856 16.8081 18.2327C16.9004 18.1797 16.9623 18.086 16.9945 17.9515C17.029 17.8072 17.0111 17.7053 16.9405 17.6463C16.8698 17.5871 16.7211 17.5572 16.4939 17.5572H16.3837L16.2029 18.3124ZM16.0895 18.6728L15.7985 19.8886H15.3965L16.045 17.1801H16.6941C16.8864 17.1801 17.0255 17.1908 17.1112 17.2124C17.1966 17.2338 17.2671 17.2695 17.3228 17.3189C17.3905 17.3817 17.4351 17.4665 17.4565 17.5731C17.4777 17.6799 17.4732 17.7974 17.4426 17.9255C17.4117 18.0538 17.3599 18.1722 17.2871 18.2809C17.2143 18.3893 17.1289 18.4745 17.0313 18.536C16.9521 18.5855 16.8647 18.6207 16.769 18.6415C16.673 18.6626 16.5291 18.6728 16.3368 18.6728H16.2522H16.0895Z" fill="#696A6A"/>
</g>
<g id="g62">
<path id="path64" d="M17.9724 18.8248H18.7082L18.5853 18.2068C18.5795 18.1674 18.574 18.1222 18.5692 18.0709C18.5648 18.0196 18.5617 17.9626 18.5598 17.8997C18.5313 17.9589 18.5027 18.0141 18.4741 18.0654C18.4456 18.1165 18.4179 18.1636 18.3907 18.2068L17.9724 18.8248ZM18.9044 19.8886L18.7718 19.1911H17.7258L17.2523 19.8886H16.8018L18.7541 17.0728L19.357 19.8886H18.9044Z" fill="#696A6A"/>
</g>
<g id="g66">
<path id="path68" d="M19.9718 19.8886L20.2683 18.6489L19.731 17.1801H20.1818L20.5153 18.0995C20.523 18.1231 20.5322 18.1538 20.5427 18.1921C20.5534 18.2303 20.5638 18.2715 20.5736 18.316C20.6005 18.2729 20.6282 18.2319 20.6559 18.1938C20.6836 18.1555 20.7116 18.1205 20.7399 18.0884L21.5252 17.1801H21.9545L20.6939 18.6489L20.3972 19.8886H19.9718Z" fill="#696A6A"/>
</g>
<g id="g70">
<path id="path72" d="M24.0665 18.5508C24.0667 18.5299 24.0728 18.472 24.0847 18.377C24.0939 18.2981 24.1011 18.2326 24.1063 18.1808C24.0807 18.2426 24.0506 18.3044 24.016 18.3659C23.9813 18.4275 23.9415 18.4904 23.8961 18.5547L22.8599 19.9978L22.5218 18.5251C22.5074 18.4645 22.4964 18.406 22.489 18.3493C22.4817 18.2926 22.4766 18.2364 22.4742 18.1808C22.4595 18.2377 22.4408 18.297 22.4181 18.3594C22.3953 18.4217 22.368 18.4869 22.3361 18.5547L21.7336 19.8886H21.3389L22.6385 17.0652L23.0084 18.7748C23.0138 18.8019 23.0216 18.847 23.0311 18.9099C23.0406 18.9728 23.0517 19.0505 23.0647 19.1429C23.1085 19.0652 23.1715 18.9667 23.2544 18.847C23.2765 18.8149 23.2933 18.7903 23.3046 18.773L24.4745 17.0652L24.4371 19.8886H24.0384L24.0665 18.5508Z" fill="#696A6A"/>
</g>
<g id="g74">
<path id="path76" d="M24.7798 19.8886L25.4283 17.1801H26.9016L26.8121 17.5537H25.7678L25.6053 18.2326H26.6495L26.5571 18.6194H25.5128L25.3033 19.4945H26.3475L26.2529 19.8886H24.7798Z" fill="#696A6A"/>
</g>
<g id="g78">
<path id="path80" d="M26.7456 19.8886L27.4197 17.0728L28.7005 18.7286C28.7348 18.7753 28.7693 18.8253 28.8035 18.8784C28.8376 18.9315 28.8725 18.9911 28.9083 19.0578L29.3579 17.1801H29.7547L29.081 19.9937L27.7732 18.3084C27.7382 18.2629 27.7056 18.2149 27.6752 18.1642C27.6444 18.1136 27.6167 18.0605 27.5913 18.0051L27.1405 19.8886H26.7456Z" fill="#696A6A"/>
</g>
<g id="g82">
<path id="path84" d="M31.1239 17.5537L30.565 19.8886H30.1359L30.6946 17.5537H29.9932L30.0827 17.1801H31.9112L31.8218 17.5537H31.1239Z" fill="#696A6A"/>
</g>
<g id="g86">
<path id="path88" d="M31.5694 19.3464L31.951 19.1838C31.9548 19.3045 31.9921 19.3967 32.0634 19.4602C32.1347 19.5239 32.2377 19.5555 32.3726 19.5555C32.4999 19.5555 32.6101 19.5191 32.7025 19.4463C32.795 19.3736 32.8561 19.2762 32.8853 19.1541C32.9234 18.9948 32.8284 18.853 32.6012 18.7286C32.5694 18.7101 32.5449 18.6965 32.5281 18.6878C32.2718 18.5423 32.1093 18.4106 32.0408 18.2928C31.9724 18.175 31.9583 18.031 31.999 17.8609C32.0518 17.6401 32.1678 17.4613 32.3466 17.3244C32.5255 17.1874 32.7332 17.1189 32.9702 17.1189C33.165 17.1189 33.3187 17.1574 33.4312 17.2345C33.5438 17.3118 33.608 17.4224 33.6239 17.5667L33.2462 17.7443C33.2135 17.6592 33.1703 17.597 33.1168 17.5574C33.0631 17.5179 32.9951 17.4981 32.9136 17.4981C32.7982 17.4981 32.6991 17.5292 32.6163 17.5906C32.534 17.6524 32.48 17.735 32.4551 17.8387C32.4162 18.0015 32.529 18.1531 32.7935 18.2937C32.8138 18.3047 32.8298 18.3136 32.8412 18.3197C33.0727 18.4429 33.2232 18.5636 33.2922 18.6814C33.3614 18.7993 33.375 18.9463 33.3326 19.1226C33.2713 19.3793 33.1438 19.5831 32.9502 19.7341C32.7565 19.8851 32.5255 19.9607 32.2576 19.9607C32.0325 19.9607 31.861 19.9077 31.7429 19.8016C31.6245 19.6955 31.5667 19.5439 31.5694 19.3464Z" fill="#696A6A"/>
</g>
<g id="g90">
<path id="path92" d="M34.7397 19.8886L35.3881 17.1801H35.8172L35.1689 19.8886H34.7397Z" fill="#696A6A"/>
</g>
<g id="g94">
<path id="path96" d="M35.7861 19.8886L36.4602 17.0728L37.741 18.7286C37.7753 18.7753 37.8099 18.8253 37.844 18.8784C37.8781 18.9315 37.913 18.9911 37.9488 19.0578L38.3984 17.1801H38.7951L38.1215 19.9937L36.8138 18.3084C36.7787 18.2629 36.746 18.2149 36.7155 18.1642C36.6849 18.1136 36.6571 18.0605 36.6317 18.0051L36.181 19.8886H35.7861Z" fill="#696A6A"/>
</g>
<g id="g98">
<path id="path100" d="M40.1644 17.5537L39.6054 19.8886H39.1764L39.7351 17.5537H39.0337L39.1232 17.1801H40.9517L40.8624 17.5537H40.1644Z" fill="#696A6A"/>
</g>
<g id="g102">
<path id="path104" d="M40.6313 19.8886L41.2797 17.1801H42.753L42.6637 17.5537H41.6195L41.4569 18.2326H42.501L42.4085 18.6194H41.3643L41.1549 19.4945H42.199L42.1046 19.8886H40.6313Z" fill="#696A6A"/>
</g>
<g id="g106">
<path id="path108" d="M43.3984 18.3343H43.4761C43.7031 18.3343 43.8606 18.3074 43.9481 18.2531C44.0356 18.1988 44.0962 18.1027 44.1289 17.9644C44.1647 17.8152 44.15 17.71 44.0844 17.6491C44.0194 17.5877 43.8785 17.5573 43.6621 17.5573H43.5844L43.3984 18.3343ZM43.2894 18.6766L42.9992 19.8885H42.5972L43.2457 17.18H43.8443C44.0198 17.18 44.1532 17.1917 44.2442 17.2152C44.3354 17.2386 44.4089 17.2773 44.4644 17.3318C44.5305 17.397 44.5733 17.4817 44.5932 17.5853C44.6126 17.6887 44.6076 17.8022 44.5782 17.9254C44.5264 18.1425 44.4346 18.3125 44.303 18.4353C44.1714 18.5578 44.0028 18.6317 43.7974 18.6562L44.4115 19.8885H43.9262L43.3381 18.6766H43.2894Z" fill="#696A6A"/>
</g>
<g id="g110">
<path id="path112" d="M44.666 19.8886L45.3144 17.1801H46.7877L46.6983 17.5537H45.654L45.4923 18.229H46.5366L46.4441 18.6156H45.3999L45.0952 19.8886H44.666Z" fill="#696A6A"/>
</g>
<g id="g114">
<path id="path116" d="M47.2849 18.8248H48.0208L47.898 18.2068C47.892 18.1674 47.8866 18.1222 47.8819 18.0709C47.8775 18.0196 47.8744 17.9626 47.8724 17.8997C47.8438 17.9589 47.8152 18.0141 47.7867 18.0654C47.7583 18.1165 47.7304 18.1636 47.7032 18.2068L47.2849 18.8248ZM48.2171 19.8886L48.0845 19.1911H47.0385L46.565 19.8886H46.1143L48.0666 17.0728L48.6696 19.8886H48.2171Z" fill="#696A6A"/>
</g>
<g id="g118">
<path id="path120" d="M51.4632 17.8386C51.3672 17.7326 51.258 17.6531 51.1353 17.6C51.0129 17.5472 50.8771 17.5204 50.7279 17.5204C50.4395 17.5204 50.1819 17.6154 49.9556 17.8053C49.729 17.9953 49.5797 18.2413 49.5073 18.5436C49.4374 18.836 49.4679 19.0769 49.5985 19.2668C49.7292 19.4568 49.9287 19.552 50.1966 19.552C50.3531 19.552 50.5085 19.5235 50.6633 19.4667C50.8182 19.41 50.9744 19.3243 51.1315 19.2094L51.0123 19.7072C50.8766 19.7923 50.7357 19.8559 50.5899 19.8977C50.4439 19.9396 50.2917 19.9606 50.1331 19.9606C49.9311 19.9606 49.7524 19.9268 49.5975 19.8588C49.4423 19.7911 49.3155 19.6913 49.2174 19.5591C49.1198 19.4297 49.0573 19.2772 49.0305 19.1012C49.0032 18.9256 49.0135 18.7384 49.0609 18.5396C49.1085 18.3412 49.1879 18.1547 49.2988 17.9801C49.4096 17.8056 49.5465 17.6523 49.709 17.5204C49.8721 17.3872 50.0465 17.2865 50.2322 17.2178C50.4181 17.1496 50.6098 17.1151 50.807 17.1151C50.9621 17.1151 51.1044 17.1384 51.234 17.1848C51.3636 17.2308 51.4832 17.3007 51.5932 17.3948L51.4632 17.8386Z" fill="#696A6A"/>
</g>
<g id="g122">
<path id="path124" d="M51.5049 19.8886L52.1533 17.1801H53.6265L53.537 17.5537H52.493L52.3304 18.2326H53.3746L53.282 18.6194H52.2379L52.0284 19.4945H53.0726L52.9782 19.8886H51.5049Z" fill="#696A6A"/>
</g>
<g id="g126">
<path id="path128" d="M43.6771 14.8201H40.7271L44.8299 0.00229931H47.7802L43.6771 14.8201Z" fill="#66686C"/>
</g>
<g id="g130">
<path id="path132" d="M42.1454 0.470468C41.9409 0.188508 41.6254 0.0462275 41.1969 0.0462275H24.9745L24.171 2.94843H27.1228V2.94675H38.9288L38.0699 6.04815H26.2636L26.2647 6.04172H23.3141L20.8652 14.8825H23.8173L25.4607 8.94867H38.7319C39.1464 8.94867 39.5365 8.80731 39.9034 8.52458C40.2695 8.24155 40.5104 7.89258 40.6259 7.47584L42.2692 1.54078C42.3891 1.11012 42.3477 0.752732 42.1454 0.470468Z" fill="#66686C"/>
</g>
<g id="g134">
<path id="path136" d="M19.1464 13.8948C18.9834 14.4815 18.4492 14.8874 17.8401 14.8874H2.6191C2.20435 14.8874 1.89607 14.746 1.69336 14.4636C1.49081 14.1809 1.44736 13.8312 1.56317 13.4146L5.27714 0.0453129H8.22998L4.91272 11.9861H16.7244L20.0417 0.0453129H22.9939L19.1464 13.8948Z" fill="#66686C"/>
</g>
<g id="g138">
<path id="path140" d="M52.8754 0.0293665L56.6105 7.45745L48.7588 14.8835L52.8754 0.0293665Z" fill="#27803B"/>
</g>
<g id="g142">
<path id="path144" d="M50.2569 0.0293665L53.9892 7.45745L46.1343 14.8835L50.2569 0.0293665Z" fill="#E9661C"/>
</g>
</g>
</g>
</g>
</g>
</g>
</g>
<defs>
<clipPath id="clip0_1_4719">
<rect width="56.6113" height="20" fill="white"/>
</clipPath>
</defs>
</svg>
