<svg width="90" height="60" viewBox="0 0 90 60" fill="none" xmlns="http://www.w3.org/2000/svg">
<g id="Frame 33599">
<rect x="0.5" y="0.5" width="89" height="59" rx="7.5" fill="#F7F7F7"/>
<path id="visa-logo" fill-rule="evenodd" clip-rule="evenodd" d="M29.3131 39.3959H24.0123L20.0374 24.2312C19.8487 23.5336 19.4481 22.9169 18.8589 22.6263C17.3883 21.8958 15.7678 21.3145 14 21.0213V20.4375H22.5392C23.7177 20.4375 24.6016 21.3145 24.7489 22.3331L26.8114 33.2719L32.1096 20.4375H37.2631L29.3131 39.3959ZM40.2093 39.3959H35.2031L39.3254 20.4375H44.3316L40.2093 39.3959ZM50.8084 25.6893C50.9557 24.6682 51.8396 24.0844 52.8708 24.0844C54.4913 23.9378 56.2565 24.2309 57.7297 24.9589L58.6136 20.877C57.1404 20.2932 55.5199 20 54.0494 20C49.1905 20 45.6549 22.626 45.6549 26.2706C45.6549 29.0432 48.1593 30.499 49.9271 31.376C51.8396 32.2505 52.5762 32.8344 52.4289 33.7089C52.4289 35.0206 50.9557 35.6045 49.4851 35.6045C47.7174 35.6045 45.9496 35.1672 44.3317 34.4368L43.4478 38.5211C45.2156 39.249 47.1281 39.5422 48.8959 39.5422C54.344 39.6863 57.7297 37.0628 57.7297 33.125C57.7297 28.1662 50.8084 27.8755 50.8084 25.6893ZM75.2501 39.3959L71.2752 20.4375H67.0056C66.1217 20.4375 65.2378 21.0213 64.9432 21.8958L57.5825 39.3959H62.736L63.7646 36.6258H70.0967L70.6859 39.3959H75.2501ZM67.742 25.543L69.2126 32.6881H65.0903L67.742 25.543Z" fill="#172B85"/>
<rect x="0.5" y="0.5" width="89" height="59" rx="7.5" stroke="#D9D9D9"/>
</g>
</svg>
